<?xml version="1.0" encoding="UTF-8"?>
<svg width="24px" height="24px" viewBox="0 0 24 24" version="1.1" xmlns="http://www.w3.org/2000/svg" xmlns:xlink="http://www.w3.org/1999/xlink">
    <title>Icon/Fill/Activities</title>
    <g id="Icon/Fill/Activities" stroke="none" stroke-width="1" fill="none" fill-rule="evenodd">
        <path d="M16.3399,1.9992 C19.7299,1.9992 21.9999,4.3792 21.9999,7.9192 L21.9999,7.9192 L21.9999,16.0902 C21.9999,19.6202 19.7299,21.9992 16.3399,21.9992 L16.3399,21.9992 L7.6699,21.9992 C4.2799,21.9992 1.9999,19.6202 1.9999,16.0902 L1.9999,16.0902 L2,14.7499982 L6,14.7499982 L6.10606274,14.7424958 C6.38423461,14.7028643 6.62076978,14.5093989 6.71151247,14.2371708 L6.71151247,14.2371708 L9.024,8.298 L13.2936936,18.2522523 L13.3420869,18.3616348 C13.635569,18.908953 14.4713006,18.8791993 14.7022469,18.2633426 L14.7022469,18.2633426 L17.188,12.635 L18.3759623,14.4160251 L18.4411683,14.5002223 C18.5823069,14.6579239 18.7850587,14.7499982 19,14.7499982 L19,14.7499982 L19.5,14.7499982 L19.601771,14.7431534 C19.9678466,14.693491 20.25,14.3796958 20.25,14 L20.25,14 L20.243153,13.8982294 C20.1934906,13.5321539 19.8796958,13.2499982 19.5,13.2499982 L19.5,13.2499982 L19.402,13.2499982 L17.6240377,10.5839749 L17.5556189,10.4955776 C17.1905485,10.0883274 16.4989879,10.2000314 16.2977531,10.7366574 L16.2977531,10.7366574 L14.017,15.817 L9.70630643,5.7477477 L9.65999971,5.64218899 C9.36298247,5.07974154 8.50134482,5.12425728 8.28848753,5.76282918 L8.28848753,5.76282918 L5.459,13.2499982 L2,13.2499982 L1.9999,7.9192 C1.9999,4.3792 4.2799,1.9992 7.6699,1.9992 L7.6699,1.9992 Z" id="Path-20" fill="#424851"></path>
    </g>
</svg>