<?xml version="1.0" encoding="UTF-8"?>
<svg width="24px" height="24px" viewBox="0 0 24 24" version="1.1" xmlns="http://www.w3.org/2000/svg" xmlns:xlink="http://www.w3.org/1999/xlink">
    <title>Icon/Fill/alert-danger-warning</title>
    <g id="Icon/Fill/alert-danger-warning" stroke="none" stroke-width="1" fill="none" fill-rule="evenodd">
        <path d="M10.6279014,3.35309386 C11.9876723,2.59902033 13.7173808,3.09446943 14.4772527,4.44209099 L14.4772527,4.44209099 L21.7460279,17.057216 C21.9060009,17.4337574 21.9759891,17.7399449 21.9959857,18.0580232 C22.035979,18.8011969 21.7760228,19.5235617 21.2661087,20.0794556 C20.7561947,20.6333677 20.0663109,20.9603641 19.3164373,21 L19.3164373,21 L4.67890388,21 C4.36895611,20.9811729 4.05900834,20.9108192 3.7690572,20.8018204 C2.3193015,20.2171904 1.61941944,18.5722994 2.20932003,17.1463969 L2.20932003,17.1463969 L9.52808673,4.43317291 C9.77804461,3.98627781 10.1579806,3.60081841 10.6279014,3.35309386 Z M11.9976706,15.2726084 C11.5177514,15.2726084 11.1178188,15.6689677 11.1178188,16.1455897 C11.1178188,16.6202299 11.5177514,17.0175801 11.9976706,17.0175801 C12.4775897,17.0175801 12.867524,16.6202299 12.867524,16.1346898 C12.867524,15.6600496 12.4775897,15.2726084 11.9976706,15.2726084 Z M11.9976706,9.09039447 C11.5177514,9.09039447 11.1178188,9.47585387 11.1178188,9.95247591 L11.1178188,9.95247591 L11.1178188,12.7557269 C11.1178188,13.2313581 11.5177514,13.6287083 11.9976706,13.6287083 C12.4775897,13.6287083 12.867524,13.2313581 12.867524,12.7557269 L12.867524,12.7557269 L12.867524,9.95247591 C12.867524,9.47585387 12.4775897,9.09039447 11.9976706,9.09039447 Z" id="Danger" fill="#424851"></path>
    </g>
</svg>