<?xml version="1.0" encoding="UTF-8"?>
<svg width="24px" height="24px" viewBox="0 0 24 24" version="1.1" xmlns="http://www.w3.org/2000/svg" xmlns:xlink="http://www.w3.org/1999/xlink">
    <title>Icon/Alert-circle</title>
    <g id="Icon/Alert-circle" stroke="none" stroke-width="1" fill="none" fill-rule="evenodd">
        <path d="M12,2 C17.5228475,2 22,6.4771525 22,12 C22,17.5228475 17.5228475,22 12,22 C6.4771525,22 2,17.5228475 2,12 C2,6.4771525 6.4771525,2 12,2 Z M12,14.5 L11.25,14.5 C10.9738576,14.5 10.75,14.7238576 10.75,15 L10.75,15 L10.75,15.75 C10.75,16.4403559 11.3096441,17 12,17 L12,17 L12.75,17 C13.0261424,17 13.25,16.7761424 13.25,16.5 L13.25,16.5 L13.25,15.75 C13.25,15.0596441 12.6903559,14.5 12,14.5 L12,14.5 Z M12,7 L11.25,7 C10.9738576,7 10.75,7.22385763 10.75,7.5 L10.75,7.5 L10.75,11.75 C10.75,12.4403559 11.3096441,13 12,13 L12,13 L12.75,13 C13.0261424,13 13.25,12.7761424 13.25,12.5 L13.25,12.5 L13.25,8.25 C13.25,7.55964406 12.6903559,7 12,7 L12,7 Z" id="↳-🎨-ICON-COLOR" fill="#424851"></path>
    </g>
</svg>