<?xml version="1.0" encoding="UTF-8"?>
<svg width="24px" height="24px" viewBox="0 0 24 24" version="1.1" xmlns="http://www.w3.org/2000/svg" xmlns:xlink="http://www.w3.org/1999/xlink">
    <title>Icon/Alert-triangle</title>
    <g id="Icon/Alert-triangle" stroke="none" stroke-width="1" fill="none" fill-rule="evenodd">
        <path d="M10.6279014,3.35309386 C11.9876723,2.59902033 13.7173808,3.09446943 14.4772527,4.44209099 L14.4772527,4.44209099 L21.7460279,17.057216 C21.9060009,17.4337574 21.9759891,17.7399449 21.9959857,18.0580232 C22.035979,18.8011969 21.7760228,19.5235617 21.2661087,20.0794556 C20.7561947,20.6333677 20.0663109,20.9603641 19.3164373,21 L19.3164373,21 L4.67890388,21 C4.36895611,20.9811729 4.05900834,20.9108192 3.7690572,20.8018204 C2.3193015,20.2171904 1.61941944,18.5722994 2.20932003,17.1463969 L2.20932003,17.1463969 L9.52808673,4.43317291 C9.77804461,3.98627781 10.1579806,3.60081841 10.6279014,3.35309386 Z M12,15.5 L11.25,15.5 C10.9738576,15.5 10.75,15.7238576 10.75,16 L10.75,16 L10.75,16.75 C10.75,17.4403559 11.3096441,18 12,18 L12,18 L12.75,18 C13.0261424,18 13.25,17.7761424 13.25,17.5 L13.25,17.5 L13.25,16.75 C13.25,16.0596441 12.6903559,15.5 12,15.5 L12,15.5 Z M12,8 L11.25,8 C10.9738576,8 10.75,8.22385763 10.75,8.5 L10.75,8.5 L10.75,12.75 C10.75,13.4403559 11.3096441,14 12,14 L12,14 L12.75,14 C13.0261424,14 13.25,13.7761424 13.25,13.5 L13.25,13.5 L13.25,9.25 C13.25,8.55964406 12.6903559,8 12,8 L12,8 Z" id="↳-🎨-ICON-COLOR" fill="#424851"></path>
    </g>
</svg>