<?xml version="1.0" encoding="UTF-8"?>
<svg width="24px" height="24px" viewBox="0 0 24 24" version="1.1" xmlns="http://www.w3.org/2000/svg" xmlns:xlink="http://www.w3.org/1999/xlink">
    <title>Icon/Apple</title>
    <g id="Icon/Apple" stroke="none" stroke-width="1" fill="none" fill-rule="evenodd">
        <path d="M19.4890063,7.81868187 C19.3750154,7.90869087 17.3624862,9.06280628 17.3624862,11.6290629 C17.3624862,14.5973597 19.9233509,15.6474647 20,15.6734673 C19.9882078,15.7374737 19.5931704,17.1116112 18.6497973,18.5117512 C17.808623,19.7438744 16.9301069,20.9739974 15.5936617,20.9739974 C14.2572166,20.9739974 13.9132785,20.1839184 12.3704705,20.1839184 C10.8669697,20.1839184 10.3323916,21 9.10993735,21 C7.88748311,21 7.03451664,19.859886 6.05380174,18.459746 C4.91782336,16.8155816 4,14.2613261 4,11.8370837 C4,7.94869487 6.4842157,5.88648865 8.92912419,5.88648865 C10.2282275,5.88648865 11.3111411,6.75457546 12.1267658,6.75457546 C12.9030832,6.75457546 14.1137452,5.83448345 15.5916964,5.83448345 C16.1518241,5.83448345 18.1643533,5.88648865 19.4890063,7.81868187 Z M14.8900626,4.18831883 C15.5012898,3.45024502 15.9336691,2.42614261 15.9336691,1.4020402 C15.9336691,1.260026 15.9218769,1.1160116 15.8963272,1 C14.9018548,1.0380038 13.7187078,1.67406741 13.0052819,2.51615162 C12.4451542,3.16421642 11.9223683,4.18831883 11.9223683,5.22642264 C11.9223683,5.38243824 11.9479179,5.53845385 11.9597101,5.58845885 C12.0226016,5.60046005 12.1248004,5.61446145 12.2269991,5.61446145 C13.1192728,5.61446145 14.2414937,5.00640064 14.8900626,4.18831883 Z" id="↳-🎨-ICON-COLOR" fill="#424851"></path>
    </g>
</svg>