<?xml version="1.0" encoding="UTF-8"?>
<svg width="24px" height="24px" viewBox="0 0 24 24" version="1.1" xmlns="http://www.w3.org/2000/svg" xmlns:xlink="http://www.w3.org/1999/xlink">
    <title>Icon/Fill/Appointment</title>
    <g id="Icon/Fill/Appointment" stroke="none" stroke-width="1" fill="none" fill-rule="evenodd">
        <path d="M19,11 C20.6568542,11 22,12.3431458 22,14 L22,18 C22,18.5522847 21.5522847,19 21,19 C20.4477153,19 20,19.4477153 20,20 L20,21 C20,21.5522847 19.5522847,22 19,22 L16,22 C15.4477153,22 15,21.5522847 15,21 L15,20 C15,19.4477153 14.5522847,19 14,19 L2.75,19 C2.33578644,19 2,18.6642136 2,18.25 C2,17.8357864 2.33578644,17.5 2.75,17.5 L13,17.5 L13,14 C13,12.3431458 14.3431458,11 16,11 L19,11 Z M4.8454915,11 C4.94018452,11 5.0267503,11.0535006 5.0690983,11.1381966 L5.7763932,12.5527864 C5.83814051,12.676281 5.98830877,12.7263371 6.1118034,12.6645898 C6.16018525,12.6403989 6.19941587,12.6011683 6.2236068,12.5527864 L6.9309017,11.1381966 C6.9732497,11.0535006 7.05981548,11 7.1545085,11 L7.5,11 C8.88071187,11 10,12.1192881 10,13.5 L10,15 C10,15.5522847 9.55228475,16 9,16 L3,16 C2.44771525,16 2,15.5522847 2,15 L2,13.5 C2,12.1192881 3.11928813,11 4.5,11 L4.8454915,11 Z M6,6 C7.1045695,6 8,6.8954305 8,8 C8,9.1045695 7.1045695,10 6,10 C4.8954305,10 4,9.1045695 4,8 C4,6.8954305 4.8954305,6 6,6 Z M17.5,5 C18.8807119,5 20,6.11928813 20,7.5 C20,8.88071187 18.8807119,10 17.5,10 C16.1192881,10 15,8.88071187 15,7.5 C15,6.11928813 16.1192881,5 17.5,5 Z M11.5,1.75 C11.8796958,1.75 12.193491,2.03215388 12.2431534,2.39822944 L12.25,2.5 L12.25,3.75 L13.5,3.75 C13.9142136,3.75 14.25,4.08578644 14.25,4.5 C14.25,4.87969577 13.9678461,5.19349096 13.6017706,5.24315338 L13.5,5.25 L12.25,5.25 L12.25,6.5 C12.25,6.91421356 11.9142136,7.25 11.5,7.25 C11.1203042,7.25 10.806509,6.96784612 10.7568466,6.60177056 L10.75,6.5 L10.75,5.25 L9.5,5.25 C9.08578644,5.25 8.75,4.91421356 8.75,4.5 C8.75,4.12030423 9.03215388,3.80650904 9.39822944,3.75684662 L9.5,3.75 L10.75,3.75 L10.75,2.5 C10.75,2.08578644 11.0857864,1.75 11.5,1.75 Z" id="Combined-Shape" fill="#424851"></path>
    </g>
</svg>