<?xml version="1.0" encoding="UTF-8"?>
<svg width="24px" height="24px" viewBox="0 0 24 24" version="1.1" xmlns="http://www.w3.org/2000/svg" xmlns:xlink="http://www.w3.org/1999/xlink">
    <title>Icon/Fill/Arrow-long-up</title>
    <g id="Icon/Fill/Arrow-long-up" stroke="none" stroke-width="1" fill="none" fill-rule="evenodd">
        <path d="M18.5303301,9.46966991 L18.6029482,9.55378835 C18.8208027,9.84739984 18.7965966,10.2640635 18.5303301,10.5303301 L18.5303301,10.5303301 L18.4462117,10.6029482 C18.1526002,10.8208027 17.7359365,10.7965966 17.4696699,10.5303301 L17.4696699,10.5303301 L12.752,5.81399908 L12.7746,19.9988469 C12.775236,20.4130599 12.4399662,20.7493623 12.0257531,20.75 C11.6460578,20.7505829 11.3318292,20.4689118 11.281604,20.102913 L11.2746009,20.0011531 L11.252,5.80799908 L6.53033009,10.5303301 L6.44621165,10.6029482 C6.15260016,10.8208027 5.73593648,10.7965966 5.46966991,10.5303301 C5.1767767,10.2374369 5.1767767,9.76256313 5.46966991,9.46966991 L5.46966991,9.46966991 L11.4696699,3.46966991 C11.5233309,3.41675754 11.5798985,3.37462374 11.641736,3.34093804 C11.6545692,3.33391252 11.6668766,3.32767174 11.6793123,3.32179211 C11.6967649,3.31352719 11.7154799,3.3055469 11.7345671,3.29832296 C11.7517909,3.2918575 11.7685206,3.28623052 11.7853922,3.2812094 C11.8007891,3.27655727 11.8167121,3.27236847 11.8328329,3.26869893 C11.8529775,3.26418765 11.8730366,3.26048325 11.8931905,3.25759953 C11.9154194,3.25437363 11.9381424,3.2521638 11.9611395,3.25098954 C11.9721234,3.2504343 11.9831528,3.25010743 11.9941836,3.25002241 L11.9988469,3.24999998 C12.0742607,3.24988421 12.1470919,3.26090295 12.215785,3.28150543 C12.2246872,3.2842179 12.2341301,3.28724176 12.2435218,3.29045729 C12.2703334,3.29965008 12.2957692,3.31002965 12.320465,3.32171842 C12.3271781,3.3248496 12.3345097,3.32845237 12.3417932,3.3321821 C12.3676217,3.34551108 12.3919615,3.35983169 12.4153747,3.37543397 C12.4557868,3.40226258 12.4944257,3.43376558 12.5303301,3.46966991 L12.4458827,3.39687533 C12.4755077,3.41881281 12.5034605,3.44288145 12.5295141,3.46885507 L18.5303301,9.46966991 Z" id="Combined-Shape" fill="#424851"></path>
    </g>
</svg>