<?xml version="1.0" encoding="UTF-8"?>
<svg width="24px" height="24px" viewBox="0 0 24 24" version="1.1" xmlns="http://www.w3.org/2000/svg" xmlns:xlink="http://www.w3.org/1999/xlink">
    <title>Icon/Fill/Arrow-long-left</title>
    <g id="Icon/Fill/Arrow-long-left" stroke="none" stroke-width="1" fill="none" fill-rule="evenodd">
        <path d="M9.55378835,5.39705176 C9.84739984,5.1791973 10.2640635,5.20340335 10.5303301,5.46966991 L10.5303301,5.46966991 L10.6029482,5.55378835 C10.8208027,5.84739984 10.7965966,6.26406352 10.5303301,6.53033009 L10.5303301,6.53033009 L5.811,11.25 L20,11.25 C20.4142136,11.25 20.75,11.5857864 20.75,12 C20.75,12.3796958 20.4678461,12.693491 20.1017706,12.7431534 L20,12.75 L5.811,12.75 L10.5303301,17.4696699 L10.6029482,17.5537883 C10.8208027,17.8473998 10.7965966,18.2640635 10.5303301,18.5303301 C10.2374369,18.8232233 9.76256313,18.8232233 9.46966991,18.5303301 L9.46966991,18.5303301 L3.46966991,12.5303301 L3.40627192,12.4583026 C3.40455735,12.4560847 3.40285492,12.4538569 3.40116475,12.4516193 C3.39254279,12.4401347 3.38813751,12.4340051 3.38383593,12.4278252 C3.36897543,12.4063902 3.35487024,12.3836668 3.34198608,12.3601785 C3.33496828,12.3474599 3.32866533,12.3351229 3.32272614,12.3226558 C3.31287686,12.3020202 3.30357499,12.2799516 3.2953271,12.2573756 C3.29074464,12.2446929 3.28671273,12.2326435 3.28299499,12.2205183 C3.27576118,12.1971921 3.26958796,12.1728958 3.26463159,12.1481598 C3.26230949,12.1362278 3.26025385,12.1245181 3.25847739,12.1127744 C3.25288471,12.0761107 3.25,12.0383922 3.25,12 C3.25,11.9238357 3.26135317,11.8503231 3.2824595,11.7810622 C3.28412011,11.7757544 3.28604456,11.7696832 3.28804813,11.7636325 C3.29805336,11.7334779 3.30955796,11.7050181 3.32269196,11.677485 C3.32648082,11.6694344 3.33083742,11.6607036 3.33537489,11.6520429 C3.34702767,11.6299725 3.35940783,11.6089851 3.372747,11.5886842 C3.40025089,11.5466889 3.43261664,11.5067232 3.46966991,11.4696699 L3.39899844,11.551263 C3.42059395,11.5223864 3.44422179,11.495118 3.46966991,11.4696699 L9.46966991,5.46966991 Z" id="Combined-Shape" fill="#424851"></path>
    </g>
</svg>