<?xml version="1.0" encoding="UTF-8"?>
<svg width="24px" height="24px" viewBox="0 0 24 24" version="1.1" xmlns="http://www.w3.org/2000/svg" xmlns:xlink="http://www.w3.org/1999/xlink">
    <title>Icon/Attachment</title>
    <g id="Icon/Attachment" stroke="none" stroke-width="1" fill="none" fill-rule="evenodd">
        <path d="M8.5376894,3.44454365 C10.5293633,1.45286976 13.7231485,1.39596479 15.7835144,3.27382874 L15.9623106,3.44454365 L19.3054564,6.7876894 C21.2971302,8.77936329 21.3540352,11.9731485 19.4761713,14.0335144 L19.3054564,14.2123106 L12.9623106,20.5554564 C10.9706367,22.5471302 7.77685154,22.6040352 5.71648557,20.7261713 L5.5376894,20.5554564 L4.48743687,19.5052038 C2.88124825,17.8990152 2.82943571,15.3270611 4.33199926,13.658565 L4.48743687,13.4947962 L10.6590097,7.3232233 C11.4958475,6.48638554 12.8278704,6.44653612 13.7118686,7.20367505 L13.8409903,7.3232233 L15.4267767,8.90900974 C16.2636145,9.74584751 16.3034639,11.0778704 15.5463249,11.9618686 L15.4267767,12.0909903 L12.017767,15.5 C11.5296116,15.9881554 10.7381554,15.9881554 10.25,15.5 L9.71966991,14.9696699 C9.52437483,14.7744407 9.52437483,14.4578582 9.71963698,14.2625961 C9.71964796,14.2625851 9.71965894,14.2625741 9.71970285,14.2625961 L13.483,10.5 L13.483,10.5 L12.25,9.267 L6.25520382,15.2625631 C5.61198734,15.9057796 5.57415108,16.9251311 6.14169503,17.6125988 L6.25520382,17.7374369 L7.30545635,18.7876894 C8.33465058,19.8168836 9.97665998,19.8597667 11.0569221,18.9163387 L11.1945436,18.7876894 L17.5376894,12.4445436 C18.5668836,11.4153494 18.6097667,9.77334002 17.6663387,8.69307786 L17.5376894,8.55545635 L14.1945436,5.2123106 C13.1653494,4.18311637 11.52334,4.14023328 10.4430779,5.08366132 L10.3054564,5.2123106 L5.48743687,10.0303301 C5.29217472,10.2255922 4.97559223,10.2255922 4.78033009,10.0303301 L4.25,9.5 C3.76184464,9.01184464 3.76184464,8.22038841 4.25,7.73223305 L8.5376894,3.44454365 L8.5376894,3.44454365 Z" id="↳-🎨-ICON-COLOR" fill="#424851"></path>
    </g>
</svg>