<?xml version="1.0" encoding="UTF-8"?>
<svg width="24px" height="24px" viewBox="0 0 24 24" version="1.1" xmlns="http://www.w3.org/2000/svg" xmlns:xlink="http://www.w3.org/1999/xlink">
    <title>Icon/Fill/Bioflow</title>
    <g id="Icon/Fill/Bioflow" stroke="none" stroke-width="1" fill="none" fill-rule="evenodd">
        <path d="M12.5873111,2.00027503 C13.3518802,2.01525535 13.9687717,2.61091267 14.0254319,3.35820349 L14.0293897,3.49999272 L14.0096047,4.50978742 C14.0048627,4.75180744 13.8287352,4.95089236 13.5983919,4.99214555 L13.5097006,4.99999272 L13.5,4.99999272 C13.2545401,4.99999272 13.0503916,5.17686788 13.0080557,5.41011709 L13,5.49999272 L13,9.29178879 C13,9.67990153 13.0753023,10.0635725 13.2209373,10.4217504 L13.3167184,10.6334296 L16.9996299,17.9989927 L17,9.5 C17,9.22385763 16.7761424,9 16.5,9 C16.2238576,9 16,8.77614237 16,8.5 L16,8 C16,7.44771525 16.4477153,7 17,7 L21,7 C21.5522847,7 22,7.44771525 22,8 L22,8.5 C22,8.77614237 21.7761424,9 21.5,9 C21.2238576,9 21,9.22385763 21,9.5 L21,11 C21,11.4142136 20.6642136,11.75 20.25,11.75 C19.8357864,11.75 19.5,12.0857864 19.5,12.5 C19.5,12.9142136 19.8357864,13.25 20.25,13.25 C20.6296958,13.25 20.943491,13.5321539 20.9931534,13.8982294 L21,14 C21,14.4142136 20.6642136,14.75 20.25,14.75 C19.8357864,14.75 19.5,15.0857864 19.5,15.5 C19.5,15.9142136 19.8357864,16.25 20.25,16.25 C20.6642136,16.25 21,16.5857864 21,17 L21,20 C21,21.1045695 20.1045695,22 19,22 C18.3345277,22 17.7449671,21.6749832 17.3813971,21.1750286 C17.046395,21.637256 16.5170788,21.949954 15.9131944,21.994507 L15.763932,21.9999927 L4.23606798,21.9999927 C3.92557779,21.9999927 3.61935166,21.9277025 3.34164079,21.7888471 C2.40072936,21.3183914 1.99270529,20.2063324 2.38269664,19.2480544 L2.4472136,19.1055655 L6.68328157,10.6334296 C6.85685087,10.286291 6.96108136,9.90944901 6.99100348,9.52395502 L7,9.29178879 L7,5.49999272 C7,5.22385035 6.77614237,4.99999272 6.5,4.99999272 C6.25454011,4.99999272 6.05039163,4.82311756 6.00805567,4.58986836 L6,4.49999272 L6,3.49999272 C6,2.72029661 6.59488808,2.07954405 7.35553999,2.0068593 L7.5,1.99999272 L12.5873111,2.00027503 Z M13.5561789,14.4642873 C12.0145042,16.0295652 9.87058068,17 7.5,17 C6.87155631,17 6.25904177,16.9317992 5.66945401,16.8023952 L5.31850855,16.7174643 L3.78885438,19.7763859 L3.75586599,19.8603757 C3.6894202,20.0879334 3.79291518,20.3374333 4.01246118,20.4472063 L4.08404062,20.4763201 L4.08404062,20.4763201 L4.15902532,20.4940216 L4.23606798,20.4999927 L15.763932,20.4999927 L15.8538077,20.4919371 C16.0870569,20.4496011 16.263932,20.2454526 16.263932,19.9999927 L16.2579608,19.9229501 L16.2579608,19.9229501 L16.2402594,19.8479654 L16.2111456,19.7763859 L13.5561789,14.4642873 Z" id="Path-8" fill="#424851"></path>
    </g>
</svg>