<?xml version="1.0" encoding="UTF-8"?>
<svg width="24px" height="24px" viewBox="0 0 24 24" version="1.1" xmlns="http://www.w3.org/2000/svg" xmlns:xlink="http://www.w3.org/1999/xlink">
    <title>Icon/Fill/Camera</title>
    <g id="Icon/Fill/Camera" stroke="none" stroke-width="1" fill="none" fill-rule="evenodd">
        <path d="M14.35,3 C15.32,3.0099889 16.11,3.50943396 16.57,4.40843507 C16.68875,4.64567148 16.854375,4.99216149 17.0278125,5.35767333 L17.2371875,5.79964319 L17.2371875,5.79964319 L17.34,6.01664817 L17.44,6.236404 C17.48,6.3063263 17.55,6.35627081 17.64,6.35627081 C20.04,6.35627081 22,8.31409545 22,10.7114317 L22,10.7114317 L22,16.6448391 C22,19.0421754 20.04,21 17.64,21 L17.64,21 L6.36,21 C3.95,21 2,19.0421754 2,16.6448391 L2,16.6448391 L2,10.7114317 C2,8.31409545 3.95,6.35627081 6.36,6.35627081 C6.44,6.35627081 6.52,6.31631521 6.55,6.236404 L6.55,6.236404 L6.61,6.11653718 C6.89,5.52719201 7.23,4.80799112 7.43,4.40843507 C7.89,3.50943396 8.67,3.0099889 9.64,3 L9.64,3 Z M12,9.40288568 C10.95,9.40288568 9.96,9.81243063 9.21,10.5615982 C8.47,11.3107658 8.06,12.2896781 8.07,13.3285239 C8.07,14.3773585 8.48,15.3562708 9.22,16.1054384 C9.97,16.8446171 10.95,17.254162 12,17.254162 C13.08,17.254162 14.06,16.8146504 14.77,16.1054384 C15.48,15.3962264 15.92,14.4173141 15.93,13.3285239 C15.93,12.2896781 15.52,11.3007769 14.78,10.5516093 C14.04,9.81243063 13.05,9.40288568 12,9.40288568 Z M12,10.9012209 C12.65,10.9012209 13.26,11.1509434 13.72,11.6104329 C14.18,12.0699223 14.43,12.6792453 14.43,13.3285239 C14.42,14.6670366 13.34,15.7558269 12,15.7558269 C11.35,15.7558269 10.74,15.5061043 10.28,15.0466149 C9.82,14.5871254 9.57,13.9778024 9.57,13.3285239 L9.57,13.3285239 L9.57,13.318535 C9.56,12.6892342 9.81,12.0799112 10.27,11.6204218 C10.74,11.1509434 11.35,10.9012209 12,10.9012209 Z M17.61,9.16315205 C17.11,9.16315205 16.71,9.572697 16.71,10.0721421 C16.71,10.5715871 17.11,10.9711432 17.61,10.9711432 C18.11,10.9711432 18.52,10.5715871 18.52,10.0721421 C18.52,9.572697 18.11,9.16315205 17.61,9.16315205 Z" id="Camera" fill="#424851"></path>
    </g>
</svg>