<?xml version="1.0" encoding="UTF-8"?>
<svg width="24px" height="24px" viewBox="0 0 24 24" version="1.1" xmlns="http://www.w3.org/2000/svg" xmlns:xlink="http://www.w3.org/1999/xlink">
    <title>Icon/Fill/Clinic</title>
    <g id="Icon/Fill/Clinic" stroke="none" stroke-width="1" fill="none" fill-rule="evenodd">
        <path d="M16.4,7 C18.9405098,7 21,9.05949015 21,11.6 L21,17.4 C21,19.0968693 20.0812133,20.5791444 18.7139874,21.3764777 C18.7014785,21.3837726 18.6873987,21.3916563 18.671748,21.4001288 C18.4507538,21.5197448 18.1746292,21.4375803 18.0549982,21.2165942 C18.0309928,21.1722507 18.0146095,21.1243839 18.0063538,21.074989 L18.000129,21 L18.000129,21 L18,17.5 L18,17.5 C18,16.7203039 17.4051119,16.0795513 16.64446,16.0068666 L16.5,16 L15.5,16 C14.7203039,16 14.0795513,16.5948881 14.0068666,17.35554 L14,17.5 L14,21 C14,21.5522847 13.5522847,22 13,22 L7.6,22 C5.05949015,22 3,19.9405098 3,17.4 L3,11.6 C3,11.0383125 3.10067173,10.5001381 3.284956,10.002536 L3.31316827,9.93015429 L3.31316827,9.93015429 L3.3463629,9.85194061 C3.457503,9.59915705 3.7525214,9.48433234 4.00530496,9.59547243 C4.08644984,9.631149 4.15665145,9.68775655 4.2087173,9.75949535 C4.28004196,9.85776985 4.34691989,9.93933562 4.40935108,10.0041926 C5.00046574,10.6182757 5.83065462,11 6.75,11 L10.75,11 C12.5449254,11 14,9.54492544 14,7.75 L14,7.5 C14,7.22385763 14.2238576,7 14.5,7 L16.4,7 L16.4,7 Z M10.25,17 L7.75,17 C7.33578644,17 7,17.3357864 7,17.75 C7,18.1642136 7.33578644,18.5 7.75,18.5 L7.75,18.5 L10.25,18.5 C10.6642136,18.5 11,18.1642136 11,17.75 C11,17.3357864 10.6642136,17 10.25,17 L10.25,17 Z M10.25,14 L7.75,14 C7.33578644,14 7,14.3357864 7,14.75 C7,15.1642136 7.33578644,15.5 7.75,15.5 L7.75,15.5 L10.25,15.5 C10.6642136,15.5 11,15.1642136 11,14.75 C11,14.3357864 10.6642136,14 10.25,14 L10.25,14 Z M10.75,2 C11.7164983,2 12.5,2.78350169 12.5,3.75 L12.5,7.75 C12.5,8.71649831 11.7164983,9.5 10.75,9.5 L6.75,9.5 C5.78350169,9.5 5,8.71649831 5,7.75 L5,3.75 C5,2.78350169 5.78350169,2 6.75,2 L10.75,2 Z M8.75,3.5 C8.37030423,3.5 8.05650904,3.78215388 8.00684662,4.14822944 L8,4.25 L8,5 L7.25,5 L7.14822944,5.00684662 C6.78215388,5.05650904 6.5,5.37030423 6.5,5.75 C6.5,6.12969577 6.78215388,6.44349096 7.14822944,6.49315338 L7.25,6.5 L8,6.5 L8,7.25 L8.00684662,7.35177056 C8.05650904,7.71784612 8.37030423,8 8.75,8 C9.12969577,8 9.44349096,7.71784612 9.49315338,7.35177056 L9.5,7.25 L9.5,6.5 L10.25,6.5 L10.3517706,6.49315338 C10.7178461,6.44349096 11,6.12969577 11,5.75 C11,5.37030423 10.7178461,5.05650904 10.3517706,5.00684662 L10.25,5 L9.5,5 L9.5,4.25 L9.49315338,4.14822944 C9.44349096,3.78215388 9.12969577,3.5 8.75,3.5 Z" id="Path-2" fill="#424851"></path>
    </g>
</svg>