<?xml version="1.0" encoding="UTF-8"?>
<svg width="24px" height="24px" viewBox="0 0 24 24" version="1.1" xmlns="http://www.w3.org/2000/svg" xmlns:xlink="http://www.w3.org/1999/xlink">
    <title>Icon/Clock</title>
    <g id="Icon/Clock" stroke="none" stroke-width="1" fill="none" fill-rule="evenodd">
        <path d="M16.3399,2.0001 C19.7299,2.0001 21.9999,4.3791 21.9999,7.9191 L21.9999,7.9191 L21.9999,16.0891 C21.9999,19.6201 19.7299,22.0001 16.3399,22.0001 L16.3399,22.0001 L7.6699,22.0001 C4.2799,22.0001 1.9999,19.6201 1.9999,16.0891 L1.9999,16.0891 L1.9999,7.9191 C1.9999,4.3791 4.2799,2.0001 7.6699,2.0001 L7.6699,2.0001 Z M12.7499,6 L11.9999,6 C11.3095441,6 10.7499,6.55964406 10.7499,7.25 L10.7499,7.25 L10.7499,11.598714 C10.7499,12.2674177 11.0840996,12.8918782 11.6404932,13.2628104 L11.6404932,13.2628104 L16.8905967,16.7629085 C17.1203604,16.9160856 17.4307953,16.8539999 17.5839725,16.6242361 L17.5839725,16.6242361 L18,16.0002 L18,16.0002 L18.0694791,15.8827452 C18.3603636,15.3240157 18.1893816,14.6241827 17.653277,14.2668236 L17.653277,14.2668236 L13.4717187,11.4794609 C13.3325808,11.3867137 13.249017,11.2305521 13.2490452,11.0633356 L13.2490452,11.0633356 L13.2498156,6.49999999 L13.2498156,6.49999999 C13.2499,6.22377322 13.0260424,5.9999156 12.7499,6 L12.7499,6 Z" id="↳-🎨-ICON-COLOR" fill="#424851"></path>
    </g>
</svg>