<?xml version="1.0" encoding="UTF-8"?>
<svg width="24px" height="24px" viewBox="0 0 24 24" version="1.1" xmlns="http://www.w3.org/2000/svg" xmlns:xlink="http://www.w3.org/1999/xlink">
    <title>Icon/Fill/Close</title>
    <g id="Icon/Fill/Close" stroke="none" stroke-width="1" fill="none" fill-rule="evenodd">
        <path d="M16.3398,1.9992 C19.7298,1.9992 21.9998,4.3792 21.9998,7.9192 L21.9998,7.9192 L21.9998,16.0902 C21.9998,19.6202 19.7298,21.9992 16.3398,21.9992 L16.3398,21.9992 L7.6698,21.9992 C4.2798,21.9992 1.9998,19.6202 1.9998,16.0902 L1.9998,16.0902 L1.9998,7.9192 C1.9998,4.3792 4.2798,1.9992 7.6698,1.9992 L7.6698,1.9992 Z M15.0098,8.9702 C14.6698,8.6292 14.1198,8.6292 13.7698,8.9702 L13.7698,8.9702 L11.9998,10.7492 L10.2198,8.9702 C9.8698,8.6292 9.3198,8.6292 8.9798,8.9702 C8.6398,9.3102 8.6398,9.8702 8.9798,10.2092 L8.9798,10.2092 L10.7598,11.9902 L8.9798,13.7602 C8.6398,14.1102 8.6398,14.6602 8.9798,14.9992 C9.1498,15.1692 9.3798,15.2602 9.5998,15.2602 C9.8298,15.2602 10.0498,15.1692 10.2198,14.9992 L10.2198,14.9992 L11.9998,13.2302 L13.7798,14.9992 C13.9498,15.1802 14.1698,15.2602 14.3898,15.2602 C14.6198,15.2602 14.8398,15.1692 15.0098,14.9992 C15.3498,14.6602 15.3498,14.1102 15.0098,13.7702 L15.0098,13.7702 L13.2298,11.9902 L15.0098,10.2092 C15.3498,9.8702 15.3498,9.3102 15.0098,8.9702 Z" id="Close-Square" fill="#424851"></path>
    </g>
</svg>