<?xml version="1.0" encoding="UTF-8"?>
<svg width="24px" height="24px" viewBox="0 0 24 24" version="1.1" xmlns="http://www.w3.org/2000/svg" xmlns:xlink="http://www.w3.org/1999/xlink">
    <title>Icon/Close</title>
    <g id="Icon/Close" stroke="none" stroke-width="1" fill="none" fill-rule="evenodd">
        <path d="M12,5 C12.8284271,5 13.5,5.67157288 13.5,6.5 L13.5,10.5 L18.5,10.5 C18.7761424,10.5 19,10.7238576 19,11 L19,12 C19,12.8284271 18.3284271,13.5 17.5,13.5 L13.5,13.5 L13.5,18.5 C13.5,18.7761424 13.2761424,19 13,19 L12,19 C11.1715729,19 10.5,18.3284271 10.5,17.5 L10.5,13.5 L5.5,13.5 C5.22385763,13.5 5,13.2761424 5,13 L5,12 C5,11.1715729 5.67157288,10.5 6.5,10.5 L10.5,10.5 L10.5,5.5 C10.5,5.22385763 10.7238576,5 11,5 L12,5 Z" id="↳-🎨-ICON-COLOR" fill="#424851" transform="translate(12.000000, 12.000000) rotate(-315.000000) translate(-12.000000, -12.000000) "></path>
    </g>
</svg>