<?xml version="1.0" encoding="UTF-8"?>
<svg width="24px" height="24px" viewBox="0 0 24 24" version="1.1" xmlns="http://www.w3.org/2000/svg" xmlns:xlink="http://www.w3.org/1999/xlink">
    <title>Icon/Compress</title>
    <g id="Icon/Compress" stroke="none" stroke-width="1" fill="none" fill-rule="evenodd">
        <path d="M2,9.5 L2,8.5 C2,7.67157288 2.67157288,7 3.5,7 L6,7 L6,7 L6,3.5 C6,3.22385763 6.22385763,3 6.5,3 L7.5,3 C8.32842712,3 9,3.67157288 9,4.5 L9,8.5 L9,8.5 C9,9.27969612 8.40511192,9.92044868 7.64446001,9.99313342 L7.5,10 L2.5,10 C2.22385763,10 2,9.77614237 2,9.5 Z M22,8.5 L22,7.5 C22,7.22385763 21.7761424,7 21.5,7 L18,7 L18,7 L18,4.5 C18,3.67157288 17.3284271,3 16.5,3 L15.5,3 C15.2238576,3 15,3.22385763 15,3.5 L15,8.5 L15,8.5 C15,9.27969612 15.5948881,9.92044868 16.35554,9.99313342 L16.5,10 L20.5,10 C21.3284271,10 22,9.32842712 22,8.5 Z M22,14.5 L22,15.5 C22,16.3284271 21.3284271,17 20.5,17 L18,17 L18,17 L18,20.5 C18,20.7761424 17.7761424,21 17.5,21 L16.5,21 C15.6715729,21 15,20.3284271 15,19.5 L15,15.5 L15,15.5 C15,14.7203039 15.5948881,14.0795513 16.35554,14.0068666 L16.5,14 L21.5,14 C21.7761424,14 22,14.2238576 22,14.5 Z M2,15.5 L2,16.5 C2,16.7761424 2.22385763,17 2.5,17 L6,17 L6,17 L6,19.5 C6,20.3284271 6.67157288,21 7.5,21 L8.5,21 C8.77614237,21 9,20.7761424 9,20.5 L9,15.5 L9,15.5 C9,14.7203039 8.40511192,14.0795513 7.64446001,14.0068666 L7.5,14 L3.5,14 C2.67157288,14 2,14.6715729 2,15.5 Z" id="↳-🎨-ICON-COLOR" fill="#424851"></path>
    </g>
</svg>