<svg width="24" height="24" viewBox="0 0 24 24" fill="none" xmlns="http://www.w3.org/2000/svg">
<path d="M7.82813 0.0328115C6.58125 0.239062 5.47031 1.38281 5.28281 2.65312L5.23125 2.98594L4.59844 3.01406C4.24688 3.03281 3.84375 3.075 3.70313 3.1125C2.6625 3.39844 1.8 4.33125 1.57031 5.41875C1.51406 5.69531 1.5 6.89531 1.5 13.4812C1.5 18.0797 1.51875 21.3141 1.54219 21.45C1.74844 22.5328 2.62031 23.5125 3.68906 23.8687L4.00781 23.9766H10.125H16.2422L16.5609 23.8687C17.6813 23.4937 18.5484 22.4766 18.7172 21.3469L18.7688 21.0094L19.4016 20.9859C19.8844 20.9672 20.1094 20.9391 20.3344 20.8641C21.3891 20.5031 22.2516 19.5187 22.4578 18.45C22.4813 18.3187 22.5 15.6984 22.5 12.1219V6.01875L19.8844 3.01875L17.2688 0.0234365L12.6094 0.018749C10.0453 0.0140615 7.89375 0.0234365 7.82813 0.0328115ZM15.7594 3.26719C15.7734 4.94531 15.7828 5.05312 15.8813 5.34375C16.0313 5.80312 16.2984 6.22031 16.6641 6.58594C17.0391 6.96094 17.3719 7.17187 17.8688 7.35C18.2063 7.47187 18.2344 7.47656 19.6078 7.49062L21 7.50937L20.9906 12.9281L20.9766 18.3516L20.8453 18.6C20.6719 18.9281 20.3906 19.2 20.0672 19.3547L19.8047 19.4766H13.875H7.94531L7.68281 19.3547C7.35938 19.2 7.07813 18.9281 6.90469 18.6L6.77344 18.3516V10.5V2.64844L6.88594 2.4375C7.12969 1.97812 7.39688 1.73906 7.84219 1.58906C8.06719 1.50937 8.35313 1.50469 11.9156 1.5H15.7453L15.7594 3.26719ZM19.2516 3.91406L20.9813 5.97656L19.7906 5.99062C18.7453 6 18.5813 5.99062 18.4313 5.92031C18.0094 5.72344 17.5219 4.99219 17.3438 4.28437C17.2641 3.97031 17.25 3.76406 17.25 2.72344L17.2547 1.52344L17.3859 1.6875C17.4609 1.77656 18.3 2.77969 19.2516 3.91406ZM5.25 11.3625C5.25 15.4125 5.26875 18.3141 5.29219 18.45C5.49375 19.5187 6.3375 20.4797 7.41563 20.8687L7.71094 20.9766L12.4828 20.9906L17.2594 21.0047L17.2266 21.2016C17.1469 21.6703 16.7813 22.1344 16.3172 22.3547L16.0547 22.4766H10.125H4.19531L3.93281 22.3547C3.59531 22.1953 3.30469 21.9047 3.14531 21.5672L3.02344 21.3047V13.4766V5.64844L3.12656 5.42812C3.17813 5.31094 3.31406 5.11406 3.42188 4.99687C3.75469 4.63594 4.10625 4.51875 4.88906 4.50469L5.25 4.5V11.3625Z" fill="#424851"/>
<path d="M10.2516 10.5656C10.0219 10.65 9.95157 10.7156 9.83438 10.9406C9.66094 11.2828 9.77344 11.6578 10.125 11.8922L10.2797 12H13.875H17.4703L17.625 11.8922C17.8594 11.7375 17.9625 11.5641 17.9859 11.3109C18.0094 11.0344 17.8688 10.7625 17.625 10.6219C17.4656 10.5234 17.4 10.5234 13.9453 10.5141C11.0859 10.5047 10.3969 10.5141 10.2516 10.5656Z" fill="#424851"/>
<path d="M10.1719 14.3531C9.65156 14.6156 9.61406 15.2719 10.0969 15.6281C10.2234 15.7266 10.2609 15.7266 13.875 15.7266C17.4891 15.7266 17.5266 15.7266 17.6531 15.6281C17.8641 15.4734 17.9672 15.3 17.9859 15.0609C18.0094 14.7562 17.8641 14.4984 17.5781 14.3531L17.3719 14.25H13.875H10.3781L10.1719 14.3531Z" fill="#424851"/>
</svg>
