<?xml version="1.0" encoding="UTF-8"?>
<svg width="24px" height="24px" viewBox="0 0 24 24" version="1.1" xmlns="http://www.w3.org/2000/svg" xmlns:xlink="http://www.w3.org/1999/xlink">
    <title>Icon/Desktop</title>
    <g id="Icon/Desktop" stroke="none" stroke-width="1" fill="none" fill-rule="evenodd">
        <path d="M10.3141974,18 L13.6858026,18 C13.9575627,18 14.2176187,18.1106041 14.4061228,18.3063583 L15.5555556,19.5 C15.8948431,19.8523371 15.8842644,20.4130097 15.5319273,20.7522973 C15.3668958,20.9112165 15.1467013,21 14.9175928,21 L9.0824072,21 C8.59326766,21 8.19674171,20.6034741 8.19674171,20.1143345 C8.19674171,19.885226 8.2855252,19.6650315 8.44444444,19.5 L9.59387718,18.3063583 C9.78238128,18.1106041 10.0424373,18 10.3141974,18 Z M4.48000002,3 L19.52,3 C20.8896662,3 22,4.11033383 22,5.48000002 L22,13.52 C22,14.8896662 20.8896662,16 19.52,16 L4.48000002,16 C3.11033383,16 2,14.8896662 2,13.52 L2,5.48000002 C2,4.11033383 3.11033383,3 4.48000002,3 Z" id="↳-🎨-ICON-COLOR" fill="#424851"></path>
    </g>
</svg>