<?xml version="1.0" encoding="UTF-8"?>
<svg width="24px" height="24px" viewBox="0 0 24 24" version="1.1" xmlns="http://www.w3.org/2000/svg" xmlns:xlink="http://www.w3.org/1999/xlink">
    <title>Icon/Fill/Disorder</title>
    <g id="Icon/Fill/Disorder" stroke="none" stroke-width="1" fill="none" fill-rule="evenodd">
        <path d="M11.0558253,2 C11.8656642,2 12.6566821,2.08235766 13.4061339,2.24154357 C14.8665128,3.37708445 15.5871766,5.31615086 15.0787074,7.21378378 C14.4019637,9.73942563 11.7996569,11.2521818 9.27401505,10.5754381 C7.46824214,10.0915827 6.38748525,8.21965689 6.87134064,6.41388397 C7.35519603,4.60811106 9.22712188,3.52735417 11.0328948,4.01120956 C12.1309999,4.30544595 12.7830268,5.43478964 12.4887904,6.53289479 C12.1945541,7.63099994 11.0652104,8.28302683 9.96710521,7.98879044 C9.58886899,7.88744235 9.35337094,7.49741152 9.45798833,7.10697413 C9.55933641,6.72873791 9.94936725,6.49323987 10.3398046,6.59785725 C10.6692362,6.68612816 11.0217875,6.49289621 11.1133277,6.15126349 C11.2015986,5.82183195 11.0083667,5.46928062 10.666734,5.37774042 C9.61743348,5.0965812 8.53450117,5.72181246 8.25334195,6.77111294 C7.97218274,7.82041341 8.597414,8.90334572 9.64671447,9.18450493 C11.4158839,9.65855245 13.2291972,8.60132189 13.6999754,6.84435365 C14.1707536,5.08738541 13.1257242,3.27734141 11.3565548,2.8032939 C8.87971765,2.13962738 6.31489033,3.61011748 5.64795451,6.09915582 C5.0267888,8.4173778 6.24280638,10.809402 8.48671063,11.6591206 C8.64532581,11.7016215 8.78847054,11.7530541 8.94708573,11.795555 C12.1437918,12.6521098 15.4390001,10.7496204 16.295555,7.55291427 C16.7188326,5.97322058 16.4683599,4.36947295 15.7209021,3.04783785 C16.793413,3.60185194 17.5707391,4.33410594 18.0405195,5.20802005 C18.684864,6.36090226 19.3292085,8.04010025 18.8910542,9.59398496 C18.8652805,9.71929825 18.8395067,9.79448622 18.8395067,9.86967419 C18.8395067,9.96992481 18.8910542,10.0701754 18.9426018,10.1704261 C19.0199231,10.320802 19.2003396,10.5463659 19.4323036,10.7218045 C19.9477792,11.3734336 20.5921237,12.2005013 20.4890286,12.8521303 C20.437481,13.1027569 20.3086121,13.2781955 20.1024219,13.4285714 C19.973553,13.5037594 19.7158152,13.6541353 19.5353987,13.679198 C19.5096249,13.679198 19.4580774,13.7042607 19.4323036,13.7293233 C19.4065298,13.7794486 19.380756,13.8295739 19.4065298,13.9047619 C19.4838512,14.0551378 19.5353987,14.2055138 19.5353987,14.3558897 C19.5353987,14.6065163 19.380756,14.7819549 19.2776609,14.9072682 C19.2261134,14.9573935 19.1745658,15.0325815 19.1745658,15.0576441 C19.1745658,15.0827068 19.2003396,15.1328321 19.2003396,15.1578947 C19.2518871,15.2080201 19.2776609,15.283208 19.2776609,15.3834586 C19.2776609,15.5338346 19.2261134,15.7092732 19.0714707,15.8847118 C19.0456969,15.9097744 19.0199231,15.9598997 18.9941493,15.9849624 C18.9426018,16.0601504 18.8910542,16.1102757 18.8652805,16.160401 C18.7879591,16.3107769 18.7879591,16.5112782 18.8137329,16.7117794 C18.8395067,16.9122807 18.8652805,17.1629073 18.7621853,17.4135338 C18.6075427,17.8145363 18.1693884,18.2907268 17.628139,18.3408521 C17.1384372,18.4160401 15.3084989,18.4912281 15.2311776,18.4912281 C14.7672495,18.5162907 14.483738,18.8421053 14.2775477,19.518797 L14.2775477,19.518797 L13.8651672,20.9223058 C13.8136197,21.0726817 13.7620721,21.273183 13.6332032,21.4486216 C13.5043343,21.5989975 13.3239179,21.7243108 13.0661801,21.8245614 C12.731121,21.9498747 12.370288,22 12.0352289,22 C11.5970747,22 11.1589204,21.9498747 10.7465399,21.8496241 C9.63826742,21.6240602 8.58154247,21.273183 7.55059129,20.7969925 C7.06088948,20.5714286 6.46809256,20.2706767 6.00416453,19.8195489 C5.30827248,19.1428571 5.59178406,18.4661654 5.82374807,17.8646617 C5.90106941,17.6892231 5.97839075,17.4887218 6.02993831,17.2882206 C6.13303342,16.8621554 6.05571209,16.4110276 5.97839075,15.9849624 C5.66910539,14.5062657 5.20517736,13.2280702 4.56083288,12.2255639 C3.89071461,11.1478697 3.45256036,10.1704261 3.50410792,8.89223058 C3.60720304,5.65914787 5.69487917,2.95238095 8.58154247,2.27568922 C9.35475585,2.10025063 10.2052906,2 11.0558253,2 Z" id="Combined-Shape" fill="#424851"></path>
    </g>
</svg>