<?xml version="1.0" encoding="UTF-8"?>
<svg width="24px" height="24px" viewBox="0 0 24 24" version="1.1" xmlns="http://www.w3.org/2000/svg" xmlns:xlink="http://www.w3.org/1999/xlink">
    <title>Icon/Fill/Edit</title>
    <g id="Icon/Fill/Edit" stroke="none" stroke-width="1" fill="none" fill-rule="evenodd">
        <path d="M19.989778,18.9532516 C20.5468857,18.9532516 21,19.412265 21,19.9766258 C21,20.5420615 20.5468857,21 19.989778,21 L19.989778,21 L14.2796888,21 C13.7225811,21 13.2694668,20.5420615 13.2694668,19.9766258 C13.2694668,19.412265 13.7225811,18.9532516 14.2796888,18.9532516 L14.2796888,18.9532516 Z M16.0298561,3.69906366 L17.5048652,4.87078412 C18.109725,5.34377219 18.5129649,5.96725648 18.6509154,6.62298994 C18.810089,7.34429676 18.6403038,8.0527039 18.1627829,8.66543845 L9.37639783,20.027902 C8.97315794,20.543889 8.37890967,20.8341317 7.74221511,20.8448814 L4.24039498,20.8878803 C4.04938661,20.8878803 3.89021296,20.7588836 3.84776666,20.5761382 L3.05189845,17.1254752 C2.91394796,16.4912412 3.05189845,15.8355077 3.45513834,15.3302704 L9.68413354,7.26797368 C9.7902493,7.13897694 9.98125767,7.11855245 10.1085966,7.21422504 L12.7296559,9.29967247 C12.8994411,9.43941894 13.1328958,9.51466705 13.376962,9.48241786 C13.8969293,9.41791948 14.2471113,8.94493141 14.1940534,8.43969415 C14.1622187,8.18170065 14.0348798,7.96670607 13.8650945,7.80546013 C13.8120367,7.76246122 11.3183163,5.76301162 11.3183163,5.76301162 C11.1591426,5.63401488 11.1273079,5.39752084 11.2546468,5.23734988 L12.2415234,3.95705715 C13.1541189,2.78533669 14.7458554,2.6778394 16.0298561,3.69906366 Z" id="Edit" fill="#424851"></path>
    </g>
</svg>