<?xml version="1.0" encoding="UTF-8"?>
<svg width="24px" height="24px" viewBox="0 0 24 24" version="1.1" xmlns="http://www.w3.org/2000/svg" xmlns:xlink="http://www.w3.org/1999/xlink">
    <title>Icon/Fill/File fail</title>
    <g id="Icon/Fill/File-fail" stroke="none" stroke-width="1" fill="none" fill-rule="evenodd">
        <path d="M13.2524752,2 C13.5,2 13.7079208,2.21 13.7079208,2.46 L13.7079208,2.46 L13.7079208,5.68 C13.7079208,7.51 15.2029703,9.01 17.0148515,9.02 C17.7574257,9.02 18.3613861,9.03 18.8069307,9.03 C19.1138614,9.03 19.6287129,9.02 20.0445545,9.02 C20.3019802,9.02 20.5,9.22 20.5,9.47 L20.5,9.47 L20.5,17.51 C20.5,19.99 18.509901,22 16.0445545,22 L16.0445545,22 L8.17326733,22 C5.58910891,22 3.5,19.89 3.5,17.29 L3.5,17.29 L3.5,6.51 C3.5,4.03 5.5,2 7.96534653,2 L7.96534653,2 Z M10.5891089,10.72 C10.3019802,10.42 9.83663366,10.42 9.54950495,10.72 C9.26237624,11.01 9.26237624,11.48 9.54950495,11.77 L9.54950495,11.77 L10.7574257,12.99 L9.54950495,14.21 C9.26237624,14.5 9.26237624,14.97 9.54950495,15.26 C9.68811881,15.41 9.87623762,15.48 10.0643564,15.48 C10.2524752,15.48 10.450495,15.41 10.5891089,15.26 L10.5891089,15.26 L11.7970297,14.04 L13.0049505,15.26 C13.1534653,15.41 13.3415842,15.48 13.529703,15.48 C13.7178218,15.48 13.9059406,15.41 14.0544554,15.26 C14.3415842,14.97 14.3415842,14.5 14.0544554,14.21 L14.0544554,14.21 L12.8465347,12.99 L14.0544554,11.77 C14.3415842,11.48 14.3415842,11.01 14.0544554,10.72 C13.7673267,10.42 13.2920792,10.42 13.0049505,10.72 L13.0049505,10.72 L11.7970297,11.94 Z M15.1462376,2.9062 C15.1462376,2.4752 15.6640594,2.2612 15.9591089,2.5722 C17.030396,3.6962 18.9006931,5.6612 19.9462376,6.7592 C20.2343564,7.0622 20.0234653,7.5652 19.6056436,7.5662 C18.7917822,7.5692 17.8333663,7.5662 17.1432673,7.5592 C16.0482178,7.5592 15.1462376,6.6482 15.1462376,5.5422 L15.1462376,5.5422 Z" id="Paper-Fail" fill="#424851"></path>
    </g>
</svg>