<?xml version="1.0" encoding="UTF-8"?>
<svg width="24px" height="24px" viewBox="0 0 24 24" version="1.1" xmlns="http://www.w3.org/2000/svg" xmlns:xlink="http://www.w3.org/1999/xlink">
    <title>Icon/Fill/File</title>
    <g id="Icon/Fill/File" stroke="none" stroke-width="1" fill="none" fill-rule="evenodd">
        <path d="M13.2524752,2 C13.509901,2 13.7079208,2.21 13.7079208,2.46 L13.7079208,2.46 L13.7079208,5.68 C13.7079208,7.51 15.2029703,9.01 17.0148515,9.02 C17.7673267,9.02 18.3613861,9.03 18.8168317,9.03 L18.9855152,9.02925926 C19.289879,9.02694444 19.69967,9.02 20.0544554,9.02 C20.3019802,9.02 20.5,9.22 20.5,9.47 L20.5,9.47 L20.5,17.51 C20.5,19.99 18.509901,22 16.0544554,22 L16.0544554,22 L8.17326733,22 C5.5990099,22 3.5,19.89 3.5,17.29 L3.5,17.29 L3.5,6.51 C3.5,4.03 5.5,2 7.96534653,2 L7.96534653,2 Z M14.3118812,14.9 L8.92574257,14.9 C8.51980198,14.9 8.18316832,15.23 8.18316832,15.64 C8.18316832,16.05 8.51980198,16.39 8.92574257,16.39 L8.92574257,16.39 L14.3118812,16.39 C14.7178218,16.39 15.0544554,16.05 15.0544554,15.64 C15.0544554,15.23 14.7178218,14.9 14.3118812,14.9 L14.3118812,14.9 Z M12.2722772,9.9 L8.92574257,9.9 C8.51980198,9.9 8.18316832,10.24 8.18316832,10.65 C8.18316832,11.06 8.51980198,11.39 8.92574257,11.39 L8.92574257,11.39 L12.2722772,11.39 C12.6782178,11.39 13.0148515,11.06 13.0148515,10.65 C13.0148515,10.24 12.6782178,9.9 12.2722772,9.9 L12.2722772,9.9 Z M15.1506931,2.906 C15.1506931,2.475 15.6685149,2.261 15.9645545,2.572 C17.0348515,3.696 18.9051485,5.661 19.9506931,6.759 C20.239802,7.062 20.0279208,7.565 19.6110891,7.566 C18.7972277,7.569 17.8378218,7.566 17.1477228,7.559 C16.0526733,7.559 15.1506931,6.648 15.1506931,5.542 L15.1506931,5.542 Z" id="Paper" fill="#424851"></path>
    </g>
</svg>