<?xml version="1.0" encoding="UTF-8"?>
<svg width="24px" height="24px" viewBox="0 0 24 24" version="1.1" xmlns="http://www.w3.org/2000/svg" xmlns:xlink="http://www.w3.org/1999/xlink">
    <title>Icon/Fill/Filter</title>
    <g id="Icon/Fill/Filter" stroke="none" stroke-width="1" fill="none" fill-rule="evenodd">
        <path d="M9.28010296,15.8241391 L14.1346718,15.8389907 C14.4373745,15.8400513 14.6824196,16.0935341 14.6824196,16.4042891 L14.6824196,16.4042891 L14.6824196,19.1353269 C14.6824196,19.4471425 14.5053282,19.7292613 14.2293951,19.8597148 L14.2293951,19.8597148 L9.8227027,21.92894 C9.7197426,21.9766669 9.61060489,22 9.50146718,22 C9.35629344,22 9.21111969,21.9575761 9.08447876,21.8737889 C8.86311454,21.7274265 8.72926641,21.4750044 8.72926641,21.2045521 L8.72926641,21.2045521 L8.72926641,16.3894407 C8.72926641,16.0765645 8.97637066,15.8230818 9.28010296,15.8241391 L9.28010296,15.8241391 Z M19.8718147,2 C21.047619,2 22,2.98105243 22,4.19225446 L22,4.19225446 L22,5.72375685 C22,6.31132771 21.770399,6.87556543 21.362677,7.28707715 L21.362677,7.28707715 L14.8576577,13.8670223 C14.7454311,13.9815668 14.5930502,14.0452027 14.4355212,14.0441551 L14.4355212,14.0441551 L8.98893179,14.0271725 C8.82316602,14.0271725 8.66563707,13.9561125 8.55238095,13.8320226 L8.55238095,13.8320226 L2.57451737,7.25738043 C2.2048906,6.85117169 2,6.3145095 2,5.75769596 L2,5.75769596 L2,4.19331506 C2,2.98211303 2.95238095,2 4.12818533,2 L4.12818533,2 Z" id="Filter-2" fill="#424851"></path>
    </g>
</svg>