<?xml version="1.0" encoding="UTF-8"?>
<svg width="24px" height="24px" viewBox="0 0 24 24" version="1.1" xmlns="http://www.w3.org/2000/svg" xmlns:xlink="http://www.w3.org/1999/xlink">
    <title>Icon/Fill/Folder</title>
    <g id="Icon/Fill/Folder" stroke="none" stroke-width="1" fill="none" fill-rule="evenodd">
        <path d="M9.0499,2.00002934 C9.9809,1.9902 10.8499,2.4202 11.4199,3.1502 L11.4199,3.1502 L12.2999,4.3202 C12.5799,4.6702 12.9999,4.8802 13.4499,4.8802 L13.4499,4.8802 L16.5199,4.8802 C20.2099,4.8802 22.0099,6.8502 21.9999414,10.8902 L21.9999414,10.8902 L21.9999414,15.7602 C21.9999414,19.6202 19.6199,22.0002 15.7499,22.0002 L15.7499,22.0002 L8.2399,22.0002 C4.3899,22.0002 1.9999,19.6202 1.9999,15.7502 L1.9999,15.7502 L1.9999,8.2402 C1.9999,4.1002 3.8399,2.00002934 7.4699,2.00002934 L7.4699,2.00002934 Z M16.6299,13.7902 L7.3699,13.7902 C6.9499,13.7902 6.6199,14.1202 6.6199,14.5402 C6.6199,14.9502 6.9499,15.2902 7.3699,15.2902 L7.3699,15.2902 L16.6299,15.2902 C17.0399,15.2902 17.3699,14.9502 17.3699,14.5402 C17.3699,14.1202 17.0399,13.7902 16.6299,13.7902 L16.6299,13.7902 Z" id="Folder" fill="#424851"></path>
    </g>
</svg>