<?xml version="1.0" encoding="UTF-8"?>
<svg width="24px" height="24px" viewBox="0 0 24 24" version="1.1" xmlns="http://www.w3.org/2000/svg" xmlns:xlink="http://www.w3.org/1999/xlink">
    <title>Icon/Google colored</title>
    <g id="Icon/Google-colored" stroke="none" stroke-width="1" fill="none" fill-rule="evenodd">
        <g id="Group" transform="translate(2.210000, 2.000000)" fill-rule="nonzero">
            <path d="M10,3.95833333 C11.475,3.95833333 12.7958333,4.46666667 13.8375,5.45833333 L16.6916667,2.60416667 C14.9583333,0.991666667 12.6958333,0 10,0 C6.09166667,0 2.7125,2.24166667 1.06666667,5.50833333 L4.39166667,8.0875 C5.17916667,5.71666667 7.39166667,3.95833333 10,3.95833333 Z" id="Path" fill="#EA4335"></path>
            <path d="M19.575,10.2291667 C19.575,9.575 19.5125,8.94166667 19.4166667,8.33333333 L10,8.33333333 L10,12.0916667 L15.3916667,12.0916667 C15.15,13.325 14.45,14.375 13.4,15.0833333 L16.6208333,17.5833333 C18.5,15.8416667 19.575,13.2666667 19.575,10.2291667 L19.575,10.2291667 Z" id="Path" fill="#4285F4"></path>
            <path d="M4.3875,11.9125 C4.1875,11.3083333 4.07083333,10.6666667 4.07083333,10 C4.07083333,9.33333333 4.18333333,8.69166667 4.3875,8.0875 L1.0625,5.50833333 C0.383333333,6.85833333 0,8.38333333 0,10 C0,11.6166667 0.383333333,13.1416667 1.06666667,14.4916667 L4.3875,11.9125 Z" id="Path" fill="#FBBC05"></path>
            <path d="M10,20 C12.7,20 14.9708333,19.1125 16.6208333,17.5791667 L13.4,15.0791667 C12.5041667,15.6833333 11.35,16.0375 10,16.0375 C7.39166667,16.0375 5.17916667,14.2791667 4.3875,11.9083333 L1.0625,14.4875 C2.7125,17.7583333 6.09166667,20 10,20 Z" id="Path" fill="#34A853"></path>
        </g>
    </g>
</svg>