<?xml version="1.0" encoding="UTF-8"?>
<svg width="24px" height="24px" viewBox="0 0 24 24" version="1.1" xmlns="http://www.w3.org/2000/svg" xmlns:xlink="http://www.w3.org/1999/xlink">
    <title>Icon/Fill/Home</title>
    <g id="Icon/Fill/Home" stroke="none" stroke-width="1" fill="none" fill-rule="evenodd">
        <path d="M9.13477851,20.7733424 L9.13477851,17.7156161 C9.13477851,16.9350667 9.77217143,16.3023065 10.5584354,16.3023065 L13.4326107,16.3023065 C13.810188,16.3023065 14.1723007,16.4512083 14.4392882,16.7162553 C14.7062757,16.9813022 14.8562677,17.3407831 14.8562677,17.7156161 L14.8562677,20.7733424 C14.8538816,21.0978491 14.9820659,21.4098788 15.2123708,21.6401787 C15.4426757,21.8704786 15.7560494,22 16.0829406,22 L18.0438266,22 C18.9596364,22.0023499 19.8387522,21.6428442 20.4871692,21.0008077 C21.1355861,20.3587712 21.5,19.4869804 21.5,18.5778238 L21.5,9.86685918 C21.5,9.13246047 21.1720694,8.43584231 20.6046183,7.96466895 L13.9340245,2.67586902 C12.7736604,1.7485617 11.1111128,1.77850209 9.98539114,2.74697893 L3.46701225,7.96466895 C2.87274068,8.42195254 2.51755229,9.12063643 2.5,9.86685918 L2.5,18.568935 C2.5,20.4638535 4.04738155,22 5.95617342,22 L7.87229029,22 C8.55122667,22 9.10299723,21.4562152 9.10791706,20.7822311 L9.13477851,20.7733424 Z" id="Home" fill="#424851"></path>
    </g>
</svg>