<?xml version="1.0" encoding="UTF-8"?>
<svg width="24px" height="24px" viewBox="0 0 24 24" version="1.1" xmlns="http://www.w3.org/2000/svg" xmlns:xlink="http://www.w3.org/1999/xlink">
    <title>Icon/Instagram</title>
    <g id="Icon/Instagram" stroke="none" stroke-width="1" fill="none" fill-rule="evenodd">
        <path d="M13.0274917,2.00078013 C14.827919,2.00405133 15.2087844,2.01849223 16.1228751,2.06037619 C17.1872897,2.10876447 17.91418,2.27778605 18.5502883,2.52480842 C19.2175981,2.77595803 19.8220851,3.16966404 20.321587,3.67846602 C20.8302855,4.17796012 21.2239052,4.78240832 21.4749973,5.44965971 C21.7222162,6.0857334 21.8912364,6.81262938 21.9398228,7.87705248 C21.9815363,8.79115038 21.9959528,9.172048 21.9992205,10.972473 L21.9992205,13.0275584 C21.997042,14.2278213 21.9899085,14.7971536 21.9730353,15.3142301 L21.966242,15.5068145 C21.9589735,15.6992098 21.9502511,15.8944287 21.9398228,16.1229872 C21.8912364,17.1873706 21.7222162,17.9142666 21.4749973,18.55038 C20.955491,19.893611 19.8936277,20.9554827 18.5504074,21.4749931 C17.9143387,21.722214 17.1874485,21.8912355 16.1230339,21.9398223 C15.8945112,21.9502507 15.6993133,21.9589731 15.506929,21.9662418 L15.3143526,21.9730351 C14.7972895,21.9899084 14.2279117,21.997042 13.0276379,21.9992204 L10.9725689,21.9992204 C9.77231544,21.997042 9.20298768,21.9899084 8.68591534,21.9730351 L8.49333247,21.9662418 C8.30093864,21.9589731 8.10572129,21.9502507 7.8771646,21.9398223 C6.81278965,21.8912355 6.08589943,21.722214 5.44979111,21.4749931 C4.78254501,21.2238991 4.17810161,20.8302762 3.67861148,20.3215737 C3.16991594,19.8220771 2.77629668,19.2176296 2.5252012,18.55038 C2.27798232,17.9143063 2.10896208,17.1874103 2.06037571,16.1229872 C2.01849208,15.2088893 2.00405129,14.8280209 2.00078012,13.0275792 L2.00078012,10.9724605 C2.00405129,9.17201884 2.01849208,8.79115038 2.06037571,7.87705248 C2.10876361,6.81262938 2.27778384,6.0857334 2.52480426,5.44962002 C2.7759916,4.78234082 3.16972092,4.17789073 3.67853209,3.67842633 C4.17802385,3.16972576 4.78246678,2.77610322 5.44971172,2.5250069 C6.08578035,2.27778605 6.81267056,2.10876447 7.87708521,2.06017771 C8.79117586,2.01846387 9.17204129,2.00404728 10.9724687,2.00077955 Z M12.5558077,3.80197839 L11.4441363,3.80197777 C11.3575281,3.80203938 11.2738347,3.8021178 11.192899,3.80221443 L10.7391204,3.80302409 C9.1873877,3.80687699 8.81830942,3.82090955 7.95909456,3.86011063 C6.98411218,3.9045691 6.45462394,4.06747764 6.10225367,4.2044256 C5.66791075,4.36473612 5.27501672,4.62035121 4.95245562,4.95247906 C4.6202957,5.27504524 4.36465463,5.66795731 4.20432871,6.10232593 C4.06738183,6.4547387 3.90451429,6.98419144 3.86001647,7.95918157 C3.817252,8.89658488 3.80443991,9.25055506 3.80212073,11.1930143 L3.80212073,12.8072675 C3.80443991,14.7497463 3.817252,15.1037988 3.86001647,16.0410963 C3.90447459,17.0160864 4.06738183,17.5455789 4.20432871,17.8979519 C4.36463795,18.3322983 4.62025102,18.7251954 4.95237623,19.0477591 C5.27493561,19.3798891 5.66783015,19.6355045 6.10217428,19.7958126 C6.45458425,19.9327208 6.98403279,20.0956294 7.95901517,20.1401275 C8.23238114,20.1526006 8.45612317,20.1625256 8.68413247,20.1703854 L8.881871,20.1766279 C9.31801549,20.1891062 9.82198334,20.1949374 10.7389611,20.1972141 L11.1927647,20.1980237 C11.2737053,20.1981204 11.357404,20.1981988 11.4440179,20.1982604 L12.5558649,20.1982604 C12.6424793,20.1981988 12.7261787,20.1981204 12.8071201,20.1980237 L13.2609298,20.1972141 C14.3189988,20.1945871 14.8272188,20.1872278 15.3157993,20.1703854 L15.5114408,20.1631314 C15.6756972,20.1566462 15.8456264,20.1490369 16.0408657,20.1401275 C17.0158481,20.0956691 17.5453364,19.9327605 17.8977066,19.7958126 C18.7698169,19.4593922 19.4591345,18.7700691 19.7955522,17.8979519 C19.9324594,17.5455392 20.0953666,17.0160864 20.1398644,16.0410963 C20.1808471,15.1427515 20.1943213,14.7802332 20.1974142,13.0419547 L20.1974142,10.9583187 C20.1943213,9.22002461 20.1808471,8.85745878 20.1398644,7.95918157 C20.0954063,6.98419144 19.9324991,6.454699 19.7955522,6.10232593 C19.6352442,5.66797896 19.3796309,5.27508156 19.0475047,4.95251875 C18.7249444,4.62038986 18.3320502,4.3647746 17.8977066,4.2044653 C17.5452967,4.06751733 17.0158481,3.90464849 16.0408657,3.86015033 C15.1815862,3.82094925 14.8124959,3.80689033 13.260804,3.80302767 L12.8070378,3.80221579 C12.7261044,3.80211887 12.6424134,3.8020402 12.5558077,3.80197839 Z M11.9999405,6.86486808 C14.8359839,6.86486808 17.1350515,9.16395384 17.1350515,12.0000198 C17.1350515,14.8360859 14.8359839,17.1351716 11.9999405,17.1351716 C9.16389697,17.1351716 6.86482946,14.8360859 6.86482946,12.0000198 C6.86482946,9.16395384 9.16389697,6.86486808 11.9999405,6.86486808 Z M11.9999934,8.66670636 C10.159075,8.66670636 8.66669313,10.1590603 8.66669313,11.9999934 C8.66669313,13.8409264 10.159022,15.3333333 11.9999405,15.3333333 C13.8408705,15.3333333 15.3332672,13.8409645 15.3332672,12.0000198 C15.3332672,10.1590868 13.8409118,8.66670636 11.9999934,8.66670636 Z M17.3379313,5.46200488 C18.0006577,5.46200488 18.5379035,5.999255 18.5379035,6.66198662 C18.5379035,7.32471823 18.0006577,7.86196836 17.3379313,7.86196836 C16.675205,7.86196836 16.1379591,7.32471823 16.1379591,6.66198662 C16.1379591,5.999255 16.675205,5.46200488 17.3379313,5.46200488 Z" id="↳-🎨-ICON-COLOR" fill="#424851"></path>
    </g>
</svg>