<?xml version="1.0" encoding="UTF-8"?>
<svg width="24px" height="24px" viewBox="0 0 24 24" version="1.1" xmlns="http://www.w3.org/2000/svg" xmlns:xlink="http://www.w3.org/1999/xlink">
    <title>Icon/Fill/Invoice</title>
    <g id="Icon/Fill/Invoice" stroke="none" stroke-width="1" fill="none" fill-rule="evenodd">
        <path d="M18,6 C18.5522847,6 19,6.44771525 19,7 L19,19.5 C19,19.7761424 18.7761424,20 18.5,20 C18.193567,20 17.9134342,20.1731316 17.7763932,20.4472136 L16.9472136,22.1055728 C16.823719,22.3525621 16.5233825,22.4526742 16.2763932,22.3291796 C16.1796295,22.2807978 16.1011683,22.2023365 16.0527864,22.1055728 L15.2236068,20.4472136 C15.1618595,20.323719 15.0116912,20.2736629 14.8881966,20.3354102 C14.8398148,20.3596011 14.8005841,20.3988317 14.7763932,20.4472136 L13.9472136,22.1055728 C13.823719,22.3525621 13.5233825,22.4526742 13.2763932,22.3291796 C13.1796295,22.2807978 13.1011683,22.2023365 13.0527864,22.1055728 L12.2236068,20.4472136 C12.1618595,20.323719 12.0116912,20.2736629 11.8881966,20.3354102 C11.8398148,20.3596011 11.8005841,20.3988317 11.7763932,20.4472136 L10.9472136,22.1055728 C10.823719,22.3525621 10.5233825,22.4526742 10.2763932,22.3291796 C10.1796295,22.2807978 10.1011683,22.2023365 10.0527864,22.1055728 L9.22346288,20.4469258 C9.16171557,20.3234311 9.01154731,20.273375 8.88805268,20.3351224 C8.83971024,20.3592936 8.80050303,20.3984806 8.77630691,20.4468106 L7.94574209,22.105803 C7.82212024,22.3527286 7.52173218,22.4526861 7.27480659,22.3290642 C7.17806778,22.2806325 7.09964695,22.2021308 7.05131496,22.1053421 L6.22337626,20.4473288 C6.08648832,20.1731998 5.80640665,20 5.5,20 C5.22385763,20 5,19.7761424 5,19.5 L5,7 C5,6.44771525 5.44771525,6 6,6 L18,6 Z M12,7.5 C11.6203042,7.5 11.306509,7.78215388 11.2568466,8.14822944 L11.25,8.25 L11.25,9.25 L9,9.25 L8.89822944,9.25684662 C8.56543348,9.30199427 8.30199427,9.56543348 8.25684662,9.89822944 L8.25,10 L8.25,13 L8.25684662,13.1017706 C8.30199427,13.4345665 8.56543348,13.6980057 8.89822944,13.7431534 L9,13.75 L14.25,13.75 L14.25,15.25 L9,15.25 L8.89822944,15.2568466 C8.53215388,15.306509 8.25,15.6203042 8.25,16 C8.25,16.3796958 8.53215388,16.693491 8.89822944,16.7431534 L9,16.75 L11.25,16.75 L11.25,17.75 C11.25,18.1642136 11.5857864,18.5 12,18.5 C12.3796958,18.5 12.693491,18.2178461 12.7431534,17.8517706 L12.75,17.75 L12.75,16.75 L15,16.75 L15.1017706,16.7431534 C15.4345665,16.6980057 15.6980057,16.4345665 15.7431534,16.1017706 L15.75,16 L15.75,13 L15.7431534,12.8982294 C15.6980057,12.5654335 15.4345665,12.3019943 15.1017706,12.2568466 L15,12.25 L9.75,12.25 L9.75,10.75 L15,10.75 L15.1017706,10.7431534 C15.4678461,10.693491 15.75,10.3796958 15.75,10 C15.75,9.62030423 15.4678461,9.30650904 15.1017706,9.25684662 L15,9.25 L12.75,9.25 L12.75,8.25 C12.75,7.83578644 12.4142136,7.5 12,7.5 Z M18,2 C20.209139,2 22,3.790861 22,6 C22,7.26263079 21.4149829,8.38862352 20.5012193,9.12170769 L20.5,7 C20.5,5.61928813 19.3807119,4.5 18,4.5 L6,4.5 C4.61928813,4.5 3.5,5.61928813 3.5,7 L3.49979019,9.12251727 C2.58544795,8.38945266 2,7.26309568 2,6 C2,3.790861 3.790861,2 6,2 L18,2 Z" id="Combined-Shape" fill="#424851"></path>
    </g>
</svg>