<?xml version="1.0" encoding="UTF-8"?>
<svg width="24px" height="24px" viewBox="0 0 24 24" version="1.1" xmlns="http://www.w3.org/2000/svg" xmlns:xlink="http://www.w3.org/1999/xlink">
    <title>Icon/Link external</title>
    <g id="Icon/Link-external" stroke="none" stroke-width="1" fill="none" fill-rule="evenodd">
        <path d="M8.5,5 C8.77614237,5 9,5.22385763 9,5.5 L9,6.5 C9,7.32842712 8.32842712,8 7.5,8 L6.48000002,8 C5.71069984,8 5.07849064,8.58695625 5.00677502,9.33746614 L5,9.48000002 L5,17.52 C5,18.2893002 5.58695625,18.9215094 6.33746614,18.993225 L6.48000002,19 L14.52,19 C15.2893002,19 15.9215094,18.4130438 15.993225,17.6625339 L16,17.52 L16,16.5 C16,15.6715729 16.6715729,15 17.5,15 L18.5,15 C18.7761424,15 19,15.2238576 19,15.5 L19,17.52 C19,19.9942357 16.9942357,22 14.52,22 L6.48000002,22 C4.00576433,22 2,19.9942357 2,17.52 L2,9.48000002 C2,7.00576433 4.00576433,5 6.48000002,5 L8.5,5 Z M20.5,2 L20.64446,2.00686658 C21.4051119,2.07955132 22,2.72030388 22,3.5 L22,3.5 L22,9.5 C22,9.77614237 21.7761424,10 21.5,10 L21.5,10 L20.5,10 C19.6715729,10 19,9.32842712 19,8.5 L19,8.5 L19,7.12 L10.4142136,15.7071068 C10.2189514,15.9023689 9.90236893,15.9023689 9.70710678,15.7071068 L9,15 C8.41421356,14.4142136 8.41421356,13.4644661 9,12.8786797 L16.878,5 L14.5,5 C14.2545401,5 14.0503916,4.82312484 14.0080557,4.58987563 L14,4.5 L14,3.5 C14,2.67157288 14.6715729,2 15.5,2 L15.5,2 L20.5,2 Z" id="↳-🎨-ICON-COLOR" fill="#424851"></path>
    </g>
</svg>