<?xml version="1.0" encoding="UTF-8"?>
<svg width="24px" height="24px" viewBox="0 0 24 24" version="1.1" xmlns="http://www.w3.org/2000/svg" xmlns:xlink="http://www.w3.org/1999/xlink">
    <title>Icon/Fill/Location</title>
    <g id="Icon/Fill/Location" stroke="none" stroke-width="1" fill="none" fill-rule="evenodd">
        <path d="M11.9934456,2 C16.6561184,2 20.5,5.71789185 20.5,10.3177581 C20.5,12.6356906 19.6570081,14.787628 18.2695,16.611575 C16.7388042,18.6235165 14.8521561,20.3764655 12.7285426,21.7524254 C12.2425114,22.0704162 11.8038733,22.0944155 11.270449,21.7524254 C9.13473516,20.3764655 7.24808708,18.6235165 5.73050003,16.611575 C4.34198351,14.787628 3.5,12.6356906 3.5,10.3177581 C3.5,5.71789185 7.34388161,2 11.9934456,2 Z M11.9934456,7.77683196 C10.4516579,7.77683196 9.1942286,9.04779499 9.1942286,10.5767505 C9.1942286,12.1177057 10.4516579,13.3296704 11.9934456,13.3296704 C13.5362418,13.3296704 14.8057714,12.1177057 14.8057714,10.5767505 C14.8057714,9.04779499 13.5362418,7.77683196 11.9934456,7.77683196 Z" id="Location" fill="#424851"></path>
    </g>
</svg>