<?xml version="1.0" encoding="UTF-8"?>
<svg width="24px" height="24px" viewBox="0 0 24 24" version="1.1" xmlns="http://www.w3.org/2000/svg" xmlns:xlink="http://www.w3.org/1999/xlink">
    <title>Icon/Fill/Login</title>
    <g id="Icon/Fill/Login" stroke="none" stroke-width="1" fill="none" fill-rule="evenodd">
        <path d="M7.29052152,12.7699 L3.28150457,12.7699 C2.85522935,12.7699 2.5,12.4299 2.5,11.9999 C2.5,11.5799 2.85522935,11.2299 3.28150457,11.2299 L3.28150457,11.2299 L7.29052152,11.2299 L7.290826,6.45 C7.290826,4 9.35611292,2 11.8860894,2 L11.8860894,2 L16.9253895,2 C19.4450395,2 21.5,4 21.5,6.44 L21.5,6.44 L21.5,17.56 C21.5,20.01 19.4450395,22 16.9047366,22 L16.9047366,22 L11.875763,22 C9.35611292,22 7.290826,20.01 7.290826,17.57 L7.290826,17.57 L7.290826,12.77 L13.6932154,12.77 L12.0409859,14.37 C11.7311929,14.67 11.7311929,15.16 12.0409859,15.46 C12.1958824,15.61 12.4024111,15.68 12.6089398,15.68 C12.8051421,15.68 13.0116708,15.61 13.1665673,15.46 L13.1665673,15.46 L16.1818862,12.55 C16.3367827,12.41 16.4193942,12.21 16.4193942,12 C16.4193942,11.8 16.3367827,11.6 16.1818862,11.46 L16.1818862,11.46 L13.1665673,8.55 C12.8567742,8.25 12.350779,8.25 12.0409859,8.55 C11.7311929,8.85 11.7311929,9.34 12.0409859,9.64 L12.0409859,9.64 L13.6932154,11.23 L7.290826,11.23 L7.29052152,12.7699 Z" id="Login" fill="#424851"></path>
    </g>
</svg>