<?xml version="1.0" encoding="UTF-8"?>
<svg width="24px" height="24px" viewBox="0 0 24 24" version="1.1" xmlns="http://www.w3.org/2000/svg" xmlns:xlink="http://www.w3.org/1999/xlink">
    <title>Icon/Fill/Message send</title>
    <g id="Icon/Fill/Message-send" stroke="none" stroke-width="1" fill="none" fill-rule="evenodd">
        <path d="M21.4353768,2.58198269 C20.935172,2.0685981 20.1948689,1.87733717 19.5045863,2.07866446 L3.40799658,6.759524 C2.67969842,6.96185793 2.16348709,7.54268717 2.02443017,8.28055169 C1.88237201,9.03150249 2.37857515,9.98478722 3.02684054,10.3834153 L8.05990101,13.4768091 C8.57611234,13.7938996 9.2423851,13.7143753 9.66955998,13.2835349 L15.4329194,7.48430225 C15.7230382,7.18231131 16.2032348,7.18231131 16.4933536,7.48430225 C16.7834723,7.77622682 16.7834723,8.24934596 16.4933536,8.5513369 L10.71999,14.3515762 C10.2918147,14.7814099 10.211782,15.4508232 10.526911,15.9702476 L13.6021699,21.0537617 C13.9623174,21.6577436 14.5825713,22 15.2628498,22 C15.3428826,22 15.4329194,22 15.5129522,21.9899336 C16.2932716,21.88927 16.9135256,21.3557527 17.1436198,20.6007753 L21.9155733,4.52479106 C22.1256593,3.84027827 21.9355815,3.09536729 21.4353768,2.58198269" id="Send" fill="#424851"></path>
    </g>
</svg>