<?xml version="1.0" encoding="UTF-8"?>
<svg width="24px" height="24px" viewBox="0 0 24 24" version="1.1" xmlns="http://www.w3.org/2000/svg" xmlns:xlink="http://www.w3.org/1999/xlink">
    <title>Icon/Microphone-off</title>
    <g id="Icon/Microphone-off" stroke="none" stroke-width="1" fill="none" fill-rule="evenodd">
        <path d="M21.7071068,2.29289322 C22.0675907,2.65337718 22.0953203,3.22060824 21.7902954,3.61289944 L21.7071068,3.70710678 L16.5,8.914 L16.5,10.5 C16.5,11.3832595 16.2944198,12.1776794 15.922173,12.844346 C15.5499262,13.5110127 15.0110127,14.0499262 14.344346,14.422173 C13.6776794,14.7944198 12.8832595,15 12,15 C11.5038696,15 11.0357691,14.9351371 10.602595,14.8123078 L9.09698408,16.3173049 C9.97073784,16.7541827 10.9566621,17 12,17 C15.5898509,17 18.5,14.0898509 18.5,10.5 C18.5,9.94771525 18.9477153,9.5 19.5,9.5 C20.0522847,9.5 20.5,9.94771525 20.5,10.5 C20.5,14.8560807 17.2232094,18.4468259 13.0000759,18.941788 L13,21 C13,21.5522847 12.5522847,22 12,22 C11.4477153,22 11,21.5522847 11,21 L11.0009171,18.9419043 C9.77773572,18.7986899 8.63392248,18.395772 7.62609634,17.7897696 L3.70710678,21.7071068 C3.31658249,22.0976311 2.68341751,22.0976311 2.29289322,21.7071068 C1.93240926,21.3466228 1.90467972,20.7793918 2.20970461,20.3871006 L2.287,20.298 L16.485707,6.10103045 L16.485707,6.10103045 L20.2928932,2.29289322 C20.6834175,1.90236893 21.3165825,1.90236893 21.7071068,2.29289322 Z M4.5,9.5 C5.05228475,9.5 5.5,9.94771525 5.5,10.5 C5.5,11.5889615 5.76778574,12.6153782 6.24109848,13.5169915 L4.77629951,14.9819504 C3.96726312,13.680762 3.5,12.1449486 3.5,10.5 C3.5,9.94771525 3.94771525,9.5 4.5,9.5 Z M12,2 C12.8832595,2 13.6776794,2.20558016 14.344346,2.57782698 C14.9427417,2.91195329 15.4382099,3.3803586 15.8026097,3.95490193 L7.72756697,12.0303994 C7.57894219,11.5605535 7.5,11.0473339 7.5,10.5 L7.5,6.5 C7.5,5.61674048 7.70558016,4.82232063 8.07782698,4.15565397 C8.45007381,3.4889873 8.9889873,2.95007381 9.65565397,2.57782698 C10.3223206,2.20558016 11.1167405,2 12,2 Z" id="↳-🎨-ICON-COLOR" fill="#424851"></path>
    </g>
</svg>