<?xml version="1.0" encoding="UTF-8"?>
<svg width="24px" height="24px" viewBox="0 0 24 24" version="1.1" xmlns="http://www.w3.org/2000/svg" xmlns:xlink="http://www.w3.org/1999/xlink">
    <title>Icon/Fill/Microphone-off</title>
    <g id="Icon/Fill/Microphone-off" stroke="none" stroke-width="1" fill="none" fill-rule="evenodd">
        <path d="M20.9599884,1.93 C21.1879597,1.93 21.4060192,2.03265584 21.5646079,2.19527896 C21.8916972,2.54085309 21.8916972,3.07954218 21.5646079,3.42511631 L21.5646079,3.43528025 L16.527,8.595 L16.5271981,10.9203293 C16.5271981,13.2229306 14.6911056,15.1037888 12.3856027,15.2124357 L12.1747564,15.217393 L11.8250499,15.217393 C11.2967714,15.217393 10.7904905,15.1244023 10.3220604,14.9541066 L8.84786964,16.4651662 C9.78403337,16.9735252 10.8586545,17.2628986 12.0004844,17.2628986 C15.6186392,17.2628986 18.5625677,14.35578 18.5625677,10.7828653 C18.5625677,10.2538635 18.9965525,9.82626164 19.5312838,9.82626164 C20.0660152,9.82626164 20.5,10.2538635 20.5,10.7828653 C20.5,15.0866252 17.2005527,18.6404079 12.9692005,19.1177531 L12.9692005,19.1177531 L12.9692005,21.0433963 C12.9692005,21.5714416 12.5352157,22 12.0004844,22 C11.4647843,22 11.0317682,21.5714416 11.0317682,21.0433963 L11.0317682,21.0433963 L11.0317682,19.1177531 C9.73409338,18.971394 8.52411813,18.5358186 7.47005775,17.8780861 L3.63417041,21.8116928 C3.46566989,21.9743159 3.25752219,22.0657914 3.0394627,22.0657914 C2.8214032,22.0657914 2.6132555,21.9743159 2.43484319,21.8116928 C2.15731292,21.5169384 2.11766574,21.0798887 2.30598985,20.7546425 L2.33572524,20.7139867 C2.35554883,20.6824785 2.37537242,20.653003 2.4051078,20.6225112 L6.10841999,16.8239247 C6.10672871,16.8223179 6.1050381,16.8207105 6.10334817,16.8191023 L7.44491642,15.4433747 C7.44624733,15.4446434 7.44757879,15.4459115 7.44891078,15.4471791 L8.82631198,14.0338976 C8.82497494,14.0326414 8.8236387,14.0313844 8.82230327,14.0301265 L10.9334025,11.865864 L20.3496079,2.22028025 L20.349,2.211 L20.3652807,2.19527896 C20.5139576,2.03265584 20.7320171,1.93 20.9599884,1.93 Z M4.46871617,9.82626164 C5.00344749,9.82626164 5.43743233,10.2538635 5.43743233,10.7828653 C5.43743233,11.994051 5.77573343,13.1287268 6.36395692,14.0995819 L4.98466381,15.5147871 C4.04833242,14.1671951 3.5,12.5373493 3.5,10.7828653 C3.5,10.2538635 3.93398484,9.82626164 4.46871617,9.82626164 Z M12.1747564,2 C13.8177367,2 15.2483987,2.89900524 15.9892245,4.22607976 L7.8209049,12.6051117 C7.59731887,12.0877182 7.47357684,11.5182423 7.47357684,10.9203293 L7.47357684,10.9203293 L7.47357684,6.29706371 C7.47357684,3.92372999 9.42166505,2 11.8250499,2 L11.8250499,2 Z" id="Voice" fill="#424851"></path>
    </g>
</svg>