<?xml version="1.0" encoding="UTF-8"?>
<svg width="24px" height="24px" viewBox="0 0 24 24" version="1.1" xmlns="http://www.w3.org/2000/svg" xmlns:xlink="http://www.w3.org/1999/xlink">
    <title>Icon/Fill/Package</title>
    <g id="Icon/Fill/Package" stroke="none" stroke-width="1" fill="none" fill-rule="evenodd">
        <path d="M14.5,3 C16.1568542,3 17.5,4.34314575 17.5,6 L17.5,18 C17.5,19.6568542 16.1568542,21 14.5,21 L9.5,21 C7.84314575,21 6.5,19.6568542 6.5,18 L6.5,6 C6.5,4.34314575 7.84314575,3 9.5,3 L14.5,3 Z M13.75,17.5 L10.25,17.5 L10.1482294,17.5068466 C9.78215388,17.556509 9.5,17.8703042 9.5,18.25 C9.5,18.6296958 9.78215388,18.943491 10.1482294,18.9931534 L10.25,19 L13.75,19 L13.8517706,18.9931534 C14.2178461,18.943491 14.5,18.6296958 14.5,18.25 C14.5,17.8357864 14.1642136,17.5 13.75,17.5 Z M4.75,5.5 C4.88807119,5.5 5,5.61192881 5,5.75 L5,18.25 C5,18.3880712 4.88807119,18.5 4.75,18.5 L3.5,18.5 C2.67157288,18.5 2,17.8284271 2,17 L2,7 C2,6.17157288 2.67157288,5.5 3.5,5.5 L4.75,5.5 Z M20.5,5.5 C21.3284271,5.5 22,6.17157288 22,7 L22,17 C22,17.8284271 21.3284271,18.5 20.5,18.5 L19.25,18.5 C19.1119288,18.5 19,18.3880712 19,18.25 L19,5.75 C19,5.61192881 19.1119288,5.5 19.25,5.5 L20.5,5.5 Z M14.75,14.5 L9.25,14.5 L9.14822944,14.5068466 C8.78215388,14.556509 8.5,14.8703042 8.5,15.25 C8.5,15.6296958 8.78215388,15.943491 9.14822944,15.9931534 L9.25,16 L14.75,16 L14.8517706,15.9931534 C15.2178461,15.943491 15.5,15.6296958 15.5,15.25 C15.5,14.8357864 15.1642136,14.5 14.75,14.5 Z M12,4.75 C11.6203042,4.75 11.306509,5.03215388 11.2568466,5.39822944 L11.25,5.5 L11.25,5.75 L10,5.75 L9.89822944,5.75684662 C9.56543348,5.80199427 9.30199427,6.06543348 9.25684662,6.39822944 L9.25,6.5 L9.25,9 L9.25684662,9.10177056 C9.30199427,9.43456652 9.56543348,9.69800573 9.89822944,9.74315338 L10,9.75 L13.25,9.75 L13.25,10.75 L10,10.75 L9.89822944,10.7568466 C9.53215388,10.806509 9.25,11.1203042 9.25,11.5 C9.25,11.8796958 9.53215388,12.193491 9.89822944,12.2431534 L10,12.25 L11.25,12.25 L11.25,12.5 L11.2568466,12.6017706 C11.306509,12.9678461 11.6203042,13.25 12,13.25 C12.3796958,13.25 12.693491,12.9678461 12.7431534,12.6017706 L12.75,12.5 L12.75,12.25 L14,12.25 L14.1017706,12.2431534 C14.4345665,12.1980057 14.6980057,11.9345665 14.7431534,11.6017706 L14.75,11.5 L14.75,9 L14.7431534,8.89822944 C14.6980057,8.56543348 14.4345665,8.30199427 14.1017706,8.25684662 L14,8.25 L10.75,8.25 L10.75,7.25 L14,7.25 L14.1017706,7.24315338 C14.4678461,7.19349096 14.75,6.87969577 14.75,6.5 C14.75,6.12030423 14.4678461,5.80650904 14.1017706,5.75684662 L14,5.75 L12.75,5.75 L12.75,5.5 L12.7431534,5.39822944 C12.693491,5.03215388 12.3796958,4.75 12,4.75 Z" id="Combined-Shape" fill="#424851"></path>
    </g>
</svg>