<?xml version="1.0" encoding="UTF-8"?>
<svg width="24px" height="24px" viewBox="0 0 24 24" version="1.1" xmlns="http://www.w3.org/2000/svg" xmlns:xlink="http://www.w3.org/1999/xlink">
    <title>Icon/Password</title>
    <g id="Icon/Password" stroke="none" stroke-width="1" fill="none" fill-rule="evenodd">
        <path d="M21,3 L21.7071068,3.70710678 C21.9023689,3.90236893 21.9023689,4.21895142 21.7071068,4.41421356 L20.06,6.05966017 L21.7071068,7.70710678 C21.9023689,7.90236893 21.9023689,8.21895142 21.7071068,8.41421356 L19.8284271,10.2928932 C18.8521164,11.2692039 17.2692039,11.2692039 16.2928932,10.2928932 L16.06,10.0596602 L13.1691471,12.9518386 C13.6970584,13.8451553 14,14.8871997 14,16 C14,19.3137085 11.3137085,22 8,22 C4.6862915,22 2,19.3137085 2,16 C2,12.6862915 4.6862915,10 8,10 C9.11270756,10 10.1546711,10.3028912 11.0479381,10.830721 L18.8786797,3 C19.4644661,2.41421356 20.4142136,2.41421356 21,3 Z M8,13 C6.34314575,13 5,14.3431458 5,16 C5,17.6568542 6.34314575,19 8,19 C9.65685425,19 11,17.6568542 11,16 C11,14.3431458 9.65685425,13 8,13 Z" id="↳-🎨-ICON-COLOR" fill="#424851"></path>
    </g>
</svg>