<?xml version="1.0" encoding="UTF-8"?>
<svg width="24px" height="24px" viewBox="0 0 24 24" version="1.1" xmlns="http://www.w3.org/2000/svg" xmlns:xlink="http://www.w3.org/1999/xlink">
    <title>Icon/Fill/Patients</title>
    <g id="Icon/Fill/Patients" stroke="none" stroke-width="1" fill="none" fill-rule="evenodd">
        <path d="M9.34933305,14.8577345 C13.3346657,14.8577345 16.6986661,15.4911257 16.6986661,17.940366 C16.6986661,20.3876899 13.3131392,21 9.34933305,21 L9.07860083,20.9990046 C5.2128289,20.9702716 2,20.3109443 2,17.9173685 C2,15.4700446 5.38552687,14.8577345 9.34933305,14.8577345 Z M15.5697005,13.3832075 C17.0853598,13.3544606 18.7155008,13.5585639 19.3172635,13.7022987 C20.5931962,13.9466478 21.4317501,14.4439701 21.779109,15.1693515 C22.0736303,15.7634552 22.0736303,16.453382 21.779109,17.0474857 C21.2477966,18.1705333 19.5335067,18.5317867 18.8671645,18.6247352 C18.7291994,18.6438998 18.6186317,18.528912 18.6333088,18.3928431 C18.9738184,15.2805064 16.2663754,13.8048295 15.5657866,13.4656155 C15.5364323,13.4493255 15.529583,13.4263279 15.5325184,13.4109962 C15.5344754,13.4014139 15.5471956,13.3860822 15.5697005,13.3832075 Z M9.34933305,3 C12.0489483,3 14.2123586,5.11865038 14.2123586,7.76241176 C14.2123586,10.4061731 12.0489483,12.5248235 9.34933305,12.5248235 C6.65069631,12.5248235 4.48630745,10.4061731 4.48630745,7.76241176 C4.48630745,5.11865038 6.65069631,3 9.34933305,3 Z M15.833889,3.79542817 C18.4415275,3.79542817 20.4884992,6.19675692 19.7908459,8.87118171 C19.3201989,10.6736156 17.6166723,11.8704471 15.7184289,11.8215772 C15.527626,11.8177443 15.3407371,11.7995379 15.1587406,11.7698327 C15.0276248,11.7468352 14.9610885,11.6021422 15.0364311,11.4948202 C15.7605033,10.4513059 16.1734202,9.19506404 16.1734202,7.84874844 C16.1734202,6.44206424 15.7233212,5.13216145 14.939562,4.0560672 C14.9141216,4.02252909 14.8955306,3.97174281 14.9209709,3.93245531 C14.9405405,3.90179189 14.9796795,3.88454372 15.0158831,3.87687787 C15.2800716,3.82417512 15.5511095,3.79542817 15.833889,3.79542817 Z" id="2-Friends" fill="#424851"></path>
    </g>
</svg>