<?xml version="1.0" encoding="UTF-8"?>
<svg width="24px" height="24px" viewBox="0 0 24 24" version="1.1" xmlns="http://www.w3.org/2000/svg" xmlns:xlink="http://www.w3.org/1999/xlink">
    <title>Icon/Pause</title>
    <g id="Icon/Pause" stroke="none" stroke-width="1" fill="none" fill-rule="evenodd">
        <path d="M7,6 L8.5,6 C9.6045695,6 10.5,6.8954305 10.5,8 L10.5,17.5 C10.5,17.7761424 10.2761424,18 10,18 L8.5,18 C7.3954305,18 6.5,17.1045695 6.5,16 L6.5,6.5 C6.5,6.22385763 6.72385763,6 7,6 Z M14,6 L15.5,6 C16.6045695,6 17.5,6.8954305 17.5,8 L17.5,17.5 C17.5,17.7761424 17.2761424,18 17,18 L15.5,18 C14.3954305,18 13.5,17.1045695 13.5,16 L13.5,6.5 C13.5,6.22385763 13.7238576,6 14,6 Z" id="↳-🎨-ICON-COLOR" fill="#424851"></path>
    </g>
</svg>