<?xml version="1.0" encoding="UTF-8"?>
<svg width="24px" height="24px" viewBox="0 0 24 24" version="1.1" xmlns="http://www.w3.org/2000/svg" xmlns:xlink="http://www.w3.org/1999/xlink">
    <title>Icon/Fill/Phone - call mutted</title>
    <g id="Icon/Fill/Phone---call-mutted" stroke="none" stroke-width="1" fill="none" fill-rule="evenodd">
        <path d="M20.9599884,1.93 C21.1879597,1.93 21.4060192,2.03265584 21.5646079,2.19527896 C21.8916972,2.54085309 21.8916972,3.07954218 21.5646079,3.42511631 L21.5646079,3.43528025 L12.1484025,13.080864 L11.687,13.553 L12.2801278,12.9482304 C15.560298,15.6420012 16.4854742,11.7891577 18.808928,14.1502317 C21.2059754,16.5971629 22.5842777,17.090842 19.5448636,20.1924347 C19.5074556,20.2250055 19.4487465,20.2928375 19.3645551,20.3793373 L19.3046065,20.4395875 C18.5071456,21.2225021 15.87663,23.0451208 8.9954965,16.3133167 L3.63417041,21.8116928 C3.46566989,21.9743159 3.25752219,22.0657914 3.0394627,22.0657914 C2.8214032,22.0657914 2.6132555,21.9743159 2.43484319,21.8116928 C2.15731292,21.5169384 2.11766574,21.0798887 2.30598985,20.7546425 L2.33572524,20.7139867 C2.35554883,20.6824785 2.37537242,20.653003 2.4051078,20.6225112 L20.3652807,2.19527896 C20.5139576,2.03265584 20.7320171,1.93 20.9599884,1.93 Z M9.39928694,4.70241804 C11.4302821,6.77372383 8.79739305,7.76108202 9.87635925,10.2187454 L6.37500816,13.7710884 C0.36664737,6.96337229 2.77789742,4.61410074 3.35317621,4.04569286 L3.3971916,4.00183785 C3.41678481,3.98197016 3.43258438,3.96514728 3.44381665,3.95116724 C6.51252345,0.838842485 6.98853795,2.25548686 9.39928694,4.70241804 Z" id="Combined-Shape" fill="#424851"></path>
    </g>
</svg>