<?xml version="1.0" encoding="UTF-8"?>
<svg width="24px" height="24px" viewBox="0 0 24 24" version="1.1" xmlns="http://www.w3.org/2000/svg" xmlns:xlink="http://www.w3.org/1999/xlink">
    <title>Icon/Plus-in-shape</title>
    <g id="Icon/Plus-in-shape" stroke="none" stroke-width="1" fill="none" fill-rule="evenodd">
        <path d="M16.6602,2.0001 L7.3302,2.0001 C3.9202,2.0001 2.0002,3.9201 2.0002,7.3301 L2.0002,16.6701 C2.0002,20.0601 3.9202,22.0001 7.3302,22.0001 L16.6702,22.0001 C20.0702,22.0001 22.0002,20.0601 22.0002,16.6701 L22.0002,7.3301 C22.0002,3.9201 20.0602,2.0001 16.6602,2.0001 M12,6 C12.6903559,6 13.25,6.55964406 13.25,7.25 L13.25,10.75 L17.5,10.75 C17.7761424,10.75 18,10.9738576 18,11.25 L18,12 C18,12.6903559 17.4403559,13.25 16.75,13.25 L13.25,13.25 L13.25,17.5 C13.25,17.7761424 13.0261424,18 12.75,18 L12,18 C11.3096441,18 10.75,17.4403559 10.75,16.75 L10.75,13.25 L6.5,13.25 C6.22385763,13.25 6,13.0261424 6,12.75 L6,12 C6,11.3096441 6.55964406,10.75 7.25,10.75 L10.75,10.75 L10.75,6.5 C10.75,6.22385763 10.9738576,6 11.25,6 L12,6 Z" id="↳-🎨-ICON-COLOR" fill="#424851"></path>
    </g>
</svg>