<?xml version="1.0" encoding="UTF-8"?>
<svg width="24px" height="24px" viewBox="0 0 24 24" version="1.1" xmlns="http://www.w3.org/2000/svg" xmlns:xlink="http://www.w3.org/1999/xlink">
    <title>Icon/Fill/Plus</title>
    <g id="Icon/Fill/Plus" stroke="none" stroke-width="1" fill="none" fill-rule="evenodd">
        <path d="M16.6602,2.0001 C20.0602,2.0001 22.0002,3.9201 22.0002,7.3301 L22.0002,7.3301 L22.0002,16.6701 C22.0002,20.0601 20.0702,22.0001 16.6702,22.0001 L16.6702,22.0001 L7.3302,22.0001 C3.9202,22.0001 2.0002,20.0601 2.0002,16.6701 L2.0002,16.6701 L2.0002,7.3301 C2.0002,3.9201 3.9202,2.0001 7.3302,2.0001 L7.3302,2.0001 Z M11.9902,7.5101 C11.5302,7.5101 11.1602,7.8801 11.1602,8.3401 L11.1602,8.3401 L11.1602,11.1601 L8.3302,11.1601 C8.1102,11.1601 7.9002,11.2501 7.7402,11.4001 C7.5902,11.5601 7.5002,11.7691 7.5002,11.9901 C7.5002,12.4501 7.8702,12.8201 8.3302,12.8301 L8.3302,12.8301 L11.1602,12.8301 L11.1602,15.6601 C11.1602,16.1201 11.5302,16.4901 11.9902,16.4901 C12.4502,16.4901 12.8202,16.1201 12.8202,15.6601 L12.8202,15.6601 L12.8202,12.8301 L15.6602,12.8301 C16.1202,12.8201 16.4902,12.4501 16.4902,11.9901 C16.4902,11.5301 16.1202,11.1601 15.6602,11.1601 L15.6602,11.1601 L12.8202,11.1601 L12.8202,8.3401 C12.8202,7.8801 12.4502,7.5101 11.9902,7.5101 Z" id="Plus" fill="#424851"></path>
    </g>
</svg>