<?xml version="1.0" encoding="UTF-8"?>
<svg width="24px" height="24px" viewBox="0 0 24 24" version="1.1" xmlns="http://www.w3.org/2000/svg" xmlns:xlink="http://www.w3.org/1999/xlink">
    <title>Icon/Printer</title>
    <g id="Icon/Printer" stroke="none" stroke-width="1" fill="none" fill-rule="evenodd">
        <path d="M15.5,16.5 C16.0522847,16.5 16.5,16.9477153 16.5,17.5 L16.5,20 C16.5,20.5522847 16.0522847,21 15.5,21 L8.5,21 C7.94771525,21 7.5,20.5522847 7.5,20 L7.5,17.5 C7.5,16.9477153 7.94771525,16.5 8.5,16.5 L15.5,16.5 Z M19.52,8 C20.8896662,8 22,9.11033383 22,10.48 L22,15.52 C22,16.8896662 20.8896662,18 19.52,18 L18,18 L18,16 C18,15.4871642 17.6139598,15.0644928 17.1166211,15.0067277 L17,15 L7,15 C6.48716416,15 6.06449284,15.3860402 6.00672773,15.8833789 L6,16 L6,18 L4.48000002,18 C3.11033383,18 2,16.8896662 2,15.52 L2,10.48 C2,9.11033383 3.11033383,8 4.48000002,8 L19.52,8 Z M8.25,11 L4.75,11 C4.33578644,11 4,11.3357864 4,11.75 C4,12.1642136 4.33578644,12.5 4.75,12.5 L4.75,12.5 L8.25,12.5 C8.66421356,12.5 9,12.1642136 9,11.75 C9,11.3357864 8.66421356,11 8.25,11 L8.25,11 Z M17,3 C17.5522847,3 18,3.44771525 18,4 L18,6 C18,6.27614237 17.7761424,6.5 17.5,6.5 L6.5,6.5 C6.22385763,6.5 6,6.27614237 6,6 L6,4 C6,3.44771525 6.44771525,3 7,3 L17,3 Z" id="↳-🎨-ICON-COLOR" fill="#424851"></path>
    </g>
</svg>