<?xml version="1.0" encoding="UTF-8"?>
<svg width="24px" height="24px" viewBox="0 0 24 24" version="1.1" xmlns="http://www.w3.org/2000/svg" xmlns:xlink="http://www.w3.org/1999/xlink">
    <title>Icon/Scale</title>
    <g id="Icon/Scale" stroke="none" stroke-width="1" fill="none" fill-rule="evenodd">
        <path d="M20.5,2 L20.64446,2.00686658 C21.4051119,2.07955132 22,2.72030388 22,3.5 L22,3.5 L22,7.75 C22,8.44035594 21.4403559,9 20.75,9 L20.75,9 L20,9 C19.7238576,9 19.5,8.77614237 19.5,8.5 L19.5,8.5 L19.5,6.266 L12.9880606,12.7802064 C12.9959506,12.852386 13,12.9257201 13,13 L13,20 C13,21.1045695 12.1045695,22 11,22 L4,22 C2.8954305,22 2,21.1045695 2,20 L2,13 C2,11.8954305 2.8954305,11 4,11 L11,11 C11.0742799,11 11.147614,11.0040494 11.2197936,11.0119394 L8,14.232233 C7.51184464,14.7203884 7.51184464,15.5118446 8,16 L8,16 L8.53033009,16.5303301 C8.72559223,16.7255922 9.04217472,16.7255922 9.23743687,16.5303301 L9.23743687,16.5303301 L12.9880606,12.7802064 C12.8865128,11.851228 12.148772,11.1134872 11.2197936,11.0119394 L17.732,4.5 L16.25,4.5 C15.6027913,4.5 15.0704661,4.00812534 15.0064536,3.37780524 L15,3.25 L15,2.5 C15,2.22385763 15.2238576,2 15.5,2 L15.5,2 L20.5,2 Z M20.75,17 C21.4403559,17 22,17.5596441 22,18.25 L22,20.5 C22,21.2796961 21.4051119,21.9204487 20.64446,21.9931334 L20.5,22 L17.5,22 C17.2238576,22 17,21.7761424 17,21.5 L17,20.75 C17,20.0596441 17.5596441,19.5 18.25,19.5 L19.5,19.5 L19.5,17.5 C19.5,17.2238576 19.7238576,17 20,17 L20.75,17 Z M6.5,2 C6.77614237,2 7,2.22385763 7,2.5 L7,3.25 C7,3.94035594 6.44035594,4.5 5.75,4.5 L4.5,4.5 L4.5,6.5 C4.5,6.77614237 4.27614237,7 4,7 L3.25,7 C2.55964406,7 2,6.44035594 2,5.75 L2,3.5 C2,2.72030388 2.59488808,2.07955132 3.35553999,2.00686658 L3.5,2 L6.5,2 Z" id="↳-🎨-ICON-COLOR" fill="#424851"></path>
    </g>
</svg>