<?xml version="1.0" encoding="UTF-8"?>
<svg width="24px" height="24px" viewBox="0 0 24 24" version="1.1" xmlns="http://www.w3.org/2000/svg" xmlns:xlink="http://www.w3.org/1999/xlink">
    <title>Icon/Fill/Search</title>
    <g id="Icon/Fill/Search" stroke="none" stroke-width="1" fill="none" fill-rule="evenodd">
        <path d="M17.6207067,17.6542822 C18.0072308,17.270377 18.6268293,17.270377 19.0133534,17.6542822 L19.0133534,17.6542822 L21.5680176,19.7164156 L21.6123694,19.7164156 C22.1292102,20.2388171 22.1292102,21.0857973 21.6123694,21.6081989 C21.0955285,22.1306004 20.2575639,22.1306004 19.7407231,21.6081989 L19.7407231,21.6081989 L17.6207067,19.1784678 L17.5402577,19.0876967 C17.390397,18.8980019 17.3076306,18.6615115 17.3076306,18.416375 C17.3076306,18.1303824 17.4202849,17.8561581 17.6207067,17.6542822 Z M10.5776396,2 C12.8525711,2 15.0343273,2.91343602 16.6429467,4.53936255 C18.2515662,6.16528909 19.1552792,8.37051871 19.1552792,10.6699261 C19.1552792,15.458194 15.3149392,19.3398521 10.5776396,19.3398521 C5.84034006,19.3398521 2,15.458194 2,10.6699261 C2,5.88165812 5.84034006,2 10.5776396,2 Z" id="Search" fill="#424851"></path>
    </g>
</svg>