<?xml version="1.0" encoding="UTF-8"?>
<svg width="24px" height="24px" viewBox="0 0 24 24" version="1.1" xmlns="http://www.w3.org/2000/svg" xmlns:xlink="http://www.w3.org/1999/xlink">
    <title>Icon/Fill/Settings</title>
    <g id="Icon/Fill/Settings" stroke="none" stroke-width="1" fill="none" fill-rule="evenodd">
        <path d="M12.717123,2.0001 C13.4733715,2.0001 14.1580829,2.4201 14.5362071,3.0401 C14.7201595,3.3401 14.8427943,3.7101 14.8121356,4.1001 C14.7916965,4.4001 14.8836726,4.7001 15.0471858,4.9801 C15.5683841,5.8301 16.7231959,6.1501 17.6225184,5.6701 C18.6342562,5.0901 19.911703,5.4401 20.4942187,6.4301 L20.4942187,6.4301 L21.1789301,7.6101 C21.7716654,8.6001 21.444639,9.8701 20.4226817,10.4401 C19.5540179,10.9501 19.2474307,12.0801 19.7686289,12.9401 C19.9321421,13.2101 20.1160944,13.4401 20.4022425,13.5801 C20.7599276,13.7701 21.0358561,14.0701 21.230028,14.3701 C21.6081522,14.9901 21.5774935,15.7501 21.2095888,16.4201 L21.2095888,16.4201 L20.4942187,17.6201 C20.1160944,18.2601 19.4109438,18.6601 18.6853541,18.6601 C18.327669,18.6601 17.9291056,18.5601 17.6020793,18.3601 C17.3363704,18.1901 17.0297831,18.1301 16.7027568,18.1301 C15.691019,18.1301 14.8427943,18.9601 14.8121356,19.9501 C14.8121356,21.1001 13.8719348,22.0001 12.6966838,22.0001 L12.6966838,22.0001 L11.3068218,22.0001 C10.1213512,22.0001 9.18115044,21.1001 9.18115044,19.9501 C9.1607113,18.9601 8.31248667,18.1301 7.30074886,18.1301 C6.96350292,18.1301 6.65691571,18.1901 6.40142636,18.3601 C6.0744,18.5601 5.66561705,18.6601 5.31815154,18.6601 C4.58234222,18.6601 3.87719163,18.2601 3.49906739,17.6201 L3.49906739,17.6201 L2.7939168,16.4201 C2.41579257,15.7701 2.39535342,14.9901 2.77347765,14.3701 C2.93699083,14.0701 3.24357805,13.7701 3.59104356,13.5801 C3.87719163,13.4401 4.06114396,13.2101 4.23487671,12.9401 C4.7458554,12.0801 4.43926819,10.9501 3.57060441,10.4401 C2.5588666,9.8701 2.23184024,8.6001 2.81435595,7.6101 L2.81435595,7.6101 L3.49906739,6.4301 C4.09180268,5.4401 5.35902983,5.0901 6.38098721,5.6701 C7.27009014,6.1501 8.42490198,5.8301 8.94610025,4.9801 C9.10961343,4.7001 9.20158959,4.4001 9.18115044,4.1001 C9.1607113,3.7101 9.27312661,3.3401 9.46729851,3.0401 C9.84542274,2.4201 10.5301342,2.0201 11.2761631,2.0001 L11.2761631,2.0001 Z M12.0119724,9.1801 C10.4074993,9.1801 9.10961343,10.4401 9.10961343,12.0101 C9.10961343,13.5801 10.4074993,14.8301 12.0119724,14.8301 C13.6164455,14.8301 14.8836726,13.5801 14.8836726,12.0101 C14.8836726,10.4401 13.6164455,9.1801 12.0119724,9.1801 Z" id="Setting" fill="#424851"></path>
    </g>
</svg>