<?xml version="1.0" encoding="UTF-8"?>
<svg width="24px" height="24px" viewBox="0 0 24 24" version="1.1" xmlns="http://www.w3.org/2000/svg" xmlns:xlink="http://www.w3.org/1999/xlink">
    <title>Icon/Shield</title>
    <g id="Icon/Shield" stroke="none" stroke-width="1" fill="none" fill-rule="evenodd">
        <path d="M12.5707588,2.0995642 L19.208183,4.32651721 C19.9511557,4.57461017 20.453518,5.25711096 20.4575449,6.02198254 L20.4998279,12.6626368 C20.5129155,14.675818 19.7790035,16.6282017 18.4350081,18.1579449 C17.8168709,18.8600578 17.0245681,19.4631296 16.0127963,20.0024621 L12.4449165,21.909738 C12.3331686,21.9685743 12.2103466,21.998973 12.0865178,21.9999774 C11.962689,22.0009343 11.8388602,21.9715161 11.728119,21.9136604 L8.12701688,20.0505117 C7.10417099,19.5200047 6.30482095,18.9257583 5.68064334,18.2334514 C4.31449976,16.719398 3.55541924,14.7758397 3.54233165,12.7597166 L3.50002418,6.12396542 C3.4960217,5.35811323 3.98932336,4.67070942 4.72826911,4.41281041 L11.3405248,2.10642843 C11.7331527,1.96718258 12.1710838,1.96424076 12.5707588,2.0995642 Z M16.404021,6.54488712 C16.1809845,6.38207025 15.8681886,6.43088791 15.7053717,6.65392441 L15.7053717,6.65392441 L10.926,13.201 L9.79714543,12.3393584 C9.24110766,11.9149413 8.44965271,12.0026254 8,12.5384615 L8,12.5384615 L7.52800221,13.1009256 L7.52800221,13.1009256 L7.51823144,13.1129422 C7.34735956,13.3298694 7.38469477,13.6442427 7.60162196,13.8151146 L7.60162196,13.8151146 L10.3214811,15.9575267 L10.4341234,16.041877 C10.9748964,16.4015712 11.7144648,16.2875082 12.1183388,15.7588004 L12.1183388,15.7588004 L17.2534519,8.76630598 C17.6643233,8.20682151 17.5516174,7.42137442 17,7 L17,7 L16.4127352,6.55139492 C16.4098541,6.54919413 16.4069492,6.54702473 16.404021,6.54488712 Z" id="↳-🎨-ICON-COLOR" fill="#424851"></path>
    </g>
</svg>