<?xml version="1.0" encoding="UTF-8"?>
<svg width="24px" height="24px" viewBox="0 0 24 24" version="1.1" xmlns="http://www.w3.org/2000/svg" xmlns:xlink="http://www.w3.org/1999/xlink">
    <title>Icon/Fill/Show</title>
    <g id="Icon/Fill/Show" stroke="none" stroke-width="1" fill="none" fill-rule="evenodd">
        <path d="M12,4 C14.0682927,4 16.0292683,4.71757576 17.7365854,6.04606061 C19.4439024,7.36484848 20.897561,9.29454545 21.9414634,11.7090909 C22.0195122,11.8933333 22.0195122,12.1066667 21.9414634,12.2812121 C19.8536585,17.110303 16.1365854,20 12,20 L12,20 L11.9902439,20 C7.86341463,20 4.14634146,17.110303 2.05853659,12.2812121 C1.9804878,12.1066667 1.9804878,11.8933333 2.05853659,11.7090909 C4.14634146,6.88 7.86341463,4 11.9902439,4 L11.9902439,4 Z M12,8.12121212 C9.84390244,8.12121212 8.09756098,9.8569697 8.09756098,12 C8.09756098,14.1333333 9.84390244,15.8690909 12,15.8690909 C14.1463415,15.8690909 15.8926829,14.1333333 15.8926829,12 C15.8926829,9.8569697 14.1463415,8.12121212 12,8.12121212 Z M12.0011707,9.57362424 C13.3377561,9.57362424 14.430439,10.6596848 14.430439,11.9978667 C14.430439,13.3263515 13.3377561,14.4124121 12.0011707,14.4124121 C10.6548293,14.4124121 9.56214634,13.3263515 9.56214634,11.9978667 C9.56214634,11.8330182 9.58165854,11.6778667 9.61092683,11.5227152 L9.65970732,11.5227152 C10.7426341,11.5227152 11.6206829,10.6693818 11.6597073,9.60271515 C11.7670244,9.58332121 11.8840976,9.57362424 12.0011707,9.57362424 Z" id="Show" fill="#424851"></path>
    </g>
</svg>