<?xml version="1.0" encoding="UTF-8"?>
<svg width="24px" height="24px" viewBox="0 0 24 24" version="1.1" xmlns="http://www.w3.org/2000/svg" xmlns:xlink="http://www.w3.org/1999/xlink">
    <title>Icon/Fill/Star</title>
    <g id="Icon/Fill/Star" stroke="none" stroke-width="1" fill="none" fill-rule="evenodd">
        <path d="M17.9185,14.3201 C17.6595,14.5711 17.5405,14.9341 17.5995,15.2901 L18.4885,20.2101 C18.5635,20.6271 18.3875,21.0491 18.0385,21.2901 C17.6965,21.5401 17.2415,21.5701 16.8685,21.3701 L12.4395,19.0601 C12.2855,18.9781 12.1145,18.9341 11.9395,18.9291 L11.6685,18.9291 C11.5745,18.9431 11.4825,18.9731 11.3985,19.0191 L6.9685,21.3401 C6.7495,21.4501 6.5015,21.4891 6.2585,21.4501 C5.6665,21.3381 5.2715,20.7741 5.3685,20.1791 L6.2585,15.2591 C6.3175,14.9001 6.1985,14.5351 5.9395,14.2801 L2.3285,10.7801 C2.0265,10.4871 1.9215,10.0471 2.0595,9.6501 C2.1935,9.2541 2.5355,8.9651 2.9485,8.9001 L7.9185,8.1791 C8.2965,8.1401 8.6285,7.9101 8.7985,7.5701 L10.9885,3.0801 C11.0405,2.9801 11.1075,2.8881 11.1885,2.8101 L11.2785,2.7401 C11.3255,2.6881 11.3795,2.6451 11.4395,2.6101 L11.5485,2.5701 L11.7185,2.5001 L12.1395,2.5001 C12.5155,2.5391 12.8465,2.7641 13.0195,3.1001 L15.2385,7.5701 C15.3985,7.8971 15.7095,8.1241 16.0685,8.1791 L21.0385,8.9001 C21.4585,8.9601 21.8095,9.2501 21.9485,9.6501 C22.0795,10.0511 21.9665,10.4911 21.6585,10.7801 L17.9185,14.3201 Z" id="Star" fill="#424851"></path>
    </g>
</svg>