<?xml version="1.0" encoding="UTF-8"?>
<svg width="24px" height="24px" viewBox="0 0 24 24" version="1.1" xmlns="http://www.w3.org/2000/svg" xmlns:xlink="http://www.w3.org/1999/xlink">
    <title>Icon/Fill/Ticket 1</title>
    <g id="Icon/Fill/Ticket-1" stroke="none" stroke-width="1" fill="none" fill-rule="evenodd">
        <path d="M17.856,3 C20.14,3 21.999,4.84201255 21.999,7.10514147 L21.999,7.10514147 L22,9.78245073 C22,9.97864142 21.921,10.1688869 21.781,10.3076076 C21.64,10.4473192 21.45,10.5255973 21.25,10.5255973 C20.429,10.5255973 19.761,11.1874931 19.761,12.0009909 C19.761,12.8144886 20.429,13.4763845 21.25,13.4763845 C21.664,13.4763845 22,13.8093141 22,14.219531 L22,14.219531 L22,16.8958494 C22,19.1589783 20.142,21 17.858,21 L17.858,21 L6.143,21 C3.859,21 2,19.1589783 2,16.8958494 L2,16.8958494 L2,14.219531 C2,13.8093141 2.336,13.4763845 2.75,13.4763845 C3.572,13.4763845 4.24,12.8144886 4.24,12.0009909 C4.24,11.2083012 3.599,10.6118023 2.75,10.6118023 C2.551,10.6118023 2.361,10.5335242 2.22,10.3938126 C2.079,10.2541011 2,10.0648464 2,9.86865573 L2,9.86865573 L2.002,7.10514147 C2.002,4.84201255 3.86,3 6.144,3 L6.144,3 Z M12.002,8.15347352 C11.718,8.15347352 11.464,8.31002973 11.337,8.56170869 L11.337,8.56170869 L10.608,10.0252119 L8.982,10.2600462 C8.701,10.2996807 8.471,10.4899262 8.382,10.757459 C8.294,11.0249917 8.365,11.3143235 8.569,11.5105141 L8.569,11.5105141 L9.748,12.6480238 L9.47,14.2561929 C9.422,14.5336343 9.535,14.8090939 9.765,14.9745679 C9.895,15.066718 10.046,15.1142794 10.199,15.1142794 C10.316,15.1142794 10.434,15.0855444 10.542,15.0290653 L10.542,15.0290653 L12,14.270065 L13.455,15.0270836 C13.707,15.1608499 14.006,15.1400418 14.235,14.973577 C14.466,14.8090939 14.579,14.5336343 14.531,14.2561929 L14.531,14.2561929 L14.252,12.6480238 L15.431,11.5105141 C15.636,11.3143235 15.707,11.0249917 15.618,10.757459 C15.53,10.4899262 15.3,10.2996807 15.022,10.2610371 L15.022,10.2610371 L13.393,10.0252119 L12.664,8.56269955 C12.539,8.31102059 12.285,8.15446438 12.002,8.15347352 L12.002,8.15347352 Z" id="Ticket-Star" fill="#424851"></path>
    </g>
</svg>