<?xml version="1.0" encoding="UTF-8"?>
<svg width="24px" height="24px" viewBox="0 0 24 24" version="1.1" xmlns="http://www.w3.org/2000/svg" xmlns:xlink="http://www.w3.org/1999/xlink">
    <title>Icon/Fill/Translation</title>
    <g id="Icon/Fill/Translation" stroke="none" stroke-width="1" fill="none" fill-rule="evenodd">
        <path d="M16,2 L16,6.5 C16,6.77614237 16.2238576,7 16.5,7 L16.5,7 L17.5,7 C17.7761424,7 18,6.77614237 18,6.5 L18,6.5 L18,2 L19,2 C19.5522847,2 20,2.44771525 20,3 L20,21 C20,21.5522847 19.5522847,22 19,22 L6,22 C4.8954305,22 4,21.1045695 4,20 L4,4 C4,2.8954305 4.8954305,2 6,2 L16,2 Z M16.6853445,13.513 L15.3898932,13.513 L12.940075,20.25 L14.3364935,20.25 L14.84,18.854 L17.225,18.854 L17.7295065,20.25 L19.1254412,20.25 L16.6853445,13.513 Z M11.5922581,9.28364163 L10.865529,10.3514885 L11.1305507,10.4762047 L11.3547171,10.5867491 C11.5032513,10.6633941 11.6499785,10.7459574 11.7949754,10.8345641 L11.7949754,10.8345641 L9.687,10.836 L9.687,9.334 L8.332,9.334 L8.332,10.836 L5.74,10.837 L5.74,12.156 L8.332,12.155 L8.332,13.257 L5.227,13.258 L5.227,14.577 L8.332,14.576 L8.332,18.186 L9.687,18.186 L9.687,14.576 L12.067,14.576 L12.0553967,14.8587234 L12.027238,15.2927175 L11.9948713,15.612408 L11.9725639,15.7571833 C11.9614652,15.8152945 11.9505699,15.8516271 11.9404204,15.8645446 C11.8978935,15.9145489 11.7990611,15.9543564 11.6310637,15.9677962 L11.6310637,15.9677962 L10.3635168,15.958 L10.7435842,17.259 L11.507,17.259 L11.7374822,17.2501366 C11.8936615,17.2384119 12.0542031,17.2152421 12.2149886,17.1817451 C12.5064496,17.1192933 12.7366571,16.9999265 12.8961984,16.8281128 C13.1742654,16.5326731 13.3295722,15.7974435 13.3872282,14.5833861 L13.3872282,14.5833861 L13.405142,14.0721331 C13.409417,13.8931413 13.4120154,13.7055444 13.4129969,13.50925 L13.4129969,13.50925 L13.4142531,13.258 L12.184,13.257 L12.3320975,11.5222236 L12.333869,11.1977116 C12.5098743,11.3277478 12.6833259,11.4674772 12.8543738,11.6171442 L12.8543738,11.6171442 L13.0728223,11.8082866 L13.8009515,10.672405 L13.6251738,10.5317828 L13.2802996,10.2683803 C12.8130173,9.92792792 12.3157365,9.63051481 11.7860824,9.37657107 L11.7860824,9.37657107 L11.5922581,9.28364163 Z M16.033,15.513 L16.811,17.688 L15.254,17.688 L16.033,15.513 Z M10.953,12.155 L10.848,13.257 L9.687,13.257 L9.687,12.155 L10.953,12.155 Z" id="Combined-Shape" fill="#424851"></path>
    </g>
</svg>