<?xml version="1.0" encoding="UTF-8"?>
<svg width="24px" height="24px" viewBox="0 0 24 24" version="1.1" xmlns="http://www.w3.org/2000/svg" xmlns:xlink="http://www.w3.org/1999/xlink">
    <title>Icon/Upload-cloud</title>
    <g id="Icon/Upload-cloud" stroke="none" stroke-width="1" fill="none" fill-rule="evenodd">
        <path d="M9.5,3 C11.8457077,3 13.8484392,4.46845584 14.6390624,6.53623543 C15.1771932,6.19640444 15.8156602,6 16.5,6 C18.4329966,6 20,7.56700338 20,9.5 C20,9.75033891 19.9737176,9.99453924 19.9237617,10.2299922 C21.7110673,10.8253476 23,12.5121506 23,14.5 C23,16.9852814 20.9852814,19 18.5,19 L13.25,19 L13.25,21.5 C13.25,21.7761424 13.0261424,22 12.75,22 L12,22 C11.3096441,22 10.75,21.4403559 10.75,20.75 L10.75,19 L13.25,19 L13.25,14.017 L14.2323418,14.9998912 L14.2323418,14.9998912 C14.7205459,15.4880953 15.5119047,15.4880953 16,15 L16,15 L16.5303301,14.4696699 C16.7255922,14.2744078 16.7255922,13.9578253 16.5303301,13.7625631 L16.5303301,13.7625631 L12.8838835,10.1161165 L12.7823881,10.0249942 C12.2915486,9.63013074 11.5717282,9.66050485 11.1161165,10.1161165 L11.1161165,10.1161165 L8,13.232233 C7.51184464,13.7203884 7.51184464,14.5118446 8,15 L8,15 L8.53033009,15.5303301 L8.53033009,15.5303301 L8.59958504,15.588264 C8.79446931,15.7232356 9.06388704,15.703913 9.23739336,15.5302866 L9.23739336,15.5302866 L10.75,14.016 L10.75,19 L5.5,19 C3.01471863,19 1,16.9852814 1,14.5 C1,12.4451591 2.37727185,10.7119973 4.25904708,10.173283 C4.09087292,9.64582879 4,9.08352665 4,8.5 C4,5.46243388 6.46243388,3 9.5,3 Z" id="↳-🎨-ICON-COLOR" fill="#424851"></path>
    </g>
</svg>