<?xml version="1.0" encoding="UTF-8"?>
<svg width="24px" height="24px" viewBox="0 0 24 24" version="1.1" xmlns="http://www.w3.org/2000/svg" xmlns:xlink="http://www.w3.org/1999/xlink">
    <title>Icon/Video camera-off</title>
    <g id="Icon/Video-camera-off" stroke="none" stroke-width="1" fill="none" fill-rule="evenodd">
        <path d="M21.7091068,2.29289322 C22.0695907,2.65337718 22.0973203,3.22060824 21.7922954,3.61289944 L21.7091068,3.70710678 L16.018,9.398 L16.0181402,15.4390863 C16.0181402,17.7584833 14.4280563,19.3981826 12.1232426,19.4954284 L11.9050991,19.5 L6.11304113,19.5 C6.04835998,19.5 5.98420017,19.4988097 5.92057998,19.4964471 L3.70910678,21.7071068 C3.31858249,22.0976311 2.68541751,22.0976311 2.29489322,21.7071068 C1.93440926,21.3466228 1.90667972,20.7793918 2.21170461,20.3871006 L2.289,20.298 L15.7029033,6.88468951 L15.7029033,6.88468951 L20.2948932,2.29289322 C20.6854175,1.90236893 21.3185825,1.90236893 21.7091068,2.29289322 Z M11.9050991,4.5 C12.9078355,4.5 13.7852757,4.78607655 14.4692954,5.29108605 L2.41676206,17.3427379 C2.14713366,16.7872707 2,16.1446254 2,15.4390863 L2,15.4390863 L2,8.56091371 C2,6.16903553 3.69101691,4.5 6.11304113,4.5 L6.11304113,4.5 Z M19.9579796,6.87898477 C20.396984,6.65563452 20.9119891,6.67898477 21.3309933,6.94294416 C21.7499975,7.20588832 22,7.66274112 22,8.1622335 L22,8.1622335 L22,15.8383756 C22,16.3388832 21.7499975,16.7947208 21.3309933,17.057665 C21.101991,17.2008122 20.8459885,17.2739086 20.5879859,17.2739086 C20.3729837,17.2739086 20.1579816,17.2231472 19.9569796,17.1206091 L19.9569796,17.1206091 L18.4759648,16.373401 C17.9279593,16.0952284 17.5879559,15.5368528 17.5879559,14.9165482 L17.5879559,14.9165482 L17.5879559,9.08304569 C17.5879559,8.46172589 17.9279593,7.90335025 18.4759648,7.62720812 L18.4759648,7.62720812 Z" id="↳-🎨-ICON-COLOR" fill="#424851"></path>
    </g>
</svg>