<?xml version="1.0" encoding="UTF-8"?>
<svg width="24px" height="24px" viewBox="0 0 24 24" version="1.1" xmlns="http://www.w3.org/2000/svg" xmlns:xlink="http://www.w3.org/1999/xlink">
    <title>Icon/Fill/Video-off</title>
    <g id="Icon/Fill/Video-off" stroke="none" stroke-width="1" fill="none" fill-rule="evenodd">
        <path d="M20.9599884,1.93 C21.1879597,1.93 21.4060192,2.03265584 21.5646079,2.19527896 C21.8916972,2.54085309 21.8916972,3.07954218 21.5646079,3.42511631 L21.5646079,3.43528025 L16.018,9.116 L16.0181402,15.4390863 C16.0181402,17.7584833 14.4280563,19.3981826 12.1232426,19.4954284 L11.9050991,19.5 L6.11304113,19.5 C6.03930349,19.5 5.96624341,19.498453 5.89388796,19.4953857 L3.63417041,21.8116928 C3.46566989,21.9743159 3.25752219,22.0657914 3.0394627,22.0657914 C2.8214032,22.0657914 2.6132555,21.9743159 2.43484319,21.8116928 C2.15731292,21.5169384 2.11766574,21.0798887 2.30598985,20.7546425 L2.33572524,20.7139867 C2.35554883,20.6824785 2.37537242,20.653003 2.4051078,20.6225112 L3.99488855,18.992167 C3.9925823,18.9909177 3.9902777,18.9896661 3.98797475,18.9884125 L10.9334025,11.865864 L20.3496079,2.22028025 L20.349,2.211 L20.3652807,2.19527896 C20.5139576,2.03265584 20.7320171,1.93 20.9599884,1.93 Z M11.9050991,4.5 C13.0440365,4.5 14.0213282,4.8690697 14.7371489,5.5088207 L2.71201779,17.8478187 C2.25621184,17.1916302 2,16.3701184 2,15.4390863 L2,15.4390863 L2,8.56091371 C2,6.16903553 3.69101691,4.5 6.11304113,4.5 L6.11304113,4.5 Z M19.9579796,6.87898477 C20.396984,6.65563452 20.9119891,6.67898477 21.3309933,6.94294416 C21.7499975,7.20588832 22,7.66274112 22,8.1622335 L22,8.1622335 L22,15.8383756 C22,16.3388832 21.7499975,16.7947208 21.3309933,17.057665 C21.101991,17.2008122 20.8459885,17.2739086 20.5879859,17.2739086 C20.3729837,17.2739086 20.1579816,17.2231472 19.9569796,17.1206091 L19.9569796,17.1206091 L18.4759648,16.373401 C17.9279593,16.0952284 17.5879559,15.5368528 17.5879559,14.9165482 L17.5879559,14.9165482 L17.5879559,9.08304569 C17.5879559,8.46172589 17.9279593,7.90335025 18.4759648,7.62720812 L18.4759648,7.62720812 Z" id="Video" fill="#424851"></path>
    </g>
</svg>