<?xml version="1.0" encoding="UTF-8"?>
<svg width="24px" height="24px" viewBox="0 0 24 24" version="1.1" xmlns="http://www.w3.org/2000/svg" xmlns:xlink="http://www.w3.org/1999/xlink">
    <title>Icon/Fill/Video-on</title>
    <g id="Icon/Fill/Video-on" stroke="none" stroke-width="1" fill="none" fill-rule="evenodd">
        <path d="M11.9050991,4.5 C14.3271233,4.5 16.0181402,6.16903553 16.0181402,8.56091371 L16.0181402,8.56091371 L16.0181402,15.4390863 C16.0181402,17.8309645 14.3271233,19.5 11.9050991,19.5 L11.9050991,19.5 L6.11304113,19.5 C3.69101691,19.5 2,17.8309645 2,15.4390863 L2,15.4390863 L2,8.56091371 C2,6.16903553 3.69101691,4.5 6.11304113,4.5 L6.11304113,4.5 Z M19.9579796,6.87898477 C20.396984,6.65563452 20.9119891,6.67898477 21.3309933,6.94294416 C21.7499975,7.20588832 22,7.66274112 22,8.1622335 L22,8.1622335 L22,15.8383756 C22,16.3388832 21.7499975,16.7947208 21.3309933,17.057665 C21.101991,17.2008122 20.8459885,17.2739086 20.5879859,17.2739086 C20.3729837,17.2739086 20.1579816,17.2231472 19.9569796,17.1206091 L19.9569796,17.1206091 L18.4759648,16.373401 C17.9279593,16.0952284 17.5879559,15.5368528 17.5879559,14.9165482 L17.5879559,14.9165482 L17.5879559,9.08304569 C17.5879559,8.46172589 17.9279593,7.90335025 18.4759648,7.62720812 L18.4759648,7.62720812 Z" id="Video" fill="#424851"></path>
    </g>
</svg>