<?xml version="1.0" encoding="UTF-8"?>
<svg width="24px" height="24px" viewBox="0 0 24 24" version="1.1" xmlns="http://www.w3.org/2000/svg" xmlns:xlink="http://www.w3.org/1999/xlink">
    <title>Icon/Fill/Volume up</title>
    <g id="Icon/Fill/Volume-up" stroke="none" stroke-width="1" fill="none" fill-rule="evenodd">
        <path d="M10.7576245,3.00000951 C11.8009789,3.00000951 12.7740774,3.75153924 13.1253576,4.95611866 C13.254335,5.45963716 13.3067649,5.96422925 13.3570976,6.45057014 L13.3570976,6.45057014 L13.4042845,6.89289342 C13.5846433,8.36909369 13.5846433,15.621263 13.4042845,17.1081993 L13.4042845,17.1081993 L13.3570976,17.5666266 C13.3120079,18.0293483 13.2658696,18.5081739 13.1326977,19.0192076 C12.7814176,20.2205663 11.84502,21.0000095 10.7817422,21.0000095 C10.7481871,21.0000095 10.714632,21.0000095 10.6768824,20.9989264 C10.0896679,20.9989264 9.451072,20.6381967 9.08930587,20.3236319 L9.08930587,20.3236319 L5.56287255,17.3830409 L3.75194471,17.3830409 C2.35416427,17.3830409 1.33073313,16.370636 1.14513138,14.8042533 C0.931217492,13.2378706 0.973161391,10.5506493 1.14513138,9.12705543 C1.34751069,7.64441356 2.41917731,6.61697817 3.75194471,6.61697817 L3.75194471,6.61697817 L5.56287255,6.61697817 L9.02219563,3.71933124 C9.43953742,3.35645437 10.1756529,2.9978719 10.7576245,3.00000951 Z M19.2900621,3.22107339 C19.7074039,2.92475973 20.2809867,3.03319335 20.5672539,3.45726543 C22.1359557,5.76657945 23,8.80164721 23,11.9999022 C23,15.2003044 22.1359557,18.2342985 20.5672539,20.5436126 C20.3963325,20.7959086 20.1142597,20.9472862 19.8133123,20.9472862 C19.6266619,20.9472862 19.4463031,20.8893118 19.2911107,20.7798046 C18.8758661,20.4824173 18.7731036,19.8973052 19.0604193,19.4721596 C20.4173044,17.473116 21.1649544,14.8191763 21.1649544,11.9999022 C21.1649544,9.18170168 20.4173044,6.52776199 19.0604193,4.52871842 C18.7731036,4.10464635 18.8758661,3.51846064 19.2900621,3.22107339 Z M16.128331,6.2583957 C16.5467214,5.96315565 17.118207,6.06944207 17.4065713,6.49458774 C18.4195165,7.98689202 18.978419,9.94191798 18.978419,12.0000096 C18.978419,14.0581011 18.4195165,16.0131271 17.4065713,17.5054314 C17.2346014,17.7577274 16.9535772,17.909105 16.6526298,17.909105 C16.4659794,17.909105 16.284572,17.8511306 16.1293796,17.7416234 C15.714135,17.4442361 15.6113725,16.8580504 15.8997368,16.4339784 C16.7019138,15.2519445 17.1433734,13.6769731 17.1433734,12.0000096 C17.1433734,10.3219724 16.7019138,8.74807456 15.8997368,7.56604074 C15.6113725,7.14196866 15.714135,6.55578296 16.128331,6.2583957 Z" id="Volume-Up" fill="#424851"></path>
    </g>
</svg>