<svg width="24" height="24" viewBox="0 0 24 24" fill="none" xmlns="http://www.w3.org/2000/svg">
<path d="M16 12C16 11.4477 15.5523 11 15 11C14.4477 11 14 11.4477 14 12H16ZM10 12C10 11.4477 9.55228 11 9 11C8.44772 11 8 11.4477 8 12H10ZM11 9C11 9.55229 11.4477 10 12 10C12.5523 10 13 9.55229 13 9H11ZM12.416 1.62404L11.584 2.17874L12.416 1.62404ZM11.584 1.62404L12.416 2.17874L11.584 1.62404ZM13.7433 3.61494L12.9112 4.16964L13.7433 3.61494ZM14 12C14 13.1046 13.1046 14 12 14V16C14.2091 16 16 14.2091 16 12H14ZM12 14C10.8954 14 10 13.1046 10 12H8C8 14.2091 9.79086 16 12 16V14ZM8 12C8 13.1046 7.10457 14 6 14V16C8.20914 16 10 14.2091 10 12H8ZM6 14C4.89543 14 4 13.1046 4 12H2C2 14.2091 3.79086 16 6 16V14ZM20 12C20 13.1046 19.1046 14 18 14V16C20.2091 16 22 14.2091 22 12H20ZM18 14C16.8954 14 16 13.1046 16 12H14C14 14.2091 15.7909 16 18 16V14ZM4 12V11H2V12H4ZM5 10H19V8H5V10ZM20 11V12H22V11H20ZM6 20V14.3719H4V20H6ZM6 22H18V20H6V22ZM18 14.3719V20H20V14.3719H18ZM13 9V7H11V9H13ZM12.4472 7.89443L13.4208 7.40762L12.5264 5.61876L11.5528 6.10557L12.4472 7.89443ZM14.5753 3.06024L13.2481 1.06934L11.584 2.17874L12.9112 4.16964L14.5753 3.06024ZM10.7519 1.06934L9.42466 3.06024L11.0888 4.16964L12.416 2.17874L10.7519 1.06934ZM10.5792 7.40762L11.5528 7.89443L12.4472 6.10557L11.4736 5.61876L10.5792 7.40762ZM9.42466 3.06024C8.42371 4.56166 8.96518 6.60062 10.5792 7.40762L11.4736 5.61876C10.9356 5.34977 10.7551 4.67011 11.0888 4.16964L9.42466 3.06024ZM13.2481 1.06934C12.6543 0.178739 11.3457 0.178737 10.7519 1.06934L12.416 2.17874C12.2181 2.47561 11.7819 2.4756 11.584 2.17874L13.2481 1.06934ZM13.4208 7.40762C15.0348 6.60062 15.5763 4.56167 14.5753 3.06024L12.9112 4.16964C13.2449 4.67011 13.0644 5.34977 12.5264 5.61876L13.4208 7.40762ZM18 22C19.1046 22 20 21.1046 20 20H18V22ZM4 20C4 21.1046 4.89543 22 6 22V20H4ZM19 10C19.5523 10 20 10.4477 20 11H22C22 9.34315 20.6569 8 19 8V10ZM4 11C4 10.4477 4.44772 10 5 10V8C3.34315 8 2 9.34315 2 11H4Z" fill="black"/>
</svg>
