<svg width="24" height="24" viewBox="0 0 24 24" fill="none" xmlns="http://www.w3.org/2000/svg">
<path d="M17.5758 5.50772L18.4441 5.01158V5.01158L17.5758 5.50772ZM20.473 10.5777L21.3412 10.0816L21.3412 10.0816L20.473 10.5777ZM18 17.5H19C19 16.9477 18.5523 16.5 18 16.5V17.5ZM6 17.5V16.5C5.44772 16.5 5 16.9477 5 17.5H6ZM3.52703 10.5777L4.39527 11.0738H4.39527L3.52703 10.5777ZM6.42416 5.50772L5.55592 5.01158V5.01158L6.42416 5.50772ZM3.64018 7.23178C3.21591 6.87821 2.58534 6.93554 2.23178 7.35982C1.87821 7.78409 1.93554 8.41466 2.35982 8.76822L3.64018 7.23178ZM5.72187 10.2682L5.08168 11.0364L5.72187 10.2682ZM18.2781 10.2682L18.9183 11.0364L18.9183 11.0364L18.2781 10.2682ZM21.6402 8.76822C22.0645 8.41466 22.1218 7.78409 21.7682 7.35982C21.4147 6.93554 20.7841 6.87821 20.3598 7.23178L21.6402 8.76822ZM6.5 13C5.94771 13 5.5 13.4477 5.5 14C5.5 14.5523 5.94771 15 6.5 15V13ZM6.51 15C7.06228 15 7.51 14.5523 7.51 14C7.51 13.4477 7.06228 13 6.51 13V15ZM17.5 13C16.9477 13 16.5 13.4477 16.5 14C16.5 14.5523 16.9477 15 17.5 15V13ZM17.51 15C18.0623 15 18.51 14.5523 18.51 14C18.51 13.4477 18.0623 13 17.51 13V15ZM8.16065 5.5H15.8394V3.5H8.16065V5.5ZM16.7076 6.00386L19.6047 11.0738L21.3412 10.0816L18.4441 5.01158L16.7076 6.00386ZM20 12.5623V18.5H22V12.5623H20ZM20 18.5H19V20.5H20V18.5ZM19 18.5V17.5H17V18.5H19ZM18 16.5H6V18.5H18V16.5ZM5 17.5V18.5H7V17.5H5ZM5 18.5H4V20.5H5V18.5ZM4 18.5V12.5623H2V18.5H4ZM4.39527 11.0738L7.2924 6.00386L5.55592 5.01158L2.65878 10.0816L4.39527 11.0738ZM4 12.5623C4 12.0402 4.13625 11.5271 4.39527 11.0738L2.65878 10.0816C2.22708 10.8371 2 11.6921 2 12.5623H4ZM4 18.5H4H2C2 19.6046 2.89543 20.5 4 20.5V18.5ZM5 18.5V20.5C6.10457 20.5 7 19.6046 7 18.5H5ZM19 18.5H17C17 19.6046 17.8954 20.5 19 20.5V18.5ZM20 18.5V20.5C21.1046 20.5 22 19.6046 22 18.5H20ZM19.6047 11.0738C19.8638 11.5271 20 12.0402 20 12.5623H22C22 11.6921 21.7729 10.8371 21.3412 10.0816L19.6047 11.0738ZM15.8394 5.5C16.1982 5.5 16.5296 5.69229 16.7076 6.00386L18.4441 5.01158C17.91 4.07686 16.9159 3.5 15.8394 3.5V5.5ZM8.16065 3.5C7.08407 3.5 6.09004 4.07686 5.55592 5.01158L7.2924 6.00386C7.47044 5.69229 7.80179 5.5 8.16065 5.5V3.5ZM2.35982 8.76822L5.08168 11.0364L6.36205 9.5L3.64018 7.23178L2.35982 8.76822ZM6.36205 11.5H17.6379V9.5H6.36205V11.5ZM18.9183 11.0364L21.6402 8.76822L20.3598 7.23178L17.6379 9.5L18.9183 11.0364ZM17.6379 11.5C18.1058 11.5 18.5589 11.336 18.9183 11.0364L17.638 9.5L17.6379 9.5V11.5ZM5.08168 11.0364C5.44111 11.336 5.89418 11.5 6.36205 11.5V9.5L5.08168 11.0364ZM6.5 15H6.51V13H6.5V15ZM6 14C6 13.7239 6.22386 13.5 6.5 13.5V15.5C7.32843 15.5 8 14.8284 8 14H6ZM6.5 13.5C6.77614 13.5 7 13.7239 7 14H5C5 14.8284 5.67157 15.5 6.5 15.5V13.5ZM7 14C7 14.2761 6.77614 14.5 6.5 14.5V12.5C5.67157 12.5 5 13.1716 5 14H7ZM6.5 14.5C6.22386 14.5 6 14.2761 6 14H8C8 13.1716 7.32843 12.5 6.5 12.5V14.5ZM17.5 15H17.51V13H17.5V15ZM17 14C17 13.7239 17.2239 13.5 17.5 13.5V15.5C18.3284 15.5 19 14.8284 19 14H17ZM17.5 13.5C17.7761 13.5 18 13.7239 18 14H16C16 14.8284 16.6716 15.5 17.5 15.5V13.5ZM18 14C18 14.2761 17.7761 14.5 17.5 14.5V12.5C16.6716 12.5 16 13.1716 16 14H18ZM17.5 14.5C17.2239 14.5 17 14.2761 17 14H19C19 13.1716 18.3284 12.5 17.5 12.5V14.5Z" fill="black"/>
</svg>
