<svg width="24" height="24" viewBox="0 0 24 24" fill="none" xmlns="http://www.w3.org/2000/svg">
<path d="M5 3V2C4.71556 2 4.44457 2.12113 4.25487 2.33308C4.06517 2.54503 3.9747 2.82773 4.00612 3.11043L5 3ZM19 3L19.9939 3.11043C20.0253 2.82773 19.9348 2.54503 19.7451 2.33308C19.5554 2.12113 19.2844 2 19 2V3ZM17.1977 19.2209L16.2038 19.1104L17.1977 19.2209ZM5 4H19V2H5V4ZM15.2099 20H8.79009V22H15.2099V20ZM18.0061 2.88957L17.3394 8.88957L19.3272 9.11043L19.9939 3.11043L18.0061 2.88957ZM17.3394 8.88957L16.2038 19.1104L18.1916 19.3313L19.3272 9.11043L17.3394 8.88957ZM7.7962 19.1104L6.66055 8.88957L4.67278 9.11043L5.80843 19.3313L7.7962 19.1104ZM6.66055 8.88957L5.99388 2.88957L4.00612 3.11043L4.67278 9.11043L6.66055 8.88957ZM18.3333 8H5.66667V10H18.3333V8ZM8.79009 20C8.28054 20 7.85247 19.6169 7.7962 19.1104L5.80843 19.3313C5.97725 20.8506 7.26144 22 8.79009 22V20ZM15.2099 22C16.7386 22 18.0228 20.8506 18.1916 19.3313L16.2038 19.1104C16.1475 19.6169 15.7195 20 15.2099 20V22Z" fill="black"/>
</svg>
