<svg width="24" height="24" viewBox="0 0 24 24" fill="none" xmlns="http://www.w3.org/2000/svg">
<path d="M5 3L5.50387 2.13622C5.19458 1.9558 4.81243 1.95452 4.50194 2.13286C4.19145 2.3112 4 2.64193 4 3H5ZM13 11C13 10.4477 12.5523 10 12 10C11.4477 10 11 10.4477 11 11H13ZM11 12C11 12.5523 11.4477 13 12 13C12.5523 13 13 12.5523 13 12H11ZM9.5 9C9.5 8.44772 9.05228 8 8.5 8C7.94772 8 7.5 8.44772 7.5 9H9.5ZM7.5 9.01C7.5 9.56228 7.94772 10.01 8.5 10.01C9.05228 10.01 9.5 9.56228 9.5 9.01H7.5ZM9.5 13.5C9.5 12.9477 9.05228 12.5 8.5 12.5C7.94772 12.5 7.5 12.9477 7.5 13.5H9.5ZM7.5 13.51C7.5 14.0623 7.94772 14.51 8.5 14.51C9.05228 14.51 9.5 14.0623 9.5 13.51H7.5ZM4.75839 20.9984L4.77155 19.9985L4.75839 20.9984ZM19.9499 9.38743L20.4537 8.52365L19.9499 9.38743ZM20.6801 11.8458L21.5506 12.338L20.6801 11.8458ZM20.4537 8.52365L20.2365 8.39693L19.2288 10.1245L19.446 10.2512L20.4537 8.52365ZM19.8096 11.3537C16.89 16.5178 11.351 20 5 20V22C12.1009 22 18.2907 18.1041 21.5506 12.338L19.8096 11.3537ZM2 18.8649V19.1277H4V18.8649H2ZM5 20C4.92372 20 4.84757 19.9995 4.77155 19.9985L4.74524 21.9983C4.83003 21.9994 4.91495 22 5 22V20ZM4 3V17H6V3H4ZM17.5987 9.19156L5.50387 2.13622L4.49613 3.86378L16.591 10.9191L17.5987 9.19156ZM16.2316 9.55066C13.9751 13.4106 9.78935 16 5 16V18C10.5288 18 15.3578 15.0082 17.9582 10.56L16.2316 9.55066ZM11 11V12H13V11H11ZM7.5 9V9.01H9.5V9H7.5ZM7.5 13.5V13.51H9.5V13.5H7.5ZM2 19.1277C2 20.6138 3.13292 21.9771 4.74524 21.9983L4.77155 19.9985C4.37764 19.9933 4 19.648 4 19.1277H2ZM5 16C3.48151 16 2 17.1651 2 18.8649H4C4 18.4466 4.40038 18 5 18V16ZM19.446 10.2512C19.8951 10.5132 20.0026 11.0123 19.8096 11.3537L21.5506 12.338C22.3438 10.9349 21.7355 9.27136 20.4537 8.52365L19.446 10.2512ZM20.2365 8.39693C18.7603 7.53582 17.0004 8.23543 16.2316 9.55066L17.9582 10.56C18.2659 10.0337 18.8623 9.91073 19.2288 10.1245L20.2365 8.39693Z" fill="black"/>
</svg>
