<svg width="24" height="24" viewBox="0 0 24 24" fill="none" xmlns="http://www.w3.org/2000/svg">
<path d="M16 6V4.28432C16 3.5158 16 3.13154 15.8387 2.88314C15.6976 2.6658 15.4776 2.51172 15.2252 2.45338C14.9366 2.3867 14.5755 2.51801 13.8532 2.78065L6.57982 5.42552C6.01064 5.6325 5.72605 5.73598 5.51615 5.91838C5.33073 6.07948 5.18772 6.28366 5.09968 6.51297C5 6.77257 5 7.07539 5 7.68103V12M9 17H15M9 13.5H15M9 10H15M8.2 21H15.8C16.9201 21 17.4802 21 17.908 20.782C18.2843 20.5903 18.5903 20.2843 18.782 19.908C19 19.4802 19 18.9201 19 17.8V9.2C19 8.0799 19 7.51984 18.782 7.09202C18.5903 6.7157 18.2843 6.40974 17.908 6.21799C17.4802 6 16.9201 6 15.8 6H8.2C7.0799 6 6.51984 6 6.09202 6.21799C5.71569 6.40974 5.40973 6.7157 5.21799 7.09202C5 7.51984 5 8.0799 5 9.2V17.8C5 18.9201 5 19.4802 5.21799 19.908C5.40973 20.2843 5.71569 20.5903 6.09202 20.782C6.51984 21 7.07989 21 8.2 21Z" stroke="black" stroke-width="2" stroke-linecap="round" stroke-linejoin="round"/>
</svg>
