<svg width="24" height="24" viewBox="0 0 24 24" fill="none" xmlns="http://www.w3.org/2000/svg">
<path d="M12.0002 12.0007H13.0002C13.0002 11.4484 12.5525 11.0007 12.0002 11.0007V12.0007ZM11.0002 10.0007C11.0002 9.44845 10.5525 9.00073 10.0002 9.00073C9.44794 9.00073 9.00022 9.44845 9.00022 10.0007H11.0002ZM11.0002 21.0007C11.0002 21.553 11.4479 22.0007 12.0002 22.0007C12.5525 22.0007 13.0002 21.553 13.0002 21.0007H11.0002ZM16.95 5.05095C16.5595 4.66043 15.9263 4.66043 15.5358 5.05095C15.1453 5.44147 15.1453 6.07464 15.5358 6.46516L16.95 5.05095ZM16.7034 11.702C16.516 12.2215 16.7852 12.7946 17.3047 12.982C17.8242 13.1695 18.3973 12.9003 18.5847 12.3808L16.7034 11.702ZM19.7786 2.22258C19.3881 1.83206 18.7549 1.83206 18.3644 2.22258C17.9739 2.61311 17.9739 3.24627 18.3644 3.63679L19.7786 2.22258ZM19.777 14.5361C19.4984 15.013 19.6591 15.6254 20.136 15.904C20.6129 16.1826 21.2253 16.0219 21.5039 15.545L19.777 14.5361ZM7.05047 14.9504C7.441 15.341 8.07416 15.341 8.46469 14.9504C8.85521 14.5599 8.85521 13.9268 8.46469 13.5362L7.05047 14.9504ZM7.72752 7.40111C8.01504 6.92957 7.86586 6.31423 7.39432 6.02671C6.92278 5.73919 6.30744 5.88836 6.01992 6.3599L7.72752 7.40111ZM4.22183 17.7789C4.61235 18.1695 5.24551 18.1695 5.63604 17.7789C6.02656 17.3884 6.02656 16.7552 5.63604 16.3647L4.22183 17.7789ZM4.79823 4.601C5.13016 4.15959 5.0414 3.53268 4.59999 3.20075C4.15858 2.86883 3.53166 2.95758 3.19974 3.399L4.79823 4.601ZM3.70711 2.29289C3.31658 1.90237 2.68342 1.90237 2.29289 2.29289C1.90237 2.68342 1.90237 3.31658 2.29289 3.70711L3.70711 2.29289ZM20.2929 21.7071C20.6834 22.0976 21.3166 22.0976 21.7071 21.7071C22.0976 21.3166 22.0976 20.6834 21.7071 20.2929L20.2929 21.7071ZM12.0002 11.0007C11.4479 11.0007 11.0002 10.553 11.0002 10.0007H9.00022C9.00022 11.6576 10.3434 13.0007 12.0002 13.0007V11.0007ZM13.0002 21.0007V12.0007H11.0002V21.0007H13.0002ZM15.5358 6.46516C16.9506 7.87994 17.3417 9.93305 16.7034 11.702L18.5847 12.3808C19.4762 9.91002 18.9333 7.03421 16.95 5.05095L15.5358 6.46516ZM18.3644 3.63679C21.3183 6.59068 21.7906 11.0893 19.777 14.5361L21.5039 15.545C23.9647 11.3328 23.3911 5.83507 19.7786 2.22258L18.3644 3.63679ZM8.46469 13.5362C6.80099 11.8725 6.55391 9.32585 7.72752 7.40111L6.01992 6.3599C4.37691 9.05448 4.71906 12.619 7.05047 14.9504L8.46469 13.5362ZM5.63604 16.3647C2.42747 13.1561 2.1476 8.12595 4.79823 4.601L3.19974 3.399C-0.0411949 7.70896 0.298902 13.856 4.22183 17.7789L5.63604 16.3647ZM2.29289 3.70711L20.2929 21.7071L21.7071 20.2929L3.70711 2.29289L2.29289 3.70711Z" fill="black"/>
</svg>
