<svg width="20" height="19" viewBox="0 0 20 19" fill="none" xmlns="http://www.w3.org/2000/svg">
<path d="M19 11V12H20V11H19ZM11 10C10.4477 10 9.99998 10.4477 9.99998 11C9.99998 11.5523 10.4477 12 11 12V10ZM14.5029 2.25722L15.4313 1.88583V1.88583L14.5029 2.25722ZM7.00001 5C6.44773 5 6.00001 5.44772 6.00001 6C6.00001 6.55228 6.44773 7 7.00001 7V5ZM4.18052 1.28124C3.864 1.73382 3.9743 2.3573 4.42689 2.67382C4.87947 2.99035 5.50296 2.88004 5.81948 2.42746L4.18052 1.28124ZM8 15V16H9V15H8ZM1 4C0.447715 4 0 4.44772 0 5C0 5.55228 0.447715 6 1 6V4ZM1 9C0.447715 9 0 9.44771 0 10C0 10.5523 0.447715 11 1 11L1 9ZM1 14C0.447715 14 0 14.4477 0 15C0 15.5523 0.447715 16 1 16L1 14ZM3.50289 6.25722L4.43136 5.88583H4.43136L3.50289 6.25722ZM20 11V8H18V11H20ZM17 5H16V7H17V5ZM13.5744 2.62861L15.0715 6.37139L16.9285 5.62861L15.4313 1.88583L13.5744 2.62861ZM6.63958 2L9.99998 2V0L6.63958 0V2ZM9.99998 2L12.6459 2V0L9.99998 0V2ZM16 5H9.99998V7H16V5ZM8.99998 1V6L11 6V1H8.99998ZM19 10L16.7314 10V12L19 12V10ZM13.2685 10H11V12H13.2685V10ZM15 9C13.3492 9 12 10.3417 12 12H14C14 11.4492 14.4508 11 15 11V9ZM12 12C12 13.6569 13.3431 15 15 15V13C14.4477 13 14 12.5523 14 12H12ZM15 15C16.6568 15 18 13.6569 18 12L16 12C16 12.5523 15.5523 13 15 13V15ZM18 12C18 10.3417 16.6508 9 15 9V11C15.5492 11 16 11.4492 16 12L18 12ZM15.4313 1.88583C14.9758 0.746853 13.8726 0 12.6459 0V2C13.0548 2 13.4225 2.24895 13.5744 2.62861L15.4313 1.88583ZM20 8C20 6.34315 18.6568 5 17 5V7C17.5523 7 18 7.44772 18 8H20ZM9.99998 5C9.99686 5 9.99376 5 9.99066 5C9.98755 5 9.98446 5 9.98137 5C9.97828 5 9.97519 5 9.97212 5C9.96904 5 9.96596 5 9.9629 5C9.95983 5 9.95677 5 9.95371 5C9.95065 5 9.9476 5 9.94456 5C9.94151 5 9.93847 5 9.93544 5C9.9324 5 9.92937 5 9.92635 5C9.92332 5 9.92031 5 9.91729 5C9.91428 5 9.91127 5 9.90827 5C9.90527 5 9.90227 5 9.89928 5C9.89629 5 9.89331 5 9.89033 5C9.88735 5 9.88437 5 9.8814 5C9.87843 5 9.87547 5 9.87251 5C9.86955 5 9.8666 5 9.86365 5C9.8607 5 9.85776 5 9.85482 5C9.85188 5 9.84895 5 9.84602 5C9.8431 5 9.84018 5 9.83726 5C9.83434 5 9.83143 5 9.82853 5C9.82562 5 9.82272 5 9.81983 5C9.81693 5 9.81404 5 9.81116 5C9.80827 5 9.80539 5 9.80252 5C9.79964 5 9.79678 5 9.79391 5C9.79105 5 9.78819 5 9.78534 5C9.78248 5 9.77963 5 9.77679 5C9.77395 5 9.77111 5 9.76828 5C9.76544 5 9.76262 5 9.75979 5C9.75697 5 9.75415 5 9.75134 5C9.74853 5 9.74572 5 9.74292 5C9.74011 5 9.73732 5 9.73452 5C9.73173 5 9.72894 5 9.72616 5C9.72338 5 9.7206 5 9.71783 5C9.71506 5 9.71229 5 9.70953 5C9.70677 5 9.70401 5 9.70126 5C9.6985 5 9.69576 5 9.69301 5C9.69027 5 9.68753 5 9.6848 5C9.68207 5 9.67934 5 9.67662 5C9.6739 5 9.67118 5 9.66846 5C9.66575 5 9.66304 5 9.66034 5C9.65764 5 9.65494 5 9.65225 5C9.64955 5 9.64686 5 9.64418 5C9.6415 5 9.63882 5 9.63614 5C9.63347 5 9.6308 5 9.62813 5C9.62547 5 9.62281 5 9.62015 5C9.6175 5 9.61485 5 9.6122 5C9.60956 5 9.60692 5 9.60428 5C9.60164 5 9.59901 5 9.59639 5C9.59376 5 9.59114 5 9.58852 5C9.5859 5 9.58329 5 9.58068 5C9.57807 5 9.57547 5 9.57287 5C9.57027 5 9.56768 5 9.56509 5C9.5625 5 9.55992 5 9.55733 5C9.55476 5 9.55218 5 9.54961 5C9.54704 5 9.54447 5 9.54191 5C9.53935 5 9.53679 5 9.53424 5C9.53168 5 9.52914 5 9.52659 5C9.52405 5 9.52151 5 9.51898 5C9.51644 5 9.51391 5 9.51138 5C9.50886 5 9.50634 5 9.50382 5C9.5013 5 9.49879 5 9.49628 5C9.49378 5 9.49127 5 9.48878 5C9.48628 5 9.48378 5 9.48129 5C9.4788 5 9.47632 5 9.47383 5C9.47135 5 9.46888 5 9.4664 5C9.46393 5 9.46146 5 9.459 5C9.45654 5 9.45408 5 9.45162 5C9.44917 5 9.44672 5 9.44427 5C9.44182 5 9.43938 5 9.43694 5C9.4345 5 9.43207 5 9.42964 5C9.42721 5 9.42479 5 9.42237 5C9.41995 5 9.41753 5 9.41512 5C9.4127 5 9.4103 5 9.40789 5C9.40549 5 9.40309 5 9.40069 5C9.3983 5 9.39591 5 9.39352 5C9.39113 5 9.38875 5 9.38637 5C9.38399 5 9.38162 5 9.37925 5C9.37688 5 9.37451 5 9.37215 5C9.36979 5 9.36743 5 9.36507 5C9.36272 5 9.36037 5 9.35802 5C9.35568 5 9.35334 5 9.351 5C9.34866 5 9.34633 5 9.344 5C9.34167 5 9.33934 5 9.33702 5C9.3347 5 9.33238 5 9.33007 5C9.32775 5 9.32544 5 9.32314 5C9.32083 5 9.31853 5 9.31623 5C9.31394 5 9.31164 5 9.30935 5C9.30706 5 9.30478 5 9.30249 5C9.30021 5 9.29793 5 9.29566 5C9.29339 5 9.29112 5 9.28885 5C9.28658 5 9.28432 5 9.28206 5C9.2798 5 9.27755 5 9.2753 5C9.27305 5 9.2708 5 9.26856 5C9.26631 5 9.26407 5 9.26184 5C9.2596 5 9.25737 5 9.25514 5C9.25291 5 9.25069 5 9.24847 5C9.24625 5 9.24403 5 9.24182 5C9.2396 5 9.2374 5 9.23519 5C9.23298 5 9.23078 5 9.22858 5C9.22639 5 9.22419 5 9.222 5C9.21981 5 9.21762 5 9.21544 5C9.21325 5 9.21108 5 9.2089 5C9.20672 5 9.20455 5 9.20238 5C9.20021 5 9.19805 5 9.19589 5C9.19372 5 9.19157 5 9.18941 5C9.18726 5 9.18511 5 9.18296 5C9.18081 5 9.17867 5 9.17653 5C9.17439 5 9.17225 5 9.17012 5C9.16798 5 9.16585 5 9.16373 5C9.1616 5 9.15948 5 9.15736 5C9.15524 5 9.15312 5 9.15101 5C9.1489 5 9.14679 5 9.14468 5C9.14258 5 9.14048 5 9.13838 5C9.13628 5 9.13418 5 9.13209 5C9.13 5 9.12791 5 9.12583 5C9.12374 5 9.12166 5 9.11958 5C9.11751 5 9.11543 5 9.11336 5C9.11129 5 9.10922 5 9.10715 5C9.10509 5 9.10303 5 9.10097 5C9.09891 5 9.09686 5 9.0948 5C9.09275 5 9.0907 5 9.08866 5C9.08661 5 9.08457 5 9.08253 5C9.0805 5 9.07846 5 9.07643 5C9.0744 5 9.07237 5 9.07034 5C9.06832 5 9.06629 5 9.06427 5C9.06225 5 9.06024 5 9.05823 5C9.05621 5 9.0542 5 9.0522 5C9.05019 5 9.04819 5 9.04619 5C9.04419 5 9.04219 5 9.04019 5C9.0382 5 9.03621 5 9.03422 5C9.03223 5 9.03025 5 9.02827 5C9.02629 5 9.02431 5 9.02233 5C9.02036 5 9.01838 5 9.01641 5C9.01444 5 9.01248 5 9.01051 5C9.00855 5 9.00659 5 9.00463 5C9.00267 5 9.00072 5 8.99877 5C8.99682 5 8.99487 5 8.99292 5C8.99098 5 8.98903 5 8.98709 5C8.98515 5 8.98322 5 8.98128 5C8.97935 5 8.97742 5 8.97549 5C8.97356 5 8.97164 5 8.96971 5C8.96779 5 8.96587 5 8.96395 5C8.96204 5 8.96012 5 8.95821 5C8.9563 5 8.95439 5 8.95249 5C8.95058 5 8.94868 5 8.94678 5C8.94488 5 8.94298 5 8.94109 5C8.9392 5 8.9373 5 8.93542 5C8.93353 5 8.93164 5 8.92976 5C8.92787 5 8.92599 5 8.92412 5C8.92224 5 8.92036 5 8.91849 5C8.91662 5 8.91475 5 8.91288 5C8.91102 5 8.90915 5 8.90729 5C8.90543 5 8.90357 5 8.90171 5C8.89986 5 8.898 5 8.89615 5C8.8943 5 8.89245 5 8.89061 5C8.88876 5 8.88692 5 8.88508 5C8.88323 5 8.8814 5 8.87956 5C8.87773 5 8.87589 5 8.87406 5C8.87223 5 8.8704 5 8.86858 5C8.86675 5 8.86493 5 8.86311 5C8.86129 5 8.85947 5 8.85765 5C8.85584 5 8.85403 5 8.85222 5C8.8504 5 8.8486 5 8.84679 5C8.84499 5 8.84318 5 8.84138 5C8.83958 5 8.83778 5 8.83599 5C8.83419 5 8.8324 5 8.8306 5C8.82881 5 8.82702 5 8.82524 5C8.82345 5 8.82167 5 8.81989 5C8.8181 5 8.81632 5 8.81455 5C8.81277 5 8.81099 5 8.80922 5C8.80745 5 8.80568 5 8.80391 5C8.80214 5 8.80038 5 8.79861 5C8.79685 5 8.79509 5 8.79333 5C8.79157 5 8.78981 5 8.78806 5C8.78631 5 8.78455 5 8.7828 5C8.78105 5 8.7793 5 8.77756 5C8.77581 5 8.77407 5 8.77233 5C8.77059 5 8.76885 5 8.76711 5C8.76537 5 8.76364 5 8.76191 5C8.76017 5 8.75844 5 8.75671 5C8.75499 5 8.75326 5 8.75153 5C8.74981 5 8.74809 5 8.74637 5C8.74465 5 8.74293 5 8.74121 5C8.7395 5 8.73778 5 8.73607 5C8.73436 5 8.73265 5 8.73094 5C8.72923 5 8.72753 5 8.72582 5C8.72412 5 8.72242 5 8.72072 5C8.71902 5 8.71732 5 8.71562 5C8.71392 5 8.71223 5 8.71054 5C8.70885 5 8.70715 5 8.70547 5C8.70378 5 8.70209 5 8.70041 5C8.69872 5 8.69704 5 8.69536 5C8.69368 5 8.692 5 8.69032 5C8.68864 5 8.68697 5 8.68529 5C8.68362 5 8.68195 5 8.68028 5C8.67861 5 8.67694 5 8.67527 5C8.67361 5 8.67194 5 8.67028 5C8.66862 5 8.66695 5 8.6653 5C8.66364 5 8.66198 5 8.66032 5C8.65867 5 8.65701 5 8.65536 5C8.65371 5 8.65206 5 8.65041 5C8.64876 5 8.64711 5 8.64546 5C8.64382 5 8.64218 5 8.64053 5C8.63889 5 8.63725 5 8.63561 5C8.63397 5 8.63233 5 8.6307 5C8.62906 5 8.62743 5 8.62579 5C8.62416 5 8.62253 5 8.6209 5C8.61927 5 8.61764 5 8.61602 5C8.61439 5 8.61277 5 8.61114 5C8.60952 5 8.6079 5 8.60628 5C8.60466 5 8.60304 5 8.60142 5C8.5998 5 8.59819 5 8.59657 5C8.59496 5 8.59335 5 8.59173 5C8.59012 5 8.58851 5 8.5869 5C8.58529 5 8.58369 5 8.58208 5C8.58048 5 8.57887 5 8.57727 5C8.57567 5 8.57406 5 8.57246 5C8.57086 5 8.56926 5 8.56767 5C8.56607 5 8.56447 5 8.56288 5C8.56128 5 8.55969 5 8.5581 5C8.55651 5 8.55492 5 8.55333 5C8.55174 5 8.55015 5 8.54856 5C8.54697 5 8.54539 5 8.5438 5C8.54222 5 8.54064 5 8.53905 5C8.53747 5 8.53589 5 8.53431 5C8.53273 5 8.53115 5 8.52958 5C8.528 5 8.52642 5 8.52485 5C8.52327 5 8.5217 5 8.52013 5C8.51856 5 8.51698 5 8.51541 5C8.51384 5 8.51228 5 8.51071 5C8.50914 5 8.50757 5 8.50601 5C8.50444 5 8.50288 5 8.50131 5C8.49975 5 8.49819 5 8.49663 5C8.49506 5 8.4935 5 8.49194 5C8.49039 5 8.48883 5 8.48727 5C8.48571 5 8.48416 5 8.4826 5C8.48105 5 8.47949 5 8.47794 5C8.47638 5 8.47483 5 8.47328 5C8.47173 5 8.47018 5 8.46863 5C8.46708 5 8.46553 5 8.46398 5C8.46244 5 8.46089 5 8.45934 5C8.4578 5 8.45625 5 8.45471 5C8.45317 5 8.45162 5 8.45008 5C8.44854 5 8.447 5 8.44546 5C8.44391 5 8.44237 5 8.44084 5C8.4393 5 8.43776 5 8.43622 5C8.43468 5 8.43315 5 8.43161 5C8.43008 5 8.42854 5 8.42701 5C8.42547 5 8.42394 5 8.42241 5C8.42087 5 8.41934 5 8.41781 5C8.41628 5 8.41475 5 8.41322 5C8.41169 5 8.41016 5 8.40863 5C8.4071 5 8.40557 5 8.40405 5C8.40252 5 8.40099 5 8.39947 5C8.39794 5 8.39642 5 8.39489 5C8.39337 5 8.39184 5 8.39032 5C8.3888 5 8.38727 5 8.38575 5C8.38423 5 8.38271 5 8.38119 5C8.37967 5 8.37815 5 8.37663 5C8.37511 5 8.37359 5 8.37207 5C8.37055 5 8.36903 5 8.36751 5C8.366 5 8.36448 5 8.36296 5C8.36144 5 8.35993 5 8.35841 5C8.3569 5 8.35538 5 8.35387 5C8.35235 5 8.35084 5 8.34932 5C8.34781 5 8.34629 5 8.34478 5C8.34327 5 8.34175 5 8.34024 5C8.33873 5 8.33722 5 8.33571 5C8.33419 5 8.33268 5 8.33117 5C8.32966 5 8.32815 5 8.32664 5C8.32513 5 8.32362 5 8.32211 5C8.3206 5 8.31909 5 8.31758 5C8.31607 5 8.31456 5 8.31305 5C8.31155 5 8.31004 5 8.30853 5C8.30702 5 8.30551 5 8.30401 5C8.3025 5 8.30099 5 8.29948 5C8.29798 5 8.29647 5 8.29496 5C8.29346 5 8.29195 5 8.29044 5C8.28894 5 8.28743 5 8.28592 5C8.28442 5 8.28291 5 8.28141 5C8.2799 5 8.27839 5 8.27689 5C8.27538 5 8.27388 5 8.27237 5C8.27087 5 8.26936 5 8.26786 5C8.26635 5 8.26484 5 8.26334 5C8.26183 5 8.26033 5 8.25882 5C8.25732 5 8.25581 5 8.25431 5C8.2528 5 8.2513 5 8.24979 5C8.24829 5 8.24678 5 8.24528 5C8.24377 5 8.24227 5 8.24076 5C8.23926 5 8.23775 5 8.23625 5C8.23474 5 8.23324 5 8.23173 5C8.23023 5 8.22872 5 8.22721 5C8.22571 5 8.2242 5 8.2227 5C8.22119 5 8.21969 5 8.21818 5C8.21667 5 8.21517 5 8.21366 5C8.21215 5 8.21065 5 8.20914 5C8.20763 5 8.20613 5 8.20462 5C8.20311 5 8.2016 5 8.2001 5C8.19859 5 8.19708 5 8.19557 5C8.19407 5 8.19256 5 8.19105 5C8.18954 5 8.18803 5 8.18652 5C8.18501 5 8.1835 5 8.18199 5C8.18048 5 8.17897 5 8.17746 5C8.17595 5 8.17444 5 8.17293 5C8.17142 5 8.16991 5 8.1684 5C8.16688 5 8.16537 5 8.16386 5C8.16235 5 8.16083 5 8.15932 5C8.15781 5 8.15629 5 8.15478 5C8.15326 5 8.15175 5 8.15023 5C8.14872 5 8.1472 5 8.14569 5C8.14417 5 8.14266 5 8.14114 5C8.13962 5 8.1381 5 8.13659 5C8.13507 5 8.13355 5 8.13203 5C8.13051 5 8.12899 5 8.12747 5C8.12595 5 8.12443 5 8.12291 5C8.12139 5 8.11987 5 8.11835 5C8.11682 5 8.1153 5 8.11378 5C8.11225 5 8.11073 5 8.10921 5C8.10768 5 8.10616 5 8.10463 5C8.1031 5 8.10158 5 8.10005 5C8.09852 5 8.09699 5 8.09547 5C8.09394 5 8.09241 5 8.09088 5C8.08935 5 8.08782 5 8.08629 5C8.08475 5 8.08322 5 8.08169 5C8.08016 5 8.07862 5 8.07709 5C8.07555 5 8.07402 5 8.07248 5C8.07095 5 8.06941 5 8.06787 5C8.06634 5 8.0648 5 8.06326 5C8.06172 5 8.06018 5 8.05864 5C8.0571 5 8.05556 5 8.05401 5C8.05247 5 8.05093 5 8.04938 5C8.04784 5 8.04629 5 8.04475 5C8.0432 5 8.04166 5 8.04011 5C8.03856 5 8.03701 5 8.03546 5C8.03391 5 8.03236 5 8.03081 5C8.02926 5 8.02771 5 8.02615 5C8.0246 5 8.02304 5 8.02149 5C8.01993 5 8.01838 5 8.01682 5C8.01526 5 8.0137 5 8.01214 5C8.01058 5 8.00902 5 8.00746 5C8.0059 5 8.00434 5 8.00277 5C8.00121 5 7.99965 5 7.99808 5C7.99651 5 7.99495 5 7.99338 5C7.99181 5 7.99024 5 7.98867 5C7.9871 5 7.98553 5 7.98396 5C7.98238 5 7.98081 5 7.97924 5C7.97766 5 7.97608 5 7.97451 5C7.97293 5 7.97135 5 7.96977 5C7.96819 5 7.96661 5 7.96503 5C7.96345 5 7.96186 5 7.96028 5C7.95869 5 7.95711 5 7.95552 5C7.95393 5 7.95234 5 7.95075 5C7.94916 5 7.94757 5 7.94598 5C7.94439 5 7.9428 5 7.9412 5C7.93961 5 7.93801 5 7.93641 5C7.93481 5 7.93321 5 7.93161 5C7.93001 5 7.92841 5 7.92681 5C7.92521 5 7.9236 5 7.92199 5C7.92039 5 7.91878 5 7.91717 5C7.91556 5 7.91395 5 7.91234 5C7.91073 5 7.90912 5 7.9075 5C7.90589 5 7.90427 5 7.90265 5C7.90104 5 7.89942 5 7.8978 5C7.89617 5 7.89455 5 7.89293 5C7.89131 5 7.88968 5 7.88805 5C7.88643 5 7.8848 5 7.88317 5C7.88154 5 7.87991 5 7.87827 5C7.87664 5 7.87501 5 7.87337 5C7.87173 5 7.8701 5 7.86846 5C7.86682 5 7.86518 5 7.86353 5C7.86189 5 7.86025 5 7.8586 5C7.85695 5 7.85531 5 7.85366 5C7.85201 5 7.85036 5 7.8487 5C7.84705 5 7.8454 5 7.84374 5C7.84208 5 7.84043 5 7.83877 5C7.83711 5 7.83545 5 7.83378 5C7.83212 5 7.83045 5 7.82879 5C7.82712 5 7.82545 5 7.82378 5C7.82211 5 7.82044 5 7.81877 5C7.81709 5 7.81541 5 7.81374 5C7.81206 5 7.81038 5 7.8087 5C7.80702 5 7.80533 5 7.80365 5C7.80196 5 7.80028 5 7.79859 5C7.7969 5 7.79521 5 7.79352 5C7.79182 5 7.79013 5 7.78843 5C7.78674 5 7.78504 5 7.78334 5C7.78164 5 7.77993 5 7.77823 5C7.77652 5 7.77482 5 7.77311 5C7.7714 5 7.76969 5 7.76798 5C7.76626 5 7.76455 5 7.76283 5C7.76112 5 7.7594 5 7.75768 5C7.75596 5 7.75423 5 7.75251 5C7.75079 5 7.74906 5 7.74733 5C7.7456 5 7.74387 5 7.74214 5C7.7404 5 7.73867 5 7.73693 5C7.73519 5 7.73345 5 7.73171 5C7.72997 5 7.72823 5 7.72648 5C7.72473 5 7.72298 5 7.72123 5C7.71948 5 7.71773 5 7.71598 5C7.71422 5 7.71246 5 7.7107 5C7.70895 5 7.70718 5 7.70542 5C7.70366 5 7.70189 5 7.70012 5C7.69835 5 7.69658 5 7.69481 5C7.69304 5 7.69126 5 7.68948 5C7.68771 5 7.68593 5 7.68414 5C7.68236 5 7.68058 5 7.67879 5C7.677 5 7.67521 5 7.67342 5C7.67163 5 7.66984 5 7.66804 5C7.66624 5 7.66444 5 7.66264 5C7.66084 5 7.65904 5 7.65723 5C7.65543 5 7.65362 5 7.65181 5C7.65 5 7.64818 5 7.64637 5C7.64455 5 7.64273 5 7.64091 5C7.63909 5 7.63727 5 7.63544 5C7.63361 5 7.63179 5 7.62995 5C7.62812 5 7.62629 5 7.62445 5C7.62262 5 7.62078 5 7.61894 5C7.6171 5 7.61525 5 7.61341 5C7.61156 5 7.60971 5 7.60786 5C7.60601 5 7.60415 5 7.6023 5C7.60044 5 7.59858 5 7.59672 5C7.59486 5 7.59299 5 7.59112 5C7.58926 5 7.58739 5 7.58551 5C7.58364 5 7.58177 5 7.57989 5C7.57801 5 7.57613 5 7.57424 5C7.57236 5 7.57047 5 7.56858 5C7.5667 5 7.5648 5 7.56291 5C7.56101 5 7.55912 5 7.55722 5C7.55532 5 7.55341 5 7.55151 5C7.5496 5 7.54769 5 7.54578 5C7.54387 5 7.54195 5 7.54004 5C7.53812 5 7.5362 5 7.53428 5C7.53235 5 7.53043 5 7.5285 5C7.52657 5 7.52464 5 7.52271 5C7.52077 5 7.51883 5 7.51689 5C7.51495 5 7.51301 5 7.51106 5C7.50912 5 7.50717 5 7.50522 5C7.50326 5 7.50131 5 7.49935 5C7.49739 5 7.49543 5 7.49347 5C7.4915 5 7.48954 5 7.48757 5C7.4856 5 7.48362 5 7.48165 5C7.47967 5 7.47769 5 7.47571 5C7.47373 5 7.47174 5 7.46975 5C7.46776 5 7.46577 5 7.46378 5C7.46178 5 7.45979 5 7.45778 5C7.45578 5 7.45378 5 7.45177 5C7.44977 5 7.44775 5 7.44574 5C7.44373 5 7.44171 5 7.43969 5C7.43767 5 7.43565 5 7.43362 5C7.4316 5 7.42957 5 7.42753 5C7.4255 5 7.42347 5 7.42143 5C7.41939 5 7.41734 5 7.4153 5C7.41325 5 7.4112 5 7.40915 5C7.4071 5 7.40504 5 7.40299 5C7.40093 5 7.39886 5 7.3968 5C7.39473 5 7.39266 5 7.39059 5C7.38852 5 7.38645 5 7.38437 5C7.38229 5 7.38021 5 7.37812 5C7.37603 5 7.37395 5 7.37185 5C7.36976 5 7.36767 5 7.36557 5C7.36347 5 7.36136 5 7.35926 5C7.35715 5 7.35504 5 7.35293 5C7.35082 5 7.3487 5 7.34658 5C7.34446 5 7.34234 5 7.34021 5C7.33808 5 7.33595 5 7.33382 5C7.33169 5 7.32955 5 7.32741 5C7.32527 5 7.32312 5 7.32097 5C7.31883 5 7.31667 5 7.31452 5C7.31236 5 7.3102 5 7.30804 5C7.30588 5 7.30371 5 7.30154 5C7.29937 5 7.2972 5 7.29502 5C7.29285 5 7.29067 5 7.28848 5C7.2863 5 7.28411 5 7.28192 5C7.27973 5 7.27753 5 7.27533 5C7.27313 5 7.27093 5 7.26873 5C7.26652 5 7.26431 5 7.2621 5C7.25988 5 7.25766 5 7.25544 5C7.25322 5 7.251 5 7.24877 5C7.24654 5 7.24431 5 7.24207 5C7.23983 5 7.23759 5 7.23535 5C7.23311 5 7.23086 5 7.22861 5C7.22635 5 7.2241 5 7.22184 5C7.21958 5 7.21732 5 7.21505 5C7.21278 5 7.21051 5 7.20824 5C7.20596 5 7.20368 5 7.2014 5C7.19912 5 7.19683 5 7.19454 5C7.19225 5 7.18996 5 7.18766 5C7.18536 5 7.18306 5 7.18075 5C7.17844 5 7.17613 5 7.17382 5C7.1715 5 7.16919 5 7.16686 5C7.16454 5 7.16222 5 7.15988 5C7.15755 5 7.15522 5 7.15288 5C7.15054 5 7.1482 5 7.14585 5C7.14351 5 7.14116 5 7.1388 5C7.13645 5 7.13409 5 7.13173 5C7.12936 5 7.127 5 7.12462 5C7.12225 5 7.11988 5 7.1175 5C7.11512 5 7.11273 5 7.11035 5C7.10796 5 7.10557 5 7.10317 5C7.10077 5 7.09837 5 7.09597 5C7.09356 5 7.09116 5 7.08874 5C7.08633 5 7.08391 5 7.08149 5C7.07907 5 7.07664 5 7.07421 5C7.07178 5 7.06935 5 7.06691 5C7.06447 5 7.06203 5 7.05958 5C7.05713 5 7.05468 5 7.05223 5C7.04977 5 7.04731 5 7.04485 5C7.04238 5 7.03991 5 7.03744 5C7.03497 5 7.03249 5 7.03001 5C7.02752 5 7.02504 5 7.02255 5C7.02006 5 7.01756 5 7.01506 5C7.01256 5 7.01006 5 7.00755 5C7.00504 5 7.00253 5 7.00001 5V7C7.00253 7 7.00504 7 7.00755 7C7.01006 7 7.01256 7 7.01506 7C7.01756 7 7.02006 7 7.02255 7C7.02504 7 7.02752 7 7.03001 7C7.03249 7 7.03497 7 7.03744 7C7.03991 7 7.04238 7 7.04485 7C7.04731 7 7.04977 7 7.05223 7C7.05468 7 7.05713 7 7.05958 7C7.06203 7 7.06447 7 7.06691 7C7.06935 7 7.07178 7 7.07421 7C7.07664 7 7.07907 7 7.08149 7C7.08391 7 7.08633 7 7.08874 7C7.09116 7 7.09356 7 7.09597 7C7.09837 7 7.10077 7 7.10317 7C7.10557 7 7.10796 7 7.11035 7C7.11273 7 7.11512 7 7.1175 7C7.11988 7 7.12225 7 7.12462 7C7.127 7 7.12936 7 7.13173 7C7.13409 7 7.13645 7 7.1388 7C7.14116 7 7.14351 7 7.14585 7C7.1482 7 7.15054 7 7.15288 7C7.15522 7 7.15755 7 7.15988 7C7.16222 7 7.16454 7 7.16686 7C7.16919 7 7.1715 7 7.17382 7C7.17613 7 7.17844 7 7.18075 7C7.18306 7 7.18536 7 7.18766 7C7.18996 7 7.19225 7 7.19454 7C7.19683 7 7.19912 7 7.2014 7C7.20368 7 7.20596 7 7.20824 7C7.21051 7 7.21278 7 7.21505 7C7.21732 7 7.21958 7 7.22184 7C7.2241 7 7.22635 7 7.22861 7C7.23086 7 7.23311 7 7.23535 7C7.23759 7 7.23983 7 7.24207 7C7.24431 7 7.24654 7 7.24877 7C7.251 7 7.25322 7 7.25544 7C7.25766 7 7.25988 7 7.2621 7C7.26431 7 7.26652 7 7.26873 7C7.27093 7 7.27313 7 7.27533 7C7.27753 7 7.27973 7 7.28192 7C7.28411 7 7.2863 7 7.28848 7C7.29067 7 7.29285 7 7.29502 7C7.2972 7 7.29937 7 7.30154 7C7.30371 7 7.30588 7 7.30804 7C7.3102 7 7.31236 7 7.31452 7C7.31667 7 7.31883 7 7.32097 7C7.32312 7 7.32527 7 7.32741 7C7.32955 7 7.33169 7 7.33382 7C7.33595 7 7.33808 7 7.34021 7C7.34234 7 7.34446 7 7.34658 7C7.3487 7 7.35082 7 7.35293 7C7.35504 7 7.35715 7 7.35926 7C7.36136 7 7.36347 7 7.36557 7C7.36767 7 7.36976 7 7.37185 7C7.37395 7 7.37603 7 7.37812 7C7.38021 7 7.38229 7 7.38437 7C7.38645 7 7.38852 7 7.39059 7C7.39266 7 7.39473 7 7.3968 7C7.39886 7 7.40093 7 7.40299 7C7.40504 7 7.4071 7 7.40915 7C7.4112 7 7.41325 7 7.4153 7C7.41734 7 7.41939 7 7.42143 7C7.42347 7 7.4255 7 7.42753 7C7.42957 7 7.4316 7 7.43362 7C7.43565 7 7.43767 7 7.43969 7C7.44171 7 7.44373 7 7.44574 7C7.44775 7 7.44977 7 7.45177 7C7.45378 7 7.45578 7 7.45778 7C7.45979 7 7.46178 7 7.46378 7C7.46577 7 7.46776 7 7.46975 7C7.47174 7 7.47373 7 7.47571 7C7.47769 7 7.47967 7 7.48165 7C7.48362 7 7.4856 7 7.48757 7C7.48954 7 7.4915 7 7.49347 7C7.49543 7 7.49739 7 7.49935 7C7.50131 7 7.50326 7 7.50522 7C7.50717 7 7.50912 7 7.51106 7C7.51301 7 7.51495 7 7.51689 7C7.51883 7 7.52077 7 7.52271 7C7.52464 7 7.52657 7 7.5285 7C7.53043 7 7.53235 7 7.53428 7C7.5362 7 7.53812 7 7.54004 7C7.54195 7 7.54387 7 7.54578 7C7.54769 7 7.5496 7 7.55151 7C7.55341 7 7.55532 7 7.55722 7C7.55912 7 7.56101 7 7.56291 7C7.5648 7 7.5667 7 7.56858 7C7.57047 7 7.57236 7 7.57424 7C7.57613 7 7.57801 7 7.57989 7C7.58177 7 7.58364 7 7.58551 7C7.58739 7 7.58926 7 7.59112 7C7.59299 7 7.59486 7 7.59672 7C7.59858 7 7.60044 7 7.6023 7C7.60415 7 7.60601 7 7.60786 7C7.60971 7 7.61156 7 7.61341 7C7.61525 7 7.6171 7 7.61894 7C7.62078 7 7.62262 7 7.62445 7C7.62629 7 7.62812 7 7.62995 7C7.63179 7 7.63361 7 7.63544 7C7.63727 7 7.63909 7 7.64091 7C7.64273 7 7.64455 7 7.64637 7C7.64818 7 7.65 7 7.65181 7C7.65362 7 7.65543 7 7.65723 7C7.65904 7 7.66084 7 7.66264 7C7.66444 7 7.66624 7 7.66804 7C7.66984 7 7.67163 7 7.67342 7C7.67521 7 7.677 7 7.67879 7C7.68058 7 7.68236 7 7.68414 7C7.68593 7 7.68771 7 7.68948 7C7.69126 7 7.69304 7 7.69481 7C7.69658 7 7.69835 7 7.70012 7C7.70189 7 7.70366 7 7.70542 7C7.70718 7 7.70895 7 7.7107 7C7.71246 7 7.71422 7 7.71598 7C7.71773 7 7.71948 7 7.72123 7C7.72298 7 7.72473 7 7.72648 7C7.72823 7 7.72997 7 7.73171 7C7.73345 7 7.73519 7 7.73693 7C7.73867 7 7.7404 7 7.74214 7C7.74387 7 7.7456 7 7.74733 7C7.74906 7 7.75079 7 7.75251 7C7.75423 7 7.75596 7 7.75768 7C7.7594 7 7.76112 7 7.76283 7C7.76455 7 7.76626 7 7.76798 7C7.76969 7 7.7714 7 7.77311 7C7.77482 7 7.77652 7 7.77823 7C7.77993 7 7.78164 7 7.78334 7C7.78504 7 7.78674 7 7.78843 7C7.79013 7 7.79182 7 7.79352 7C7.79521 7 7.7969 7 7.79859 7C7.80028 7 7.80196 7 7.80365 7C7.80533 7 7.80702 7 7.8087 7C7.81038 7 7.81206 7 7.81374 7C7.81541 7 7.81709 7 7.81877 7C7.82044 7 7.82211 7 7.82378 7C7.82545 7 7.82712 7 7.82879 7C7.83045 7 7.83212 7 7.83378 7C7.83545 7 7.83711 7 7.83877 7C7.84043 7 7.84208 7 7.84374 7C7.8454 7 7.84705 7 7.8487 7C7.85036 7 7.85201 7 7.85366 7C7.85531 7 7.85695 7 7.8586 7C7.86025 7 7.86189 7 7.86353 7C7.86518 7 7.86682 7 7.86846 7C7.8701 7 7.87173 7 7.87337 7C7.87501 7 7.87664 7 7.87827 7C7.87991 7 7.88154 7 7.88317 7C7.8848 7 7.88643 7 7.88805 7C7.88968 7 7.89131 7 7.89293 7C7.89455 7 7.89617 7 7.8978 7C7.89942 7 7.90104 7 7.90265 7C7.90427 7 7.90589 7 7.9075 7C7.90912 7 7.91073 7 7.91234 7C7.91395 7 7.91556 7 7.91717 7C7.91878 7 7.92039 7 7.92199 7C7.9236 7 7.92521 7 7.92681 7C7.92841 7 7.93001 7 7.93161 7C7.93321 7 7.93481 7 7.93641 7C7.93801 7 7.93961 7 7.9412 7C7.9428 7 7.94439 7 7.94598 7C7.94757 7 7.94916 7 7.95075 7C7.95234 7 7.95393 7 7.95552 7C7.95711 7 7.95869 7 7.96028 7C7.96186 7 7.96345 7 7.96503 7C7.96661 7 7.96819 7 7.96977 7C7.97135 7 7.97293 7 7.97451 7C7.97608 7 7.97766 7 7.97924 7C7.98081 7 7.98238 7 7.98396 7C7.98553 7 7.9871 7 7.98867 7C7.99024 7 7.99181 7 7.99338 7C7.99495 7 7.99651 7 7.99808 7C7.99965 7 8.00121 7 8.00277 7C8.00434 7 8.0059 7 8.00746 7C8.00902 7 8.01058 7 8.01214 7C8.0137 7 8.01526 7 8.01682 7C8.01838 7 8.01993 7 8.02149 7C8.02304 7 8.0246 7 8.02615 7C8.02771 7 8.02926 7 8.03081 7C8.03236 7 8.03391 7 8.03546 7C8.03701 7 8.03856 7 8.04011 7C8.04166 7 8.0432 7 8.04475 7C8.04629 7 8.04784 7 8.04938 7C8.05093 7 8.05247 7 8.05401 7C8.05556 7 8.0571 7 8.05864 7C8.06018 7 8.06172 7 8.06326 7C8.0648 7 8.06634 7 8.06787 7C8.06941 7 8.07095 7 8.07248 7C8.07402 7 8.07555 7 8.07709 7C8.07862 7 8.08016 7 8.08169 7C8.08322 7 8.08475 7 8.08629 7C8.08782 7 8.08935 7 8.09088 7C8.09241 7 8.09394 7 8.09547 7C8.09699 7 8.09852 7 8.10005 7C8.10158 7 8.1031 7 8.10463 7C8.10616 7 8.10768 7 8.10921 7C8.11073 7 8.11225 7 8.11378 7C8.1153 7 8.11682 7 8.11835 7C8.11987 7 8.12139 7 8.12291 7C8.12443 7 8.12595 7 8.12747 7C8.12899 7 8.13051 7 8.13203 7C8.13355 7 8.13507 7 8.13659 7C8.1381 7 8.13962 7 8.14114 7C8.14266 7 8.14417 7 8.14569 7C8.1472 7 8.14872 7 8.15023 7C8.15175 7 8.15326 7 8.15478 7C8.15629 7 8.15781 7 8.15932 7C8.16083 7 8.16235 7 8.16386 7C8.16537 7 8.16688 7 8.1684 7C8.16991 7 8.17142 7 8.17293 7C8.17444 7 8.17595 7 8.17746 7C8.17897 7 8.18048 7 8.18199 7C8.1835 7 8.18501 7 8.18652 7C8.18803 7 8.18954 7 8.19105 7C8.19256 7 8.19407 7 8.19557 7C8.19708 7 8.19859 7 8.2001 7C8.2016 7 8.20311 7 8.20462 7C8.20613 7 8.20763 7 8.20914 7C8.21065 7 8.21215 7 8.21366 7C8.21517 7 8.21667 7 8.21818 7C8.21969 7 8.22119 7 8.2227 7C8.2242 7 8.22571 7 8.22721 7C8.22872 7 8.23023 7 8.23173 7C8.23324 7 8.23474 7 8.23625 7C8.23775 7 8.23926 7 8.24076 7C8.24227 7 8.24377 7 8.24528 7C8.24678 7 8.24829 7 8.24979 7C8.2513 7 8.2528 7 8.25431 7C8.25581 7 8.25732 7 8.25882 7C8.26033 7 8.26183 7 8.26334 7C8.26484 7 8.26635 7 8.26786 7C8.26936 7 8.27087 7 8.27237 7C8.27388 7 8.27538 7 8.27689 7C8.27839 7 8.2799 7 8.28141 7C8.28291 7 8.28442 7 8.28592 7C8.28743 7 8.28894 7 8.29044 7C8.29195 7 8.29346 7 8.29496 7C8.29647 7 8.29798 7 8.29948 7C8.30099 7 8.3025 7 8.30401 7C8.30551 7 8.30702 7 8.30853 7C8.31004 7 8.31155 7 8.31305 7C8.31456 7 8.31607 7 8.31758 7C8.31909 7 8.3206 7 8.32211 7C8.32362 7 8.32513 7 8.32664 7C8.32815 7 8.32966 7 8.33117 7C8.33268 7 8.33419 7 8.33571 7C8.33722 7 8.33873 7 8.34024 7C8.34175 7 8.34327 7 8.34478 7C8.34629 7 8.34781 7 8.34932 7C8.35084 7 8.35235 7 8.35387 7C8.35538 7 8.3569 7 8.35841 7C8.35993 7 8.36144 7 8.36296 7C8.36448 7 8.366 7 8.36751 7C8.36903 7 8.37055 7 8.37207 7C8.37359 7 8.37511 7 8.37663 7C8.37815 7 8.37967 7 8.38119 7C8.38271 7 8.38423 7 8.38575 7C8.38727 7 8.3888 7 8.39032 7C8.39184 7 8.39337 7 8.39489 7C8.39642 7 8.39794 7 8.39947 7C8.40099 7 8.40252 7 8.40405 7C8.40557 7 8.4071 7 8.40863 7C8.41016 7 8.41169 7 8.41322 7C8.41475 7 8.41628 7 8.41781 7C8.41934 7 8.42087 7 8.42241 7C8.42394 7 8.42547 7 8.42701 7C8.42854 7 8.43008 7 8.43161 7C8.43315 7 8.43468 7 8.43622 7C8.43776 7 8.4393 7 8.44084 7C8.44237 7 8.44391 7 8.44546 7C8.447 7 8.44854 7 8.45008 7C8.45162 7 8.45317 7 8.45471 7C8.45625 7 8.4578 7 8.45934 7C8.46089 7 8.46244 7 8.46398 7C8.46553 7 8.46708 7 8.46863 7C8.47018 7 8.47173 7 8.47328 7C8.47483 7 8.47638 7 8.47794 7C8.47949 7 8.48105 7 8.4826 7C8.48416 7 8.48571 7 8.48727 7C8.48883 7 8.49039 7 8.49194 7C8.4935 7 8.49506 7 8.49663 7C8.49819 7 8.49975 7 8.50131 7C8.50288 7 8.50444 7 8.50601 7C8.50757 7 8.50914 7 8.51071 7C8.51228 7 8.51384 7 8.51541 7C8.51698 7 8.51856 7 8.52013 7C8.5217 7 8.52327 7 8.52485 7C8.52642 7 8.528 7 8.52958 7C8.53115 7 8.53273 7 8.53431 7C8.53589 7 8.53747 7 8.53905 7C8.54064 7 8.54222 7 8.5438 7C8.54539 7 8.54697 7 8.54856 7C8.55015 7 8.55174 7 8.55333 7C8.55492 7 8.55651 7 8.5581 7C8.55969 7 8.56128 7 8.56288 7C8.56447 7 8.56607 7 8.56767 7C8.56926 7 8.57086 7 8.57246 7C8.57406 7 8.57567 7 8.57727 7C8.57887 7 8.58048 7 8.58208 7C8.58369 7 8.58529 7 8.5869 7C8.58851 7 8.59012 7 8.59173 7C8.59335 7 8.59496 7 8.59657 7C8.59819 7 8.5998 7 8.60142 7C8.60304 7 8.60466 7 8.60628 7C8.6079 7 8.60952 7 8.61114 7C8.61277 7 8.61439 7 8.61602 7C8.61764 7 8.61927 7 8.6209 7C8.62253 7 8.62416 7 8.62579 7C8.62743 7 8.62906 7 8.6307 7C8.63233 7 8.63397 7 8.63561 7C8.63725 7 8.63889 7 8.64053 7C8.64218 7 8.64382 7 8.64546 7C8.64711 7 8.64876 7 8.65041 7C8.65206 7 8.65371 7 8.65536 7C8.65701 7 8.65867 7 8.66032 7C8.66198 7 8.66364 7 8.6653 7C8.66695 7 8.66862 7 8.67028 7C8.67194 7 8.67361 7 8.67527 7C8.67694 7 8.67861 7 8.68028 7C8.68195 7 8.68362 7 8.68529 7C8.68697 7 8.68864 7 8.69032 7C8.692 7 8.69368 7 8.69536 7C8.69704 7 8.69872 7 8.70041 7C8.70209 7 8.70378 7 8.70547 7C8.70715 7 8.70885 7 8.71054 7C8.71223 7 8.71392 7 8.71562 7C8.71732 7 8.71902 7 8.72072 7C8.72242 7 8.72412 7 8.72582 7C8.72753 7 8.72923 7 8.73094 7C8.73265 7 8.73436 7 8.73607 7C8.73778 7 8.7395 7 8.74121 7C8.74293 7 8.74465 7 8.74637 7C8.74809 7 8.74981 7 8.75153 7C8.75326 7 8.75499 7 8.75671 7C8.75844 7 8.76017 7 8.76191 7C8.76364 7 8.76537 7 8.76711 7C8.76885 7 8.77059 7 8.77233 7C8.77407 7 8.77581 7 8.77756 7C8.7793 7 8.78105 7 8.7828 7C8.78455 7 8.78631 7 8.78806 7C8.78981 7 8.79157 7 8.79333 7C8.79509 7 8.79685 7 8.79861 7C8.80038 7 8.80214 7 8.80391 7C8.80568 7 8.80745 7 8.80922 7C8.81099 7 8.81277 7 8.81455 7C8.81632 7 8.8181 7 8.81989 7C8.82167 7 8.82345 7 8.82524 7C8.82702 7 8.82881 7 8.8306 7C8.8324 7 8.83419 7 8.83599 7C8.83778 7 8.83958 7 8.84138 7C8.84318 7 8.84499 7 8.84679 7C8.8486 7 8.8504 7 8.85222 7C8.85403 7 8.85584 7 8.85765 7C8.85947 7 8.86129 7 8.86311 7C8.86493 7 8.86675 7 8.86858 7C8.8704 7 8.87223 7 8.87406 7C8.87589 7 8.87773 7 8.87956 7C8.8814 7 8.88323 7 8.88508 7C8.88692 7 8.88876 7 8.89061 7C8.89245 7 8.8943 7 8.89615 7C8.898 7 8.89986 7 8.90171 7C8.90357 7 8.90543 7 8.90729 7C8.90915 7 8.91102 7 8.91288 7C8.91475 7 8.91662 7 8.91849 7C8.92036 7 8.92224 7 8.92412 7C8.92599 7 8.92787 7 8.92976 7C8.93164 7 8.93353 7 8.93542 7C8.9373 7 8.9392 7 8.94109 7C8.94298 7 8.94488 7 8.94678 7C8.94868 7 8.95058 7 8.95249 7C8.95439 7 8.9563 7 8.95821 7C8.96012 7 8.96204 7 8.96395 7C8.96587 7 8.96779 7 8.96971 7C8.97164 7 8.97356 7 8.97549 7C8.97742 7 8.97935 7 8.98128 7C8.98322 7 8.98515 7 8.98709 7C8.98903 7 8.99098 7 8.99292 7C8.99487 7 8.99682 7 8.99877 7C9.00072 7 9.00267 7 9.00463 7C9.00659 7 9.00855 7 9.01051 7C9.01248 7 9.01444 7 9.01641 7C9.01838 7 9.02036 7 9.02233 7C9.02431 7 9.02629 7 9.02827 7C9.03025 7 9.03223 7 9.03422 7C9.03621 7 9.0382 7 9.04019 7C9.04219 7 9.04419 7 9.04619 7C9.04819 7 9.05019 7 9.0522 7C9.0542 7 9.05621 7 9.05823 7C9.06024 7 9.06225 7 9.06427 7C9.06629 7 9.06832 7 9.07034 7C9.07237 7 9.0744 7 9.07643 7C9.07846 7 9.0805 7 9.08253 7C9.08457 7 9.08661 7 9.08866 7C9.0907 7 9.09275 7 9.0948 7C9.09686 7 9.09891 7 9.10097 7C9.10303 7 9.10509 7 9.10715 7C9.10922 7 9.11129 7 9.11336 7C9.11543 7 9.11751 7 9.11958 7C9.12166 7 9.12374 7 9.12583 7C9.12791 7 9.13 7 9.13209 7C9.13418 7 9.13628 7 9.13838 7C9.14048 7 9.14258 7 9.14468 7C9.14679 7 9.1489 7 9.15101 7C9.15312 7 9.15524 7 9.15736 7C9.15948 7 9.1616 7 9.16373 7C9.16585 7 9.16798 7 9.17012 7C9.17225 7 9.17439 7 9.17653 7C9.17867 7 9.18081 7 9.18296 7C9.18511 7 9.18726 7 9.18941 7C9.19157 7 9.19372 7 9.19589 7C9.19805 7 9.20021 7 9.20238 7C9.20455 7 9.20672 7 9.2089 7C9.21108 7 9.21325 7 9.21544 7C9.21762 7 9.21981 7 9.222 7C9.22419 7 9.22639 7 9.22858 7C9.23078 7 9.23298 7 9.23519 7C9.2374 7 9.2396 7 9.24182 7C9.24403 7 9.24625 7 9.24847 7C9.25069 7 9.25291 7 9.25514 7C9.25737 7 9.2596 7 9.26184 7C9.26407 7 9.26631 7 9.26856 7C9.2708 7 9.27305 7 9.2753 7C9.27755 7 9.2798 7 9.28206 7C9.28432 7 9.28658 7 9.28885 7C9.29112 7 9.29339 7 9.29566 7C9.29793 7 9.30021 7 9.30249 7C9.30478 7 9.30706 7 9.30935 7C9.31164 7 9.31394 7 9.31623 7C9.31853 7 9.32083 7 9.32314 7C9.32544 7 9.32775 7 9.33007 7C9.33238 7 9.3347 7 9.33702 7C9.33934 7 9.34167 7 9.344 7C9.34633 7 9.34866 7 9.351 7C9.35334 7 9.35568 7 9.35802 7C9.36037 7 9.36272 7 9.36507 7C9.36743 7 9.36979 7 9.37215 7C9.37451 7 9.37688 7 9.37925 7C9.38162 7 9.38399 7 9.38637 7C9.38875 7 9.39113 7 9.39352 7C9.39591 7 9.3983 7 9.40069 7C9.40309 7 9.40549 7 9.40789 7C9.4103 7 9.4127 7 9.41512 7C9.41753 7 9.41995 7 9.42237 7C9.42479 7 9.42721 7 9.42964 7C9.43207 7 9.4345 7 9.43694 7C9.43938 7 9.44182 7 9.44427 7C9.44672 7 9.44917 7 9.45162 7C9.45408 7 9.45654 7 9.459 7C9.46146 7 9.46393 7 9.4664 7C9.46888 7 9.47135 7 9.47383 7C9.47632 7 9.4788 7 9.48129 7C9.48378 7 9.48628 7 9.48878 7C9.49127 7 9.49378 7 9.49628 7C9.49879 7 9.5013 7 9.50382 7C9.50634 7 9.50886 7 9.51138 7C9.51391 7 9.51644 7 9.51898 7C9.52151 7 9.52405 7 9.52659 7C9.52914 7 9.53168 7 9.53424 7C9.53679 7 9.53935 7 9.54191 7C9.54447 7 9.54704 7 9.54961 7C9.55218 7 9.55476 7 9.55733 7C9.55992 7 9.5625 7 9.56509 7C9.56768 7 9.57027 7 9.57287 7C9.57547 7 9.57807 7 9.58068 7C9.58329 7 9.5859 7 9.58852 7C9.59114 7 9.59376 7 9.59639 7C9.59901 7 9.60164 7 9.60428 7C9.60692 7 9.60956 7 9.6122 7C9.61485 7 9.6175 7 9.62015 7C9.62281 7 9.62547 7 9.62813 7C9.6308 7 9.63347 7 9.63614 7C9.63882 7 9.6415 7 9.64418 7C9.64686 7 9.64955 7 9.65225 7C9.65494 7 9.65764 7 9.66034 7C9.66304 7 9.66575 7 9.66846 7C9.67118 7 9.6739 7 9.67662 7C9.67934 7 9.68207 7 9.6848 7C9.68753 7 9.69027 7 9.69301 7C9.69576 7 9.6985 7 9.70126 7C9.70401 7 9.70677 7 9.70953 7C9.71229 7 9.71506 7 9.71783 7C9.7206 7 9.72338 7 9.72616 7C9.72894 7 9.73173 7 9.73452 7C9.73732 7 9.74011 7 9.74292 7C9.74572 7 9.74853 7 9.75134 7C9.75415 7 9.75697 7 9.75979 7C9.76262 7 9.76544 7 9.76828 7C9.77111 7 9.77395 7 9.77679 7C9.77963 7 9.78248 7 9.78534 7C9.78819 7 9.79105 7 9.79391 7C9.79678 7 9.79964 7 9.80252 7C9.80539 7 9.80827 7 9.81116 7C9.81404 7 9.81693 7 9.81983 7C9.82272 7 9.82562 7 9.82853 7C9.83143 7 9.83434 7 9.83726 7C9.84018 7 9.8431 7 9.84602 7C9.84895 7 9.85188 7 9.85482 7C9.85776 7 9.8607 7 9.86365 7C9.8666 7 9.86955 7 9.87251 7C9.87547 7 9.87843 7 9.8814 7C9.88437 7 9.88735 7 9.89033 7C9.89331 7 9.89629 7 9.89928 7C9.90227 7 9.90527 7 9.90827 7C9.91127 7 9.91428 7 9.91729 7C9.92031 7 9.92332 7 9.92635 7C9.92937 7 9.9324 7 9.93544 7C9.93847 7 9.94151 7 9.94456 7C9.9476 7 9.95065 7 9.95371 7C9.95677 7 9.95983 7 9.9629 7C9.96596 7 9.96904 7 9.97212 7C9.97519 7 9.97828 7 9.98137 7C9.98446 7 9.98755 7 9.99066 7C9.99376 7 9.99686 7 9.99998 7V5ZM5.81948 2.42746C6.0028 2.16533 6.30529 2 6.63958 2V0C5.63392 0 4.72736 0.499333 4.18052 1.28124L5.81948 2.42746ZM9 15V12H7V15H9ZM6 9H5V11H6L6 9ZM2.57441 6.62861L4.07152 10.3714L5.92848 9.62861L4.43136 5.88583L2.57441 6.62861ZM1 6H1.64594V4H1V6ZM5 9H1L1 11H5V9ZM8 14H5.73144V16H8V14ZM2.26856 14H1L1 16H2.26856V14ZM4 13C2.3492 13 1 14.3417 1 16H3C3 15.4492 3.4508 15 4 15V13ZM1 16C1 17.6569 2.34315 19 4 19V17C3.44772 17 3 16.5523 3 16H1ZM4 19C5.65685 19 7 17.6569 7 16H5C5 16.5523 4.55228 17 4 17V19ZM7 16C7 14.3417 5.6508 13 4 13V15C4.5492 15 5 15.4492 5 16H7ZM4.43136 5.88583C3.97577 4.74685 2.87265 4 1.64594 4V6C2.05484 6 2.42255 6.24895 2.57441 6.62861L4.43136 5.88583ZM9 12C9 10.3431 7.65685 9 6 9L6 11C6.55228 11 7 11.4477 7 12H9Z" fill="black"/>
</svg>
