<svg width="24" height="24" viewBox="0 0 24 24" fill="none" xmlns="http://www.w3.org/2000/svg">
<path d="M19.9525 7.9256C19.9647 8.10191 19.9647 8.27823 19.9647 8.45617C19.9647 13.8781 15.8371 20.1312 8.28966 20.1312V20.1279C6.06013 20.1312 3.8769 19.4925 2 18.2884C2.32419 18.3274 2.65001 18.3469 2.97664 18.3477C4.82429 18.3493 6.61913 17.7294 8.07272 16.5878C6.31688 16.5545 4.77717 15.4097 4.23928 13.7383C4.85436 13.8569 5.48812 13.8326 6.09181 13.6676C4.17753 13.2809 2.80033 11.599 2.80033 9.64569V9.59369C3.37071 9.91138 4.00934 10.0877 4.6626 10.1072C2.85964 8.90224 2.30388 6.5037 3.39265 4.62842C5.47593 7.1919 8.54966 8.7503 11.8493 8.91524C11.5186 7.49009 11.9703 5.99669 13.0364 4.99486C14.689 3.44134 17.2882 3.52097 18.8418 5.1728C19.7607 4.99161 20.6415 4.65442 21.4475 4.17666C21.1412 5.12649 20.5001 5.93332 19.6437 6.44601C20.457 6.35014 21.2517 6.13238 22 5.80006C21.4491 6.62558 20.7552 7.34465 19.9525 7.9256Z" fill="#1D9BF0"/>
</svg>
