<svg width="24" height="24" viewBox="0 0 24 24" fill="none" xmlns="http://www.w3.org/2000/svg">
<path d="M21.1198 16.88C20.6816 16.4453 20.12 16.1563 19.5115 16.0525C18.9031 15.9487 18.2774 16.0351 17.7198 16.3L16.5698 15.16C18.9259 12.6176 20.7034 9.59491 21.7798 6.29999C21.9841 5.73076 22.0224 5.11518 21.8901 4.52503C21.7579 3.93489 21.4606 3.39449 21.033 2.96685C20.6053 2.5392 20.0649 2.24193 19.4748 2.1097C18.8846 1.97747 18.2691 2.01572 17.6998 2.21999C14.4049 3.29646 11.3823 5.07388 8.83984 7.42999L7.69984 6.27999C7.93667 5.78309 8.03222 5.2306 7.97603 4.68301C7.91983 4.13542 7.71406 3.61385 7.38125 3.1754C7.04843 2.73695 6.60139 2.39852 6.08908 2.19717C5.57677 1.99581 5.01893 1.9393 4.47664 2.0338C3.93435 2.12831 3.42852 2.3702 3.01452 2.73298C2.60053 3.09577 2.29432 3.56547 2.12944 4.09066C1.96456 4.61584 1.94735 5.17627 2.07971 5.71058C2.21206 6.2449 2.48887 6.73249 2.87984 7.11999C3.44191 7.68276 4.20445 7.99929 4.99984 7.99999C5.44344 7.99586 5.8806 7.8934 6.27984 7.69999L7.42984 8.83999C5.07372 11.3824 3.2963 14.4051 2.21984 17.7C2.03234 18.2684 2.00598 18.8777 2.14366 19.4602C2.28134 20.0427 2.57769 20.5757 2.99984 21C3.2857 21.3048 3.62901 21.55 4.01 21.7216C4.39099 21.8933 4.80215 21.9879 5.21984 22C5.58622 21.9965 5.95011 21.9393 6.29984 21.83C9.59475 20.7535 12.6174 18.9761 15.1598 16.62L16.2998 17.77C16.063 18.2669 15.9675 18.8194 16.0236 19.367C16.0798 19.9146 16.2856 20.4361 16.6184 20.8746C16.9512 21.313 17.3983 21.6515 17.9106 21.8528C18.4229 22.0542 18.9807 22.1107 19.523 22.0162C20.0653 21.9217 20.5711 21.6798 20.9851 21.317C21.3991 20.9542 21.7053 20.4845 21.8702 19.9593C22.0351 19.4341 22.0523 18.8737 21.92 18.3394C21.7876 17.8051 21.5108 17.3175 21.1198 16.93V16.88ZM5.70984 5.69999C5.52286 5.8883 5.26874 5.99461 5.00337 5.99555C4.73801 5.99649 4.48314 5.89197 4.29484 5.70499C4.10653 5.51802 4.00022 5.26389 3.99928 4.99853C3.99834 4.73317 4.10286 4.4783 4.28984 4.28999C4.47681 4.10169 4.73094 3.99538 4.9963 3.99444C5.26166 3.9935 5.51653 4.09802 5.70484 4.28499C5.89314 4.47197 5.99945 4.72609 6.00039 4.99146C6.00133 5.25682 5.89681 5.51169 5.70984 5.69999ZM18.3098 4.12999C18.4616 4.08 18.6201 4.05304 18.7798 4.04999C18.9338 4.04874 19.0865 4.07815 19.229 4.13653C19.3715 4.1949 19.501 4.28107 19.6098 4.38999C19.7728 4.55922 19.8839 4.77159 19.93 5.00197C19.976 5.23235 19.9552 5.4711 19.8698 5.68999C19.3416 7.31379 18.6268 8.87085 17.7398 10.33L13.6698 6.25999C15.129 5.37304 16.686 4.65827 18.3098 4.12999ZM5.68984 19.87C5.47176 19.9573 5.23287 19.9787 5.00276 19.9314C4.77266 19.8842 4.56147 19.7706 4.39537 19.6045C4.22928 19.4384 4.11558 19.2272 4.06838 18.9971C4.02118 18.767 4.04255 18.5281 4.12984 18.31C4.65811 16.6862 5.37289 15.1291 6.25984 13.67L10.3298 17.74C8.87069 18.6269 7.31363 19.3417 5.68984 19.87ZM11.9998 16.59L7.40984 12C7.85547 11.3952 8.3328 10.8144 8.83984 10.26L13.7498 15.17C13.192 15.6739 12.6078 16.1479 11.9998 16.59ZM15.1498 13.75L10.2498 8.83999C10.8074 8.33268 11.3916 7.85534 11.9998 7.40999L16.5998 12.01C16.151 12.6151 15.6703 13.1959 15.1598 13.75H15.1498ZM19.6998 19.75C19.6073 19.8432 19.4972 19.9173 19.376 19.968C19.2548 20.0187 19.1248 20.0451 18.9934 20.0456C18.862 20.046 18.7318 20.0206 18.6102 19.9707C18.4886 19.9209 18.3781 19.8476 18.2848 19.755C18.1916 19.6624 18.1175 19.5524 18.0668 19.4312C18.0161 19.3099 17.9897 19.1799 17.9893 19.0485C17.9888 18.9171 18.0142 18.7869 18.0641 18.6654C18.1139 18.5438 18.1873 18.4332 18.2798 18.34C18.4672 18.1537 18.7207 18.0492 18.9848 18.0492C19.249 18.0492 19.5025 18.1537 19.6898 18.34C19.8669 18.5229 19.9676 18.7665 19.9713 19.021C19.975 19.2756 19.8815 19.522 19.7098 19.71L19.6998 19.75Z" fill="black"/>
</svg>
